<svg width="20" height="20" viewBox="0 0 20 20" fill="none" xmlns="http://www.w3.org/2000/svg">
<path d="M4.04302 0.824279C3.58989 0.882873 3.0938 1.04303 2.5977 1.28912C2.04302 1.56256 1.73052 1.78912 1.29692 2.24225C-0.203076 3.80475 -0.421826 6.17193 0.765674 8.00397C1.01958 8.39068 1.6563 9.04693 2.01958 9.29303C3.42192 10.2344 5.1602 10.3751 6.63677 9.66412C7.99614 9.01568 8.9102 7.85162 9.24224 6.35943C9.32427 5.99225 9.33599 5.05084 9.26177 4.6485C8.92583 2.79303 7.50395 1.30865 5.66411 0.894591C5.27349 0.804748 4.43755 0.769591 4.04302 0.824279ZM5.52739 2.06647C6.49614 2.31647 7.3438 3.00787 7.79302 3.91803C8.06255 4.4649 8.13677 4.79303 8.13677 5.44928C8.13677 6.10553 8.06255 6.43365 7.79302 6.98053C7.3438 7.89459 6.51958 8.56647 5.52739 8.83209C5.11724 8.94537 4.29302 8.95709 3.89067 8.85553C3.20708 8.68365 2.69536 8.3985 2.20708 7.91022C1.48442 7.18365 1.12505 6.25787 1.18364 5.25397C1.27739 3.63678 2.44927 2.32037 4.07427 2.00787C4.44927 1.93756 5.12505 1.9649 5.52739 2.06647Z" fill="#263F97"/>
<path d="M4.37109 3.59766C4.09766 3.75781 4.08203 3.82031 4.08203 4.76562C4.08203 5.53906 4.08984 5.61719 4.16016 5.74219C4.20703 5.81641 4.30078 5.91016 4.375 5.95703C4.5 6.02734 4.57813 6.03516 5.35938 6.03516C6.15625 6.03516 6.21094 6.03125 6.31641 5.95312C6.66797 5.69141 6.69922 5.28906 6.38672 5C6.28906 4.91016 6.25 4.90234 5.76953 4.88281L5.25391 4.86328L5.23438 4.34766C5.21484 3.86719 5.20703 3.82812 5.11719 3.73047C4.90625 3.50391 4.62109 3.45312 4.37109 3.59766Z" fill="#263F97"/>
<path d="M10.4849 5.47667C10.481 6.41027 10.3208 7.13292 9.93799 7.92589C9.46142 8.91808 8.78564 9.71105 7.91064 10.2931C5.68018 11.7775 2.80127 11.5782 0.781738 9.79308C0.598144 9.63292 0.352051 9.38292 0.234863 9.23839L0.0200195 8.98058L0.00830078 12.8595C0.00439453 14.9923 0.00830078 16.7931 0.0200195 16.8634C0.043457 17.0001 0.191895 17.1993 0.328613 17.2775C0.387207 17.3126 0.809082 17.3282 1.81299 17.3439L3.21143 17.3634L3.30127 17.6134C3.50439 18.172 3.96924 18.6837 4.51611 18.9493C5.48486 19.4181 6.5708 19.2462 7.32861 18.4962C7.61767 18.211 7.80908 17.9142 7.93017 17.5665L8.00049 17.3634H10.0005H12.0005L12.0708 17.5665C12.3286 18.297 12.9653 18.8985 13.731 19.1251C14.0513 19.2228 14.7388 19.2228 15.0591 19.1251C15.8091 18.9025 16.4458 18.3126 16.6997 17.6134L16.7895 17.3634L18.1958 17.3439C19.5395 17.3243 19.6099 17.3204 19.7114 17.2423C19.77 17.1993 19.856 17.1134 19.8989 17.0548C19.981 16.9493 19.981 16.9103 19.9888 13.9532L19.9966 10.9571L18.9731 8.92589C18.0278 7.04699 17.938 6.89074 17.813 6.82824C17.688 6.76183 17.4888 6.75792 15.3833 6.75792H13.0864V6.03527C13.0864 5.25402 13.0708 5.18761 12.8716 5.00011L12.7661 4.90246L11.6294 4.89074L10.4888 4.87902L10.4849 5.47667ZM17.8052 9.19933C18.1528 9.89855 18.438 10.4767 18.438 10.4884C18.438 10.5001 17.2349 10.5079 15.7622 10.5079H13.0864V9.21886V7.9298H15.1294H17.1685L17.8052 9.19933ZM6.16455 15.5821C6.96533 15.9962 7.14502 17.0353 6.52393 17.6564C6.04346 18.1368 5.22314 18.1603 4.74268 17.7071C4.55127 17.5275 4.42236 17.3048 4.35596 17.0353C4.19189 16.3985 4.58252 15.715 5.23486 15.504C5.28955 15.4845 5.48096 15.4767 5.66455 15.4806C5.91455 15.4923 6.03564 15.5157 6.16455 15.5821ZM14.9927 15.6056C15.7856 16.0353 15.9185 17.086 15.2583 17.7071C14.9106 18.0353 14.3052 18.129 13.8638 17.922C13.2114 17.6212 12.9224 16.8673 13.2153 16.2306C13.3833 15.8712 13.6606 15.6212 14.0239 15.504C14.0786 15.4845 14.27 15.4767 14.4536 15.4806C14.7349 15.4923 14.8169 15.5079 14.9927 15.6056Z" fill="#263F97"/>
</svg>
