<svg width="69" height="69" viewBox="0 0 69 69" fill="none" xmlns="http://www.w3.org/2000/svg">
<circle cx="34.5" cy="34.5" r="34.5" fill="white"/>
<path d="M10.0403 24.7965C9.79797 23.4225 10.7154 22.1122 12.0895 21.8699L24.1167 19.7492C24.8357 19.6224 25.5744 19.8129 26.1424 20.2715L33.6488 26.3324C34.1237 26.7158 34.4437 27.2582 34.5497 27.8593L38.0851 47.9093C38.3274 49.2834 37.4099 50.5937 36.0358 50.8359L17.765 54.0576C16.391 54.2998 15.0807 53.3824 14.8384 52.0083L10.0403 24.7965Z" fill="#AAB0CC"/>
<path d="M25.9359 26.0831L24.9555 20.5227C24.8256 19.7862 24.4905 19.6593 24.2588 19.7011C24.2152 19.7144 24.1714 19.7296 24.1273 19.7468C24.1643 19.7268 24.2092 19.7101 24.2588 19.7011C25.0671 19.4542 25.7717 19.8567 26.0337 20.1021L33.856 26.559C34.6054 26.8878 34.6578 28.4919 34.5395 27.8213C34.4449 27.2848 33.8252 27.2558 33.5272 27.3084L28.8623 28.1309C27.4883 28.3732 26.1782 27.4571 25.9359 26.0831Z" fill="#C5CBE3"/>
<path d="M14.9609 37.0361L25.6902 35.1443L26.0843 37.3795L15.3551 39.2714L14.9609 37.0361Z" fill="#C5CBE3"/>
<path d="M32.3984 33.9619L27.4809 34.829L27.875 37.0643L32.7926 36.1972L32.3984 33.9619Z" fill="#C5CBE3"/>
<path d="M15.75 41.5059L26.4792 39.614L26.8734 41.8493L16.1441 43.7411L15.75 41.5059Z" fill="#C5CBE3"/>
<path d="M33.1836 38.4326L28.266 39.2997L28.6602 41.535L33.5777 40.6679L33.1836 38.4326Z" fill="#C5CBE3"/>
<path d="M16.5391 45.9766L27.2683 44.0847L27.6624 46.32L16.9332 48.2118L16.5391 45.9766Z" fill="#C5CBE3"/>
<path d="M33.9727 42.9023L29.0551 43.7694L29.4492 46.0047L34.3668 45.1376L33.9727 42.9023Z" fill="#C5CBE3"/>
<path d="M39.9328 16.1474C40.41 14.8363 41.8597 14.1603 43.1708 14.6375L54.647 18.8145C55.3331 19.0642 55.8776 19.5985 56.1402 20.2797L59.6105 29.2818C59.8301 29.8513 59.836 30.481 59.6273 31.0546L52.664 50.1861C52.1868 51.4972 50.7371 52.1732 49.4259 51.696L31.9922 45.3506C30.6811 44.8734 30.0051 43.4237 30.4823 42.1126L39.9328 16.1474Z" fill="#C5CBE3"/>
<path d="M53.058 25.2101L54.9891 19.9045C55.2449 19.2018 55.0181 18.9243 54.7965 18.8447C54.7521 18.8344 54.7066 18.8256 54.6597 18.8185C54.7019 18.8196 54.7491 18.8276 54.7965 18.8447C55.62 19.035 56.029 19.7359 56.1331 20.0794L59.679 29.5823C60.1636 30.2418 59.4069 31.6572 59.6398 31.0173C59.8261 30.5054 59.3039 30.1704 59.0196 30.0669L54.5684 28.4468C53.2573 27.9696 52.5808 26.5212 53.058 25.2101Z" fill="#E4E7F3"/>
<path d="M38.0781 29.208L48.3158 32.9342L47.5395 35.0671L37.3018 31.3409L38.0781 29.208Z" fill="#E4E7F3"/>
<path d="M54.7148 35.2627L50.0226 33.5548L49.2463 35.6877L53.9385 37.3956L54.7148 35.2627Z" fill="#E4E7F3"/>
<path d="M36.5234 33.4736L46.7611 37.1999L45.9848 39.3327L35.7471 35.6065L36.5234 33.4736Z" fill="#E4E7F3"/>
<path d="M53.1602 39.5293L48.4679 37.8214L47.6916 39.9543L52.3839 41.6622L53.1602 39.5293Z" fill="#E4E7F3"/>
<path d="M34.9727 37.7393L45.2104 41.4655L44.4341 43.5983L34.1964 39.8721L34.9727 37.7393Z" fill="#E4E7F3"/>
<path d="M51.6094 43.7949L46.9171 42.0871L46.1408 44.2199L50.8331 45.9278L51.6094 43.7949Z" fill="#E4E7F3"/>
</svg>
