<svg width="207" height="138" viewBox="0 0 207 138" fill="none" xmlns="http://www.w3.org/2000/svg">
<path d="M127.501 15.1112C127.917 17.9164 127.491 20.7819 126.277 23.3448C125.063 25.9077 123.115 28.0527 120.682 29.5081C118.248 30.9635 115.437 31.6639 112.604 31.5205C109.772 31.3772 107.046 30.3965 104.772 28.7027C102.497 27.0089 100.777 24.6783 99.8278 22.0059C98.8789 19.3335 98.7444 16.4396 99.4414 13.6908C100.138 10.9419 101.636 8.46175 103.743 6.56437C105.851 4.66699 108.474 3.43776 111.281 3.03237C113.139 2.76038 115.032 2.85706 116.853 3.31689C118.674 3.77672 120.386 4.59069 121.892 5.71233C123.399 6.83397 124.669 8.24131 125.631 9.85398C126.594 11.4667 127.229 13.2531 127.501 15.1112Z" fill="#F5F5F5"/>
<path d="M124.131 15.6029C124.446 17.7398 124.12 19.9222 123.194 21.8738C122.268 23.8254 120.784 25.4585 118.93 26.5663C117.076 27.6741 114.934 28.2068 112.777 28.0971C110.62 27.9873 108.544 27.24 106.811 25.9497C105.079 24.6594 103.768 22.8842 103.045 20.8487C102.323 18.8133 102.22 16.6091 102.75 14.5152C103.281 12.4213 104.42 10.5318 106.025 9.08593C107.63 7.64006 109.627 6.70282 111.765 6.39282C114.626 5.97801 117.534 6.71469 119.852 8.44128C122.17 10.1679 123.709 12.7434 124.131 15.6029Z" fill="#EBEBEB"/>
<path d="M112.923 24.1508L110.188 19.3785V18.2538H111.099C111.636 18.2538 112.087 18.1373 112.452 17.9042C112.817 17.661 113.05 17.3267 113.151 16.9011H110.188V15.7764H113.136C113.045 15.3914 112.857 15.0722 112.574 14.8189C112.29 14.5555 111.895 14.4238 111.388 14.4238H110.188V13.2991H117.042V14.4238H114.656C115.01 14.8088 115.233 15.2597 115.325 15.7764H117.042V16.9011H115.355C115.254 17.6509 114.965 18.2386 114.489 18.6642C114.012 19.0796 113.399 19.3633 112.65 19.5153L115.629 24.1508H112.923Z" fill="#BCC5C8" fill-opacity="0.6"/>
<path d="M124.08 15.2642C124.015 15.2642 123.899 14.8071 123.606 14.0055C123.195 12.8801 122.613 11.825 121.88 10.8775C121.377 10.2324 120.805 9.6444 120.174 9.12416C119.444 8.53305 118.642 8.03782 117.786 7.65055C117.326 7.43977 116.85 7.26305 116.364 7.12182C115.331 6.82191 114.26 6.67932 113.185 6.69884C112.059 6.72058 110.944 6.91856 109.879 7.28555C109.363 7.46499 108.862 7.68278 108.378 7.93708C107.911 8.18175 107.464 8.46231 107.041 8.77623C106.632 9.07468 106.246 9.40426 105.888 9.76205C104.629 10.9943 103.692 12.5171 103.159 14.1965C102.796 15.3382 102.612 16.5291 102.613 17.7271C102.613 18.5833 102.668 19.0608 102.613 19.0711C102.559 19.0813 102.402 18.6208 102.3 17.7475C102.169 16.5014 102.27 15.2417 102.6 14.0328C102.822 13.1995 103.14 12.3947 103.548 11.6348C104.033 10.7613 104.634 9.95795 105.336 9.24696C105.714 8.85617 106.122 8.49575 106.557 8.16904C107.008 7.82299 107.485 7.51385 107.986 7.24462C108.504 6.96333 109.043 6.72379 109.599 6.52828C110.173 6.33208 110.76 6.17817 111.356 6.06778C111.955 5.96567 112.56 5.90866 113.167 5.89722C113.756 5.88748 114.345 5.92627 114.928 6.0132C115.49 6.09272 116.044 6.21822 116.585 6.38842C117.106 6.53506 117.613 6.72328 118.103 6.95126C119.803 7.75847 121.267 8.98958 122.354 10.5261C123.075 11.5486 123.6 12.6959 123.902 13.91C124.121 14.7662 124.128 15.2574 124.08 15.2642Z" fill="#E0E0E0"/>
<path d="M182.012 76.7884C182.012 76.7884 178.837 74.9532 175.552 82.4816C172.267 90.01 171.117 94.3047 171.117 94.3047C171.117 94.3047 170.223 95.8943 169.115 94.9596C168.006 94.025 166.386 91.2688 164.636 91.8896C162.814 92.5309 162.33 94.6356 162.866 97.651C163.401 100.666 164.332 107.325 164.414 107.925C164.496 108.526 164.21 109.413 163.35 108.894C162.49 108.376 157.425 103.378 155.194 105.923C152.963 108.468 155.839 116.631 156.139 117.521C156.439 118.411 156.279 118.821 155.859 119.073C155.44 119.325 153.894 117.483 152.397 116.119C150.899 114.754 148.921 113.438 147.758 115.014C146.594 116.59 146.567 122.859 153.106 132.608L156.432 136.934L161.89 136.303C173.457 134.256 177.946 129.883 178.264 127.952C178.581 126.022 176.271 125.51 174.252 125.377C172.233 125.244 169.817 125.408 169.722 124.93C169.626 124.452 169.794 124.064 170.646 123.654C171.499 123.245 179.372 119.656 179.659 116.283C179.945 112.909 172.836 112.732 171.861 112.472C170.885 112.213 171.339 111.384 171.82 111.033C172.301 110.682 177.752 106.728 180.297 105.022C182.841 103.317 184.022 101.506 183.22 99.7489C182.449 98.0433 179.348 98.804 177.905 98.6539C176.462 98.5038 176.984 96.7573 176.984 96.7573C176.984 96.7573 179.277 92.9436 182.422 85.3572C185.567 77.7709 181.951 76.7509 181.951 76.7509" fill="#EBEBEB"/>
<path d="M156.633 135.801C158.966 130.238 162.251 122.583 165.908 114.134C169.564 105.684 172.87 98.0432 175.23 92.4933L178.024 85.92L178.785 84.1326L178.986 83.672C179.034 83.5663 179.061 83.5151 179.061 83.5151C179.046 83.5708 179.028 83.6255 179.007 83.6789L178.819 84.1462C178.652 84.5658 178.406 85.1695 178.092 85.9473C177.458 87.5096 176.523 89.7644 175.363 92.5444C173.02 98.108 169.735 105.783 166.085 114.209C162.435 122.634 159.123 130.306 156.762 135.852" fill="#E0E0E0"/>
<path d="M166.732 95.8162C166.801 95.9299 166.856 96.0513 166.896 96.1777C166.988 96.4131 167.114 96.7576 167.268 97.2011C167.568 98.0573 167.95 99.2478 168.349 100.575L169.373 103.969C169.495 104.371 169.598 104.712 169.683 104.992C169.73 105.115 169.762 105.243 169.779 105.374C169.71 105.262 169.655 105.142 169.615 105.016C169.519 104.777 169.393 104.433 169.246 103.993C168.953 103.133 168.588 101.946 168.189 100.612L167.166 97.2284L166.852 96.205C166.793 96.0819 166.753 95.9509 166.732 95.8162Z" fill="#E0E0E0"/>
<path d="M170.266 105.442C170.266 105.394 172.674 104.493 175.679 103.429C178.684 102.365 181.137 101.543 181.137 101.594C181.137 101.645 178.729 102.542 175.723 103.606C172.718 104.671 170.283 105.476 170.266 105.442Z" fill="#E0E0E0"/>
<path d="M164.068 118.142C164.199 118.111 164.333 118.096 164.467 118.098L165.562 118.033C166.483 117.978 167.759 117.897 169.161 117.757C170.563 117.617 171.829 117.456 172.743 117.327L173.828 117.18C173.96 117.152 174.095 117.141 174.23 117.146C174.106 117.198 173.975 117.234 173.841 117.252C173.589 117.306 173.22 117.378 172.763 117.46C171.853 117.62 170.587 117.801 169.178 117.944C167.769 118.088 166.494 118.142 165.566 118.163C165.102 118.163 164.73 118.163 164.471 118.163C164.336 118.174 164.201 118.167 164.068 118.142Z" fill="#E0E0E0"/>
<path d="M158.953 110.156C158.953 110.156 159.049 110.251 159.188 110.445C159.328 110.64 159.53 110.92 159.772 111.274C160.253 111.977 160.911 112.959 161.627 114.048C162.344 115.136 162.992 116.128 163.442 116.852C163.671 117.213 163.852 117.51 163.974 117.715C164.046 117.821 164.104 117.935 164.148 118.056C164.057 117.97 163.978 117.873 163.913 117.766C163.773 117.571 163.572 117.288 163.33 116.937C162.849 116.231 162.19 115.252 161.474 114.16C160.758 113.069 160.109 112.079 159.659 111.356C159.431 110.995 159.25 110.701 159.127 110.493C159.056 110.388 158.998 110.274 158.953 110.156Z" fill="#E0E0E0"/>
<path d="M152.055 120.686C152.164 120.801 152.262 120.925 152.348 121.058C152.546 121.341 152.798 121.696 153.098 122.119C153.723 123.02 154.576 124.271 155.507 125.656C156.438 127.041 157.274 128.307 157.871 129.224L158.57 130.319C158.662 130.45 158.741 130.589 158.805 130.736C158.694 130.621 158.595 130.495 158.509 130.36L157.762 129.299C157.137 128.399 156.285 127.15 155.35 125.762C154.415 124.374 153.583 123.112 152.986 122.194C152.706 121.757 152.474 121.389 152.287 121.099C152.194 120.971 152.116 120.832 152.055 120.686Z" fill="#E0E0E0"/>
<path d="M158.713 130.448C158.88 130.408 159.05 130.384 159.221 130.377L160.586 130.247C161.752 130.135 163.366 129.978 165.139 129.753C166.913 129.527 168.517 129.289 169.676 129.104L171.041 128.89C171.208 128.854 171.378 128.836 171.549 128.835C171.388 128.892 171.223 128.934 171.054 128.961C170.734 129.033 170.27 129.128 169.69 129.234C168.537 129.452 166.934 129.715 165.157 129.937C163.379 130.158 161.745 130.302 160.589 130.377C160.002 130.414 159.528 130.442 159.201 130.452C159.038 130.466 158.875 130.465 158.713 130.448Z" fill="#E0E0E0"/>
<path d="M81.0586 99.8683L16.0456 79.6334C15.2432 79.3837 14.5728 78.8254 14.182 78.0814C13.7911 77.3375 13.7118 76.4687 13.9614 75.6662L26.4633 35.5136C26.5858 35.1147 26.786 34.7439 27.0523 34.4226C27.3187 34.1013 27.646 33.8358 28.0153 33.6415C28.3846 33.4471 28.7888 33.3278 29.2044 33.2902C29.6201 33.2526 30.039 33.2976 30.4372 33.4226L95.4537 53.6609C96.2552 53.9106 96.9248 54.4685 97.315 55.2119C97.7052 55.9552 97.7842 56.8231 97.5345 57.6247L85.0156 97.7875C84.7666 98.588 84.2099 99.2569 83.4679 99.6471C82.7259 100.037 81.8593 100.117 81.0586 99.8683Z" fill="#018B38"/>
<path d="M84.6511 62.093C84.3488 63.063 83.7656 63.9215 82.9754 64.5601C82.1852 65.1987 81.2233 65.5886 80.2115 65.6805C79.1997 65.7725 78.1833 65.5623 77.2909 65.0767C76.3985 64.591 75.6702 63.8517 75.198 62.9521C74.7257 62.0525 74.5309 61.0331 74.638 60.0228C74.7451 59.0124 75.1494 58.0566 75.7998 57.276C76.4502 56.4955 77.3174 55.9253 78.2918 55.6375C79.2662 55.3498 80.304 55.3575 81.274 55.6596C81.9185 55.8598 82.5172 56.1851 83.0358 56.6169C83.5544 57.0488 83.9828 57.5786 84.2964 58.1761C84.6101 58.7737 84.8028 59.4272 84.8637 60.0993C84.9246 60.7714 84.8523 61.4489 84.6511 62.093Z" fill="white"/>
<path d="M85.0164 67.7146C84.7007 67.6732 84.3891 67.6048 84.0851 67.5099C82.7885 67.0993 81.7002 66.2045 81.0466 65.0118C80.393 63.8191 80.2245 62.4203 80.5761 61.1065C80.9278 59.7927 81.7725 58.665 82.9345 57.9583C84.0964 57.2515 85.4862 57.02 86.8146 57.3119C88.1429 57.6039 89.3076 58.3968 90.0661 59.5256C90.8246 60.6545 91.1187 62.0324 90.887 63.3726C90.6553 64.7128 89.9158 65.912 88.8223 66.7208C87.7289 67.5295 86.3657 67.8855 85.0164 67.7146ZM86.2887 57.5153C85.3582 57.3986 84.4138 57.5498 83.5662 57.9511C82.7186 58.3524 82.0031 58.9872 81.5036 59.7809C81.0042 60.5746 80.7415 61.4944 80.7465 62.4321C80.7514 63.3699 81.0238 64.2868 81.5316 65.0752C82.0394 65.8636 82.7616 66.4908 83.6134 66.8831C84.4652 67.2754 85.4112 67.4166 86.3405 67.2901C87.2697 67.1636 88.1435 66.7746 88.8594 66.1689C89.5753 65.5631 90.1036 64.7657 90.3821 63.8702C90.7696 62.6222 90.6459 61.2714 90.0384 60.1145C89.4308 58.9575 88.3889 58.0889 87.1415 57.6995C86.8572 57.6139 86.5663 57.5523 86.2717 57.5153H86.2887Z" fill="white"/>
<path d="M24.4943 64.007L23.2731 67.9503L22.8672 67.8241L23.9826 64.2424L23.0548 63.9524L23.1674 63.5908L24.4943 64.007Z" fill="white"/>
<path d="M27.4356 68.8541L27.3231 69.2157L24.5566 68.3527L24.6487 68.0661L26.7875 66.9712C27.3674 66.6676 27.5346 66.4288 27.6199 66.1593C27.7631 65.7022 27.5278 65.3202 26.9376 65.136C26.7403 65.0613 26.5286 65.032 26.3184 65.0503C26.1081 65.0686 25.9047 65.134 25.7233 65.2417L25.5118 64.9006C25.7482 64.7648 26.0118 64.6827 26.2836 64.6603C26.5554 64.6379 26.8288 64.6757 27.0843 64.771C27.8859 65.02 28.268 65.5862 28.0633 66.2446C27.9439 66.6232 27.7222 66.9268 27.04 67.2679L25.2866 68.1685L27.4356 68.8541Z" fill="white"/>
<path d="M31.8022 69.4685L31.0108 69.2263L30.6902 70.2496L30.2843 70.12L30.6049 69.0967L28.3809 68.4144L28.4695 68.1211L31.3758 66.1597L31.8261 66.2995L29.0153 68.2166L30.7209 68.7521L31.004 67.838L31.3963 67.9608L31.1132 68.8749L31.9012 69.1205L31.8022 69.4685Z" fill="white"/>
<path d="M37.8452 71.3505L37.0572 71.1049L36.7332 72.1283L36.3272 72.0021L36.6513 70.9787L34.4238 70.2965L34.5159 70.0031L37.4188 68.0383L37.8691 68.1782L35.0617 70.0987L36.7673 70.6308L37.0504 69.72L37.4461 69.8428L37.1596 70.7536L37.951 70.9992L37.8452 71.3505Z" fill="white"/>
<path d="M41.3332 72.2989C41.1252 72.9811 40.4941 73.3495 39.5287 73.0493C39.0044 72.9054 38.5552 72.5661 38.2734 72.101L38.5702 71.8418C38.8029 72.2487 39.1865 72.5477 39.6379 72.6741C40.3201 72.8856 40.767 72.6741 40.9171 72.1897C41.0672 71.7053 40.8557 71.2687 39.8528 70.9549L39.0137 70.6956L39.8323 68.7786L41.9916 69.4608L41.879 69.8224L40.0745 69.2595L39.5492 70.4773L40.0575 70.6342C41.2445 70.989 41.5515 71.603 41.3332 72.2989Z" fill="white"/>
<path d="M45.2348 73.496C45.0062 74.2362 44.2796 74.5194 43.5292 74.2908C42.482 73.9497 42.1374 73.0594 42.5263 71.8143C42.9425 70.4737 43.8908 69.9996 44.9653 70.3339C45.2942 70.4214 45.5934 70.5958 45.8317 70.8387L45.5691 71.115C45.3777 70.9093 45.1315 70.7625 44.8595 70.692C44.0102 70.426 43.2904 70.8046 42.9595 71.8757C42.9253 71.9821 42.8968 72.0903 42.8743 72.1998C43.0559 72.017 43.2869 71.8913 43.539 71.838C43.7911 71.7847 44.0532 71.8061 44.2933 71.8996C45.0574 72.1452 45.4463 72.7763 45.2348 73.496ZM44.8322 73.3766C44.9926 72.8581 44.7129 72.4079 44.1057 72.2168C43.4985 72.0258 42.9766 72.2748 42.8231 72.7626C42.6866 73.1992 42.922 73.7211 43.6008 73.9326C43.7174 73.9847 43.8436 74.0114 43.9713 74.0112C44.0989 74.0109 44.225 73.9836 44.3414 73.9311C44.4577 73.8786 44.5616 73.802 44.6462 73.7064C44.7308 73.6109 44.7942 73.4985 44.8322 73.3766Z" fill="white"/>
<path d="M50.6189 75.222C50.4108 75.8803 49.7763 76.2453 48.8246 75.9417C48.2985 75.7978 47.8471 75.4587 47.5625 74.9934L47.8593 74.7342C48.0948 75.145 48.4837 75.4455 48.9406 75.5699C49.5921 75.7746 50.0492 75.5699 50.1993 75.0923C50.3494 74.6148 50.1106 74.2054 49.3806 73.9769L49.0975 73.8882L49.1896 73.5914L50.711 72.5681L48.6916 71.9404L48.8042 71.5789L51.342 72.3702L51.2499 72.6568L49.6979 73.7142C50.5302 74.0144 50.8133 74.5909 50.6189 75.222Z" fill="white"/>
<path d="M54.5878 76.4092C54.3592 77.146 53.6326 77.4326 52.8651 77.2006C51.8179 76.8595 51.4734 75.9692 51.8623 74.7241C52.2784 73.3835 53.2267 72.9128 54.3012 73.2471C54.6303 73.3341 54.9297 73.5086 55.1677 73.7519L54.905 74.0282C54.714 73.8214 54.4678 73.6735 54.1955 73.6019C53.3427 73.3392 52.6263 73.7144 52.2955 74.7855C52.2608 74.8976 52.2323 75.0115 52.2102 75.1266C52.3909 74.9436 52.6212 74.8174 52.8727 74.7635C53.1242 74.7095 53.3859 74.7302 53.6258 74.823C54.4104 75.055 54.8129 75.6861 54.5878 76.4092ZM54.1852 76.2932C54.3456 75.7782 54.0659 75.3245 53.4587 75.1369C52.8515 74.9493 52.3296 75.1915 52.1761 75.6827C52.0396 76.1159 52.2716 76.6378 52.9538 76.8527C53.0706 76.9047 53.1971 76.9313 53.3249 76.9308C53.4527 76.9303 53.5789 76.9027 53.6953 76.8499C53.8117 76.797 53.9155 76.72 54 76.6241C54.0844 76.5281 54.1476 76.4154 54.1852 76.2932Z" fill="white"/>
<path d="M59.0905 74.7721L58.9984 75.0587L56.2115 78.2037L55.7715 78.0639L58.5004 74.9939L56.4742 74.3628L56.2422 75.0996L55.8431 74.9734L56.1842 73.875L59.0905 74.7721Z" fill="white"/>
<path d="M64.7194 76.5256L64.6307 76.8155L61.8404 79.9572L61.4004 79.8207L64.1293 76.7507L62.0826 76.1196L61.8541 76.8599L61.4516 76.7336L61.7927 75.6353L64.7194 76.5256Z" fill="white"/>
<path d="M67.7152 80.581C67.4969 81.2803 66.7703 81.5293 65.8288 81.2359C64.8873 80.9426 64.4439 80.3286 64.6622 79.6293C64.728 79.4039 64.8694 79.208 65.0626 79.0744C65.2557 78.9409 65.4889 78.8778 65.7231 78.8959C65.559 78.7798 65.437 78.6137 65.3755 78.4224C65.314 78.231 65.3163 78.0249 65.382 77.835C65.5798 77.1937 66.2518 76.9652 67.0875 77.2244C67.9233 77.4837 68.3531 78.0567 68.1552 78.698C68.1 78.895 67.9816 79.0684 67.8183 79.1916C67.655 79.3149 67.4558 79.3811 67.2513 79.3803C67.4544 79.4971 67.6112 79.68 67.6956 79.8985C67.7801 80.1171 67.787 80.358 67.7152 80.581ZM67.3024 80.4445C67.4525 79.9602 67.1285 79.5269 66.4292 79.3086C65.7299 79.0903 65.225 79.2677 65.0647 79.7521C64.9044 80.2365 65.2285 80.6765 65.9277 80.8914C66.627 81.1063 67.1489 80.9357 67.3024 80.4445ZM66.5315 78.988C67.1455 79.179 67.5958 79.0153 67.7288 78.5889C67.8619 78.1625 67.5651 77.7531 66.9715 77.5655C66.378 77.3779 65.9141 77.5314 65.7776 77.9715C65.6412 78.4115 65.9141 78.797 66.5315 78.988Z" fill="white"/>
<path d="M71.8269 80.8819C71.4107 82.2225 70.4624 82.6932 69.3879 82.3589C69.0585 82.2727 68.7589 82.0982 68.5215 81.8541L68.7841 81.5778C68.974 81.7854 69.2208 81.9325 69.4937 82.0008C70.343 82.2669 71.0628 81.8916 71.3937 80.8205C71.4244 80.7284 71.4517 80.6159 71.479 80.4794C71.2973 80.6621 71.0663 80.7879 70.8142 80.8412C70.5621 80.8945 70.3 80.8731 70.0599 80.7796C69.2788 80.5374 68.8762 79.9029 69.1014 79.1832C69.3265 78.4634 70.0565 78.1598 70.807 78.3918C71.8712 78.7159 72.2158 79.6198 71.8269 80.8819ZM71.5131 79.9234C71.6495 79.4902 71.4141 78.9649 70.7353 78.7534C70.6187 78.7019 70.4925 78.6756 70.3651 78.6761C70.2376 78.6766 70.1117 78.704 69.9955 78.7565C69.8793 78.8089 69.7755 78.8853 69.6908 78.9806C69.6061 79.0758 69.5424 79.1879 69.5039 79.3094C69.3402 79.8279 69.6199 80.2816 70.2305 80.4692C70.8411 80.6568 71.3698 80.401 71.5131 79.9097V79.9234Z" fill="white"/>
<path d="M76.4328 80.172L75.2048 84.1187L74.7988 83.9925L75.9143 80.4074L74.983 80.1174L75.0956 79.7559L76.4328 80.172Z" fill="white"/>
<path d="M79.3741 85.0193L79.2615 85.3809L76.4883 84.5178L76.577 84.2313L78.7158 83.1363C79.2991 82.8361 79.4662 82.5974 79.5515 82.3245C79.6914 81.8708 79.4594 81.4888 78.8693 81.3011C78.6721 81.2262 78.4606 81.1965 78.2504 81.2142C78.0403 81.2319 77.8367 81.2966 77.6549 81.4035L77.4468 81.0624C77.6836 80.9271 77.9472 80.8456 78.219 80.8238C78.4908 80.802 78.7641 80.8404 79.0194 80.9361C79.8176 81.1852 80.1996 81.748 79.9949 82.4063C79.8755 82.785 79.6538 83.0886 78.9716 83.4297L77.2217 84.3302L79.3741 85.0193Z" fill="white"/>
<path d="M83.1521 85.3496C82.9474 86.008 82.3095 86.373 81.3544 86.0694C80.8304 85.9232 80.3808 85.5845 80.0957 85.1211L80.3925 84.8619C80.6294 85.27 81.0161 85.5698 81.4704 85.6976C82.1253 85.9022 82.5824 85.6976 82.7325 85.22C82.8826 84.7425 82.6438 84.3331 81.9138 84.1046L81.6307 84.0159L81.7228 83.7191L83.2442 82.6958L81.2248 82.0681L81.3374 81.7065L83.8753 82.4945L83.7866 82.7845L82.2311 83.8385C83.0634 84.1421 83.3465 84.7186 83.1521 85.3496Z" fill="white"/>
<path d="M51.5997 79.9763L51.0664 81.6895L82.6626 91.5245L83.1959 89.8113L51.5997 79.9763Z" fill="white"/>
<path d="M65.9258 88.1901L65.3926 89.9033L81.5994 94.9481L82.1327 93.2349L65.9258 88.1901Z" fill="white"/>
<g opacity="0.5">
<path opacity="0.5" d="M37.8782 53.5753L27.8499 50.4538C26.9576 50.1761 26.0092 50.6742 25.7315 51.5664L23.6542 58.24C23.3765 59.1322 23.8746 60.0806 24.7668 60.3583L34.7951 63.4799C35.6873 63.7576 36.6358 63.2595 36.9135 62.3673L38.9908 55.6937C39.2685 54.8015 38.7704 53.8531 37.8782 53.5753Z" fill="#EBEBEB"/>
</g>
<path d="M24 57.1124L24.1978 56.4779L31.0201 58.603C31.2094 58.6674 31.4097 58.6932 31.6091 58.679C31.8085 58.6647 32.003 58.6107 32.1812 58.5201C32.3594 58.4295 32.5177 58.3041 32.6467 58.1513C32.7756 57.9985 32.8727 57.8215 32.9321 57.6306C32.9916 57.4397 33.0122 57.2389 32.9928 57.0399C32.9734 56.8409 32.9143 56.6478 32.8191 56.472C32.7239 56.2963 32.5944 56.1413 32.4384 56.0164C32.2823 55.8914 32.1028 55.799 31.9104 55.7445L25.0882 53.6193L25.286 52.9849L32.1083 55.11C32.3875 55.1874 32.6483 55.3202 32.8752 55.5004C33.1021 55.6805 33.2905 55.9045 33.4292 56.1589C33.5678 56.4133 33.654 56.6929 33.6825 56.9813C33.711 57.2696 33.6813 57.5607 33.5951 57.8373C33.5089 58.114 33.368 58.3704 33.1808 58.5916C32.9935 58.8127 32.7638 58.9939 32.5052 59.1245C32.2465 59.2551 31.9643 59.3324 31.6752 59.3518C31.3861 59.3712 31.0961 59.3324 30.8223 59.2375L24 57.1124Z" fill="#E0E0E0"/>
<path d="M33.1039 57.8083L32.9043 58.4402L37.5675 59.9128L37.7671 59.2809L33.1039 57.8083Z" fill="#E0E0E0"/>
<path d="M64.4335 52.9001L30.3359 42.2864L29.4255 45.2112L63.5231 55.8248L64.4335 52.9001Z" fill="white"/>
<path d="M40.9181 118.913C41.1802 120.686 40.9105 122.496 40.1431 124.116C39.3756 125.735 38.145 127.091 36.6069 128.01C35.0689 128.93 33.2925 129.373 31.5027 129.282C29.7129 129.192 27.9902 128.573 26.5525 127.503C25.1147 126.433 24.0267 124.961 23.4261 123.273C22.8255 121.584 22.7393 119.756 23.1785 118.018C23.6176 116.281 24.5623 114.713 25.893 113.512C27.2237 112.312 28.8806 111.534 30.654 111.275C31.8295 111.103 33.0274 111.164 34.1794 111.454C35.3313 111.744 36.4148 112.259 37.368 112.968C38.3211 113.677 39.1252 114.567 39.7343 115.587C40.3435 116.607 40.7457 117.737 40.9181 118.913Z" fill="#E88F00"/>
<path d="M38.7888 119.223C38.9886 120.575 38.7829 121.955 38.1977 123.19C37.6126 124.424 36.6742 125.458 35.5015 126.159C34.3288 126.86 32.9745 127.197 31.6099 127.128C30.2454 127.059 28.932 126.587 27.8361 125.771C26.7401 124.955 25.9109 123.832 25.4533 122.545C24.9958 121.258 24.9305 119.863 25.2657 118.539C25.601 117.214 26.3216 116.019 27.3365 115.104C28.3514 114.19 29.6149 113.596 30.967 113.4C32.7762 113.137 34.616 113.602 36.0824 114.694C37.5489 115.785 38.5223 117.414 38.7888 119.223Z" fill="#FF9D00"/>
<path d="M31.3409 124.438L29.4453 121.305V120.567H30.0772C30.4493 120.567 30.7617 120.49 31.0145 120.337C31.2672 120.178 31.4287 119.958 31.4989 119.679H29.4453V118.94H31.4884C31.4252 118.688 31.2953 118.478 31.0987 118.312C30.9021 118.139 30.6283 118.052 30.2773 118.052H29.4453V117.314H34.1949V118.052H32.5415C32.7872 118.305 32.9416 118.601 33.0048 118.94H34.1949V119.679H33.0259C32.9557 120.171 32.7556 120.557 32.4256 120.836C32.0956 121.109 31.6709 121.295 31.1514 121.395L33.2155 124.438H31.3409Z" fill="#9C640A"/>
<path d="M38.7543 119.008C38.6268 118.754 38.5262 118.488 38.4541 118.213C38.1939 117.501 37.8257 116.834 37.3626 116.234C36.4807 115.088 35.2575 114.252 33.8695 113.847C33.5506 113.751 33.2243 113.681 32.894 113.638C32.5548 113.593 32.2128 113.572 31.8706 113.577C31.5151 113.588 31.1607 113.622 30.8097 113.679C30.4629 113.746 30.121 113.836 29.7864 113.949C29.4602 114.062 29.1432 114.2 28.8381 114.362C28.2602 114.668 27.7295 115.057 27.2622 115.515C26.838 115.93 26.4699 116.399 26.1672 116.91C25.9035 117.357 25.6896 117.832 25.5293 118.325C25.3019 119.047 25.1869 119.8 25.1882 120.556C25.2206 120.84 25.2206 121.126 25.1882 121.409C25.0656 121.146 24.9983 120.86 24.9903 120.57C24.9102 119.781 24.975 118.985 25.1814 118.22C25.3271 117.689 25.5331 117.176 25.7954 116.691C26.1028 116.136 26.4838 115.624 26.9279 115.17C27.1664 114.923 27.4242 114.695 27.6988 114.488C27.9846 114.27 28.2868 114.075 28.6027 113.905C28.9317 113.728 29.2738 113.578 29.6261 113.454C29.9892 113.33 30.3608 113.232 30.7381 113.161C31.1169 113.096 31.5 113.06 31.8843 113.052C32.2563 113.047 32.6282 113.072 32.9963 113.127C33.3523 113.177 33.7037 113.255 34.0469 113.362C34.3754 113.463 34.6958 113.588 35.0055 113.737C36.0808 114.248 37.0065 115.027 37.6934 115.999C38.1518 116.645 38.4872 117.37 38.6827 118.138C38.7695 118.419 38.7939 118.716 38.7543 119.008Z" fill="#E0E0E0"/>
<path d="M156.002 122.685C155.34 123.627 154.054 123.316 153.46 122.74C152.867 122.163 152.611 121.327 152.382 120.529C151.857 118.711 151.332 116.801 151.721 114.945C151.815 114.384 152.062 113.859 152.434 113.427C152.623 113.215 152.864 113.057 153.133 112.967C153.402 112.877 153.69 112.86 153.969 112.916C154.617 113.086 155.019 113.724 155.309 114.328C156.167 116.11 156.617 118.06 156.626 120.038C156.626 120.959 156.52 121.924 156.002 122.685Z" fill="#CFD8DC"/>
<g opacity="0.2">
<path opacity="0.2" d="M156.002 122.685C155.34 123.627 154.054 123.316 153.46 122.74C152.867 122.163 152.611 121.327 152.382 120.529C151.857 118.711 151.332 116.801 151.721 114.945C151.815 114.384 152.062 113.859 152.434 113.427C152.623 113.215 152.864 113.057 153.133 112.967C153.402 112.877 153.69 112.86 153.969 112.916C154.617 113.086 155.019 113.724 155.309 114.328C156.167 116.11 156.617 118.06 156.626 120.038C156.626 120.959 156.52 121.924 156.002 122.685Z" fill="black"/>
</g>
<path d="M153.525 127.467C152.416 126.946 151.169 126.794 149.967 127.034C149.311 127.091 148.694 127.367 148.214 127.818C147.774 128.303 147.692 129.155 148.193 129.571C148.519 129.791 148.911 129.89 149.302 129.851C150.24 129.851 151.284 129.674 152.031 130.24C152.461 130.564 152.744 131.1 153.259 131.263C153.515 131.322 153.783 131.295 154.023 131.188C154.263 131.081 154.462 130.899 154.589 130.67C154.836 130.199 154.89 129.651 154.739 129.142C154.68 128.788 154.54 128.452 154.329 128.162C154.118 127.871 153.843 127.633 153.525 127.467Z" fill="#CFD8DC"/>
<path d="M157.814 124.039C157.475 123.595 157.25 123.075 157.157 122.524C157.064 121.973 157.107 121.407 157.282 120.877C157.642 119.812 158.291 118.867 159.155 118.148C160.133 117.277 161.272 116.605 162.508 116.169C162.986 115.977 163.501 115.89 164.016 115.914C164.273 115.928 164.523 116.006 164.743 116.139C164.964 116.272 165.148 116.457 165.281 116.678C165.622 117.36 165.298 118.168 164.94 118.834C164.296 120.009 163.559 121.132 162.737 122.19C162.078 123.039 161.321 123.896 160.315 124.264C159.308 124.632 158.268 124.605 157.729 123.923" fill="#CFD8DC"/>
<path d="M156.047 136.931C156.015 136.789 155.996 136.646 155.989 136.501C155.959 136.19 155.921 135.798 155.873 135.331C155.815 134.758 155.727 134.189 155.611 133.625C155.456 132.935 155.247 132.257 154.986 131.599C154.734 130.942 154.39 130.324 153.963 129.764C153.381 128.987 152.515 128.472 151.555 128.331C151.41 128.327 151.265 128.307 151.125 128.27C151.27 128.256 151.416 128.256 151.562 128.27C151.96 128.301 152.349 128.403 152.711 128.57C153.244 128.827 153.711 129.203 154.076 129.668C154.522 130.236 154.883 130.866 155.147 131.538C155.414 132.206 155.622 132.897 155.768 133.601C155.878 134.176 155.954 134.757 155.996 135.341C156.034 135.836 156.047 136.238 156.054 136.518C156.068 136.655 156.066 136.794 156.047 136.931Z" fill="#263238"/>
<path d="M155.966 136.03C155.958 135.964 155.958 135.897 155.966 135.832C155.966 135.682 155.966 135.491 155.966 135.262C155.966 134.768 155.966 134.051 155.939 133.168C155.895 131.401 155.745 128.965 155.451 126.284C155.158 123.603 154.769 121.191 154.404 119.462C154.319 119.028 154.233 118.64 154.155 118.295C154.077 117.951 154.012 117.657 153.95 117.418C153.889 117.18 153.851 117.012 153.817 116.866C153.798 116.802 153.786 116.735 153.783 116.668C153.812 116.728 153.835 116.791 153.851 116.856L154.019 117.401C154.09 117.64 154.165 117.934 154.251 118.275C154.336 118.616 154.435 119.001 154.527 119.434C155.013 121.687 155.38 123.965 155.625 126.257C155.922 128.945 156.052 131.373 156.065 133.157C156.065 134.044 156.065 134.761 156.035 135.255C156.035 135.487 156.007 135.675 156 135.825C155.995 135.894 155.984 135.963 155.966 136.03Z" fill="#263238"/>
<path d="M155.954 131.312C155.94 131.115 155.94 130.917 155.954 130.719C155.978 130.337 156.029 129.784 156.138 129.109C156.268 128.316 156.442 127.532 156.66 126.759C156.922 125.811 157.25 124.883 157.642 123.982C158.323 122.321 159.301 120.799 160.528 119.489C160.742 119.265 160.97 119.054 161.211 118.858C161.316 118.773 161.408 118.684 161.5 118.616L161.767 118.432C161.924 118.313 162.091 118.205 162.265 118.111C161.689 118.567 161.141 119.057 160.624 119.578C159.44 120.899 158.49 122.411 157.813 124.05C157.423 124.945 157.093 125.865 156.824 126.803C156.568 127.666 156.397 128.461 156.268 129.129C156.138 129.798 156.073 130.347 156.029 130.726C156.021 130.923 155.995 131.119 155.954 131.312Z" fill="#263238"/>
<path d="M102.071 104.254L49.2729 48.4068C49.0063 48.1237 48.8628 47.7465 48.8736 47.3578C48.8845 46.9691 49.0489 46.6005 49.3309 46.3328L83.9915 13.5721C84.1315 13.4397 84.2962 13.3362 84.4762 13.2674C84.6561 13.1987 84.8479 13.1661 85.0405 13.1715C85.2331 13.1769 85.4228 13.2201 85.5986 13.2988C85.7745 13.3775 85.9331 13.4901 86.0655 13.6301L138.86 69.4808C139.126 69.7639 139.27 70.1411 139.259 70.5298C139.248 70.9185 139.084 71.287 138.802 71.5548L104.148 104.302C104.009 104.436 103.845 104.541 103.665 104.611C103.485 104.681 103.292 104.715 103.099 104.711C102.906 104.706 102.716 104.664 102.539 104.585C102.363 104.507 102.203 104.394 102.071 104.254Z" fill="#018536"/>
<g opacity="0.3">
<path opacity="0.3" d="M102.071 104.254L49.2729 48.4068C49.0063 48.1237 48.8628 47.7465 48.8736 47.3578C48.8845 46.9691 49.0489 46.6005 49.3309 46.3328L83.9915 13.5721C84.1315 13.4397 84.2962 13.3362 84.4762 13.2674C84.6561 13.1987 84.8479 13.1661 85.0405 13.1715C85.2331 13.1769 85.4228 13.2201 85.5986 13.2988C85.7745 13.3775 85.9331 13.4901 86.0655 13.6301L138.86 69.4808C139.126 69.7639 139.27 70.1411 139.259 70.5298C139.248 70.9185 139.084 71.287 138.802 71.5548L104.148 104.302C104.009 104.436 103.845 104.541 103.665 104.611C103.485 104.681 103.292 104.715 103.099 104.711C102.906 104.706 102.716 104.664 102.539 104.585C102.363 104.507 102.203 104.394 102.071 104.254Z" fill="#02C550"/>
</g>
<path d="M138.471 69.0713L86.4445 14.0393C86.2617 13.8452 86.0424 13.6891 85.7992 13.5799C85.556 13.4707 85.2936 13.4105 85.0271 13.4029C84.7606 13.3953 84.4952 13.4404 84.2461 13.5355C83.9971 13.6307 83.7692 13.7741 83.5757 13.9574L73.7311 23.2664C73.6338 23.3574 73.5604 23.471 73.5176 23.5972C73.4747 23.7234 73.4637 23.8582 73.4855 23.9896C74.4714 29.4952 78.4078 34.4175 83.1016 37.6785C88.7709 41.6184 95.4908 43.6958 101.863 46.3258C108.235 48.9558 114.658 52.4215 118.489 58.1693C122.101 63.5964 122.954 70.3266 124.793 76.5895C125.293 78.291 125.917 79.9533 126.662 81.5629C126.716 81.6798 126.797 81.7822 126.899 81.8616C127 81.9411 127.119 81.9954 127.246 82.02C127.372 82.0446 127.503 82.0389 127.626 82.0033C127.75 81.9678 127.864 81.9033 127.958 81.8153L138.393 71.9503C138.588 71.7672 138.745 71.5471 138.855 71.3028C138.965 71.0585 139.025 70.7949 139.033 70.5272C139.04 70.2595 138.994 69.9929 138.898 69.743C138.801 69.4931 138.656 69.2648 138.471 69.0713Z" fill="#02C550"/>
<path d="M85.6784 30.0552C85.2076 30.5021 84.58 30.3963 83.9046 29.6698L82.5742 28.261L85.3031 25.689L86.5584 27.0193C87.2031 27.7015 87.2407 28.319 86.8279 28.7249C86.7067 28.845 86.5537 28.9281 86.387 28.9643C86.2202 29.0006 86.0466 28.9885 85.8864 28.9296C85.9826 29.1134 86.0144 29.3242 85.9767 29.5283C85.939 29.7324 85.8339 29.9179 85.6784 30.0552ZM85.4123 26.7635L84.771 27.3707L85.3577 28.0085C85.6477 28.3155 85.9137 28.3804 86.1286 28.1791C86.3435 27.9778 86.289 27.7118 85.999 27.4048L85.4123 26.7635ZM85.1428 29.3594C85.3714 29.1445 85.3168 28.8647 85.0064 28.5373L84.3241 27.8039L83.6419 28.4383L84.3241 29.1752C84.6448 29.5026 84.9109 29.5811 85.1428 29.373V29.3594Z" fill="white"/>
<path d="M87.6632 32.477L86.4659 31.2114L85.6541 31.5219L85.0469 30.8772L88.9151 29.5127L89.5018 30.1369L87.9327 33.9267L87.3051 33.265L87.6632 32.477ZM87.9532 31.8255L88.5876 30.4098L87.1379 30.9624L87.9532 31.8255Z" fill="white"/>
<path d="M93.2784 34.1493L90.5495 36.7213L90.0685 36.196L90.4403 33.2794L88.7859 34.8315L88.1992 34.2073L90.9281 31.6353L91.4228 32.1572L91.0475 35.0703L92.7019 33.508L93.2784 34.1493Z" fill="white"/>
<path d="M93.1722 37.3316H92.4457L91.7634 37.9831L91.1562 37.352L93.8852 34.7766L94.4753 35.4043L93.2029 36.605H95.6146L96.2764 37.2872L93.9977 37.3077L93.6225 39.9479L92.9403 39.2145L93.1722 37.3316Z" fill="white"/>
<path d="M73.8753 40.248L73.4182 39.7466L72.736 40.3674L72.4938 40.1116L73.1521 39.4907L71.8184 38.0819L72.0026 37.9045L74.9123 37.6624L75.1818 37.9489L72.3607 38.1979L73.3841 39.2826L73.9606 38.7335L74.1959 38.9859L73.6194 39.5317L74.0902 40.0297L73.8753 40.248Z" fill="white"/>
<path d="M75.672 42.0254C75.2524 42.4177 74.6487 42.4211 74.0756 41.8174C73.753 41.4976 73.564 41.0671 73.5469 40.6132L73.8675 40.545C73.8719 40.9388 74.0312 41.3151 74.311 41.5922C74.7032 42.0084 75.1092 42.0527 75.4196 41.7594C75.73 41.466 75.7164 41.0772 75.2797 40.6166L75.1092 40.4393L75.3002 40.2585L76.8216 40.1323L75.614 38.8531L75.8426 38.6382L77.3605 40.2448L77.1797 40.4154L75.6208 40.5484C76.0984 41.1113 76.0711 41.6536 75.672 42.0254Z" fill="white"/>
<path d="M77.5997 44.0405C77.1733 44.443 76.5764 44.4601 75.9863 43.8495C75.6634 43.5316 75.4753 43.1016 75.4609 42.6488L75.7816 42.5805C75.7885 42.9654 75.9452 43.3325 76.2182 43.6039C76.6173 44.0303 77.0369 44.061 77.3405 43.771C77.6441 43.4811 77.6816 43.0888 77.0744 42.4441L76.5696 41.912L77.934 40.8579L79.2268 42.2224L78.9983 42.4373L77.9306 41.3116L77.0505 41.9768L77.3541 42.3179C78.0671 43.041 78.0398 43.6073 77.5997 44.0405Z" fill="white"/>
<path d="M79.6909 46.2168C79.5824 46.3181 79.4539 46.3957 79.3137 46.4445C79.1736 46.4934 79.0247 46.5125 78.8767 46.5007C78.7288 46.4888 78.5849 46.4462 78.4543 46.3756C78.3237 46.3049 78.2093 46.2079 78.1183 46.0905C77.4907 45.4254 77.6101 44.6306 78.398 43.8835C79.2474 43.0819 80.1275 43.1263 80.7688 43.8051C80.9744 44.0026 81.1218 44.2527 81.1952 44.5282L80.8882 44.6203C80.837 44.3916 80.7181 44.1836 80.5471 44.0234C80.0388 43.4844 79.3668 43.464 78.688 44.1053C78.63 44.1598 78.5618 44.2315 78.4935 44.3099C78.6992 44.2503 78.9178 44.2525 79.1222 44.3162C79.3266 44.3799 79.5077 44.5022 79.6431 44.6681C80.1138 45.1627 80.148 45.787 79.6909 46.2168ZM79.4453 45.9712C79.7864 45.6607 79.7557 45.2207 79.3907 44.8352C79.3254 44.7483 79.243 44.6757 79.1486 44.6219C79.0541 44.568 78.9496 44.5342 78.8415 44.5223C78.7335 44.5105 78.6241 44.521 78.5203 44.5531C78.4164 44.5852 78.3202 44.6383 78.2377 44.709C77.9614 44.9683 77.9171 45.4424 78.3264 45.8722C78.3895 45.9576 78.4701 46.0285 78.5627 46.0805C78.6553 46.1324 78.7578 46.164 78.8636 46.1734C78.9693 46.1827 79.0759 46.1696 79.1761 46.1347C79.2764 46.0998 79.3681 46.0441 79.4453 45.9712Z" fill="white"/>
<path d="M84.0509 52.3229L84.2726 50.9857L82.9082 51.129L82.6387 50.8425L84.3067 50.6719L84.5489 49.1028L84.8218 49.3893L84.6171 50.648L85.8861 50.515L86.1487 50.7947L84.5694 50.9516L84.3135 52.6129L84.0509 52.3229Z" fill="white"/>
<path d="M85.8512 54.2296L86.0729 52.8891L84.7084 53.0323L84.4355 52.7458L86.1036 52.5787L86.3492 51.0095L86.6187 51.2926L86.4174 52.5514L87.683 52.4217L87.949 52.7015L86.3663 52.8584L86.1104 54.5196L85.8512 54.2296Z" fill="white"/>
<path d="M87.6525 56.1335L87.8742 54.7963L86.5097 54.9396L86.2402 54.653L87.9049 54.4859L88.1505 52.9133L88.42 53.1999L88.2187 54.4586L89.4876 54.329L89.7503 54.6053L88.1675 54.7622L87.9117 56.4234L87.6525 56.1335Z" fill="white"/>
<path d="M89.4493 58.026L89.6711 56.6889L88.3066 56.8321L88.0371 56.5456L89.7017 56.375L89.9474 54.8059L90.2168 55.0924L90.0156 56.3512L91.2845 56.2181L91.5472 56.4978L89.9644 56.6547L89.712 58.316L89.4493 58.026Z" fill="white"/>
<path d="M95.6759 64.62L95.8976 63.2829L94.5332 63.4261L94.2637 63.1396L95.9283 62.9724L96.1739 61.3999L96.4434 61.6864L96.2421 62.9452L97.5111 62.8121L97.7737 63.0918L96.191 63.2487L95.9351 64.91L95.6759 64.62Z" fill="white"/>
<path d="M97.4767 66.5268L97.6984 65.1862L96.3339 65.3295L96.0645 65.0463L97.7291 64.8758L97.9747 63.3066L98.2442 63.5932L98.0429 64.8519L99.3119 64.7189L99.5745 64.9986L97.9917 65.1555L97.7359 66.8167L97.4767 66.5268Z" fill="white"/>
<path d="M99.2779 68.4337L99.5031 67.0932L98.1386 67.2364L97.8691 66.9499L99.5338 66.7827L99.7794 65.2136L100.049 65.4967L99.8476 66.7555L101.117 66.6258L101.379 66.9021L99.7964 67.059L99.544 68.7203L99.2779 68.4337Z" fill="white"/>
<path d="M101.082 70.3376L101.304 69.0004L99.9394 69.1437L99.6699 68.8571L101.335 68.69L101.58 67.1174L101.853 67.404L101.648 68.6627L102.917 68.5296L103.18 68.8094L101.597 68.9663L101.345 70.6275L101.082 70.3376Z" fill="white"/>
<path d="M109.168 73.885L106.671 76.249L106.426 75.9897L108.698 73.8441L108.142 73.2574L108.37 73.0391L109.168 73.885Z" fill="white"/>
<path d="M109.51 77.8104C109.094 78.2061 108.487 78.2061 107.913 77.6023C107.591 77.2825 107.402 76.852 107.385 76.3981L107.705 76.3299C107.712 76.7243 107.871 77.1009 108.149 77.3806C108.541 77.7933 108.95 77.8411 109.261 77.5477C109.571 77.2543 109.558 76.8655 109.118 76.4016L108.95 76.2242L109.138 76.0468L110.659 75.9172L109.452 74.6414L109.68 74.4231L111.198 76.0297L111.018 76.2037L109.462 76.3367C109.94 76.9064 109.916 77.4385 109.51 77.8104Z" fill="white"/>
<path d="M111.8 80.3596L111.326 79.8581L110.671 80.479L110.425 80.2231L111.084 79.6023L109.75 78.1935L109.938 78.0161L112.844 77.7773L113.113 78.0605L110.292 78.3095L111.316 79.3942L111.892 78.8484L112.131 79.0975L111.551 79.6432L112.025 80.1447L111.8 80.3596Z" fill="white"/>
<path d="M113.191 82.6925L112.962 82.9074L111.305 81.1541L111.489 80.9835L113.488 81.0585C114.034 81.079 114.252 80.9733 114.422 80.8129C114.712 80.5366 114.699 80.1648 114.337 79.7896C114.224 79.6552 114.083 79.5479 113.923 79.4759C113.762 79.4038 113.588 79.3688 113.413 79.3734V79.0323C113.64 79.0298 113.864 79.0775 114.071 79.1718C114.277 79.2661 114.46 79.4049 114.607 79.5781C115.084 80.0864 115.132 80.6492 114.712 81.0449C114.474 81.27 114.191 81.386 113.546 81.386L111.905 81.328L113.191 82.6925Z" fill="white"/>
<path d="M64.7697 42.335C64.9056 42.2219 65.0716 42.1511 65.2474 42.1314C65.4231 42.1117 65.6007 42.1439 65.7583 42.2242C65.9159 42.3044 66.0464 42.4291 66.1339 42.5828C66.2213 42.7365 66.2617 42.9124 66.2501 43.0889L65.909 43.0684C65.919 42.9901 65.9113 42.9105 65.8865 42.8356C65.8617 42.7606 65.8205 42.6921 65.7657 42.6352C65.7183 42.585 65.6614 42.5447 65.5983 42.5165C65.5352 42.4883 65.4672 42.4729 65.3982 42.471C65.2587 42.4671 65.1234 42.5188 65.0221 42.6147C64.9208 42.7106 64.8617 42.8429 64.8579 42.9823C64.854 43.1218 64.9057 43.257 65.0016 43.3584C65.0555 43.4164 65.1219 43.4613 65.1958 43.4897C65.2698 43.5181 65.3492 43.5292 65.428 43.5221V43.8632C65.2996 43.8689 65.1715 43.8455 65.0533 43.7947C64.9352 43.7439 64.83 43.667 64.7458 43.5699C64.6624 43.4894 64.5965 43.3925 64.5522 43.2854C64.5079 43.1783 64.4862 43.0631 64.4884 42.9472C64.4907 42.8313 64.5168 42.7171 64.5652 42.6118C64.6136 42.5065 64.6832 42.4122 64.7697 42.335Z" fill="white"/>
<path d="M66.404 44.7228L65.8787 44.1701L65.5376 44.3066L65.2715 44.0235L66.9771 43.4265L67.2329 43.6994L66.5507 45.3606L66.2539 45.0639L66.404 44.7228ZM66.5302 44.4396L66.8065 43.8188L66.172 44.061L66.5302 44.4396Z" fill="white"/>
<path d="M67.3604 46.2511L67.4729 45.7054L67.2444 45.4666L66.9033 45.7804L66.6406 45.5041L67.8345 44.3784L68.3223 44.8935C68.6225 45.2107 68.6464 45.5757 68.3769 45.8179C68.3002 45.8979 68.2004 45.9519 68.0914 45.9721C67.9825 45.9923 67.87 45.9777 67.7697 45.9305L67.6401 46.5581L67.3604 46.2511ZM68.0835 45.0777L67.8686 44.8526L67.4525 45.2448L67.6674 45.47C67.8243 45.6371 67.9846 45.6474 68.1142 45.528C68.2439 45.4086 68.2404 45.2448 68.0835 45.0641V45.0777Z" fill="white"/>
<path d="M67.8555 46.5373L68.1522 46.4349C68.1809 46.627 68.2678 46.8056 68.4013 46.9466C68.5548 47.1104 68.6707 47.124 68.7424 47.0558C68.9641 46.8443 68.1556 46.2985 68.5991 45.8789C68.8038 45.6879 69.1244 45.6913 69.4451 46.029C69.5863 46.171 69.6855 46.3492 69.7316 46.5441L69.4416 46.6567C69.4062 46.5004 69.331 46.3558 69.2233 46.2371C69.0664 46.0734 68.947 46.0699 68.8822 46.1382C68.6639 46.3463 69.4689 46.8989 69.0323 47.3116C68.8311 47.4992 68.507 47.4958 68.1829 47.1547C68.0145 46.9863 67.9004 46.7712 67.8555 46.5373Z" fill="white"/>
<path d="M71.538 48.2815L70.3441 49.4106L70.0849 49.1343L70.5727 48.6704L70.061 48.128L69.5732 48.5919L69.3105 48.3156L70.5044 47.1899L70.7637 47.4628L70.293 47.9097L70.8046 48.4521L71.2754 48.0052L71.538 48.2815Z" fill="white"/>
<path d="M71.1395 49.0549C71.2632 48.9235 71.4235 48.8324 71.5996 48.7932C71.7757 48.754 71.9595 48.7687 72.1272 48.8352C72.2949 48.9017 72.4388 49.0171 72.5401 49.1664C72.6415 49.3156 72.6956 49.4919 72.6956 49.6723C72.6956 49.8527 72.6415 50.0289 72.5401 50.1782C72.4388 50.3274 72.2949 50.4428 72.1272 50.5093C71.9595 50.5759 71.7757 50.5905 71.5996 50.5513C71.4235 50.5122 71.2632 50.421 71.1395 50.2897C71.0559 50.21 70.9894 50.1143 70.9439 50.0081C70.8985 49.902 70.875 49.7877 70.875 49.6723C70.875 49.5568 70.8985 49.4426 70.9439 49.3364C70.9894 49.2303 71.0559 49.1345 71.1395 49.0549ZM72.1083 50.0782C72.1611 50.0337 72.204 49.9787 72.2344 49.9168C72.2648 49.8548 72.282 49.7872 72.2849 49.7183C72.2878 49.6493 72.2763 49.5805 72.2512 49.5162C72.2261 49.4519 72.1879 49.3935 72.139 49.3448C72.0692 49.2671 71.9779 49.212 71.8766 49.1864C71.7754 49.1609 71.6688 49.1661 71.5705 49.2014C71.4722 49.2367 71.3867 49.3005 71.3249 49.3847C71.263 49.4688 71.2277 49.5695 71.2233 49.6738C71.2189 49.7781 71.2457 49.8814 71.3003 49.9704C71.3549 50.0595 71.4348 50.1302 71.5298 50.1736C71.6248 50.217 71.7306 50.2311 71.8336 50.2141C71.9366 50.1971 72.0323 50.1498 72.1083 50.0782Z" fill="white"/>
<path d="M73.1685 50.0076L73.4278 50.2839L72.459 51.2049L73.0252 51.8018L72.8001 52.0133L71.9746 51.1401L73.1685 50.0076Z" fill="white"/>
<path d="M74.1417 51.0366L74.6533 51.579C74.7381 51.6548 74.8062 51.7474 74.8534 51.8509C74.9006 51.9545 74.9257 52.0666 74.9273 52.1804C74.9289 52.2941 74.9068 52.4069 74.8626 52.5117C74.8183 52.6165 74.7528 52.7109 74.6701 52.7891C74.5875 52.8672 74.4895 52.9274 74.3824 52.9657C74.2753 53.0041 74.1614 53.0198 74.0479 53.0118C73.9345 53.0039 73.8239 52.9725 73.7232 52.9196C73.6225 52.8668 73.5338 52.7936 73.4628 52.7047L72.9512 52.1623L74.1417 51.0366ZM73.6743 52.4761C73.7144 52.5395 73.7679 52.5933 73.8311 52.6337C73.8943 52.6741 73.9655 52.7001 74.0399 52.71C74.1142 52.7198 74.1898 52.7131 74.2613 52.6905C74.3328 52.6678 74.3984 52.6297 74.4536 52.5789C74.5087 52.5281 74.552 52.4658 74.5804 52.3964C74.6088 52.327 74.6216 52.2522 74.6179 52.1773C74.6141 52.1024 74.594 52.0292 74.5589 51.963C74.5237 51.8967 74.4745 51.839 74.4146 51.7939L74.1758 51.5415L73.439 52.2271L73.6743 52.4761Z" fill="white"/>
<path d="M75.3762 54.2746L75.1545 54.4861L74.2812 53.5617L75.4752 52.436L76.3245 53.3366L76.1062 53.5447L75.5127 52.9204L75.2534 53.1626L75.7753 53.7186L75.5604 53.9199L75.0385 53.3673L74.7622 53.6265L75.3762 54.2746Z" fill="white"/>
<path d="M76.0811 55.475L76.1936 54.9326L75.9651 54.6939L75.624 55.0077L75.3613 54.7314L76.5552 53.6023L77.043 54.1208C77.3432 54.438 77.3671 54.803 77.0976 55.0452C77.021 55.1252 76.9211 55.1791 76.8121 55.1993C76.7032 55.2195 76.5907 55.205 76.4904 55.1578L76.3608 55.7854L76.0811 55.475ZM76.8042 54.3016L76.5893 54.0764L76.1766 54.4721L76.3881 54.6973C76.5484 54.8644 76.7053 54.8747 76.8349 54.7518C76.9646 54.629 76.9611 54.4721 76.8042 54.3016Z" fill="white"/>
<path d="M59.9994 46.6063L60.6339 46.5654C60.6032 46.6801 60.6008 46.8006 60.6269 46.9165C60.6531 47.0324 60.707 47.1401 60.784 47.2306C60.9852 47.4421 61.2206 47.4352 61.4662 47.1965L62.5578 46.1731L61.7937 45.3647L62.2201 44.9622L63.4856 46.2993L61.9949 47.7047C61.4253 48.2437 60.8795 48.2198 60.3678 47.6808C60.2274 47.5425 60.121 47.3735 60.0571 47.187C59.9931 47.0005 59.9734 46.8017 59.9994 46.6063Z" fill="white"/>
<path d="M61.8202 48.5192C61.9043 48.4396 62.0166 48.3966 62.1324 48.3998C62.2482 48.403 62.358 48.4521 62.4376 48.5362C62.5172 48.6204 62.5601 48.7327 62.5569 48.8485C62.5537 48.9643 62.5047 49.074 62.4205 49.1536C62.3789 49.1931 62.3298 49.2239 62.2763 49.2444C62.2227 49.2648 62.1656 49.2746 62.1083 49.273C62.0509 49.2714 61.9945 49.2585 61.9421 49.2351C61.8898 49.2117 61.8425 49.1782 61.8031 49.1366C61.7637 49.0949 61.7329 49.0459 61.7124 48.9923C61.6919 48.9388 61.6822 48.8817 61.6838 48.8243C61.6853 48.767 61.6982 48.7106 61.7216 48.6582C61.745 48.6058 61.7785 48.5586 61.8202 48.5192Z" fill="white"/>
<path d="M67.9386 50.9929L64.93 52.4119L64.391 51.8423L65.469 49.8672L63.4223 50.8155L62.8867 50.2493L64.4695 47.3225L64.9914 47.8717L63.8657 49.9184L65.9943 48.9326L66.4582 49.4238L65.3257 51.4875L67.4611 50.4846L67.9386 50.9929Z" fill="white"/>
<path d="M68.1537 51.2213C68.194 51.1838 68.2417 51.155 68.2937 51.1369C68.3458 51.1188 68.401 51.1118 68.4559 51.1163C68.5108 51.1208 68.5642 51.1367 68.6126 51.163C68.661 51.1893 68.7034 51.2255 68.737 51.2691C68.7786 51.3039 68.8125 51.347 68.8366 51.3956C68.8607 51.4441 68.8745 51.4972 68.8771 51.5514C68.8796 51.6055 68.8709 51.6597 68.8515 51.7103C68.8321 51.7609 68.8024 51.807 68.7643 51.8456C68.724 51.885 68.6759 51.9156 68.623 51.9352C68.5702 51.9549 68.5138 51.9632 68.4575 51.9597C68.4012 51.9561 68.3463 51.9408 68.2963 51.9147C68.2463 51.8886 68.2024 51.8522 68.1674 51.8081C68.126 51.7716 68.0926 51.727 68.0693 51.6771C68.046 51.6271 68.0333 51.5728 68.032 51.5177C68.0307 51.4626 68.0409 51.4078 68.0618 51.3568C68.0828 51.3058 68.1141 51.2597 68.1537 51.2213ZM67.6796 51.7842L68.164 52.2959L66.397 53.9639L65.916 53.4522L67.6796 51.7842Z" fill="white"/>
<path d="M69.2832 52.1389L69.7676 52.6506L67.332 54.9565L66.8477 54.4448L69.2832 52.1389Z" fill="white"/>
<path d="M70.2148 53.1248L70.6992 53.6364L68.2637 55.939L67.7793 55.4273L70.2148 53.1248Z" fill="white"/>
<path d="M70.9506 54.1794C70.9916 54.1426 71.0397 54.1146 71.0919 54.0971C71.1441 54.0795 71.1993 54.0728 71.2542 54.0773C71.3091 54.0817 71.3625 54.0973 71.4112 54.1231C71.4598 54.1488 71.5028 54.1842 71.5373 54.2271C71.5783 54.2628 71.6116 54.3064 71.6352 54.3554C71.6587 54.4043 71.672 54.4576 71.6743 54.5119C71.6765 54.5662 71.6676 54.6204 71.6482 54.6711C71.6287 54.7219 71.5991 54.7681 71.5612 54.807C71.4758 54.8749 71.3682 54.9086 71.2594 54.9016C71.1505 54.8946 71.0481 54.8475 70.9721 54.7693C70.896 54.6911 70.8517 54.5875 70.8477 54.4785C70.8438 54.3694 70.8804 54.2629 70.9506 54.1794ZM70.4765 54.7456L70.9608 55.2573L69.1973 56.9253L68.7129 56.4137L70.4765 54.7456Z" fill="white"/>
<path d="M72.1274 58.0267L71.1041 58.9784L70.6504 58.5009L70.8721 58.2928C70.7305 58.314 70.5858 58.2966 70.4531 58.2426C70.3205 58.1886 70.2048 58.0999 70.1183 57.9858C69.726 57.5731 69.7226 57.1091 70.0296 56.8226C70.3366 56.5361 70.763 56.5429 71.2712 57.0784L71.6567 57.4878C71.8784 57.2797 71.8818 57.0273 71.6192 56.751C71.4464 56.5711 71.2204 56.4515 70.9745 56.4098L71.1587 55.8914C71.5185 55.9798 71.8439 56.1733 72.0933 56.4474C72.6186 56.9556 72.663 57.5048 72.1274 58.0267ZM71.1962 57.9415L71.377 57.7709L71.0359 57.4298C70.8107 57.1876 70.6504 57.1978 70.531 57.307C70.4116 57.4161 70.4219 57.6174 70.5924 57.7982C70.6666 57.8806 70.7651 57.9373 70.8737 57.96C70.9822 57.9827 71.0952 57.9702 71.1962 57.9244V57.9415Z" fill="white"/>
<path d="M75.3908 61.4379L74.3675 62.3931L73.8865 61.8814L74.8177 61.0013C75.1009 60.7318 75.1111 60.4794 74.9167 60.2747C74.7222 60.0701 74.4016 60.0223 74.0843 60.3191L73.2008 61.1582L72.7165 60.6466L73.6477 59.7665C73.9342 59.4936 73.9479 59.248 73.7466 59.0365C73.5454 58.825 73.235 58.7875 72.9177 59.0877L72.0547 59.9336L71.5703 59.422L73.3339 57.7539L73.7978 58.2417L73.5931 58.4361C73.7361 58.4343 73.8777 58.4639 74.008 58.5228C74.1383 58.5818 74.254 58.6686 74.347 58.7772C74.4605 58.8854 74.544 59.0211 74.5895 59.1712C74.6349 59.3212 74.6407 59.4805 74.6062 59.6335C74.7729 59.6215 74.9401 59.6479 75.095 59.7106C75.2499 59.7733 75.3885 59.8706 75.5 59.995C75.8854 60.4146 75.9263 60.9399 75.3908 61.4379Z" fill="white"/>
<path d="M74.8125 62.5359L75.3412 62.3585C75.4047 62.6491 75.5462 62.9168 75.7506 63.1329C75.9723 63.3682 76.119 63.3989 76.2179 63.3068C76.5044 63.034 75.1945 62.246 75.9075 61.5774C76.2486 61.2636 76.7637 61.342 77.2515 61.8571C77.4783 62.0889 77.6457 62.3721 77.7393 62.6826L77.2139 62.8566C77.1591 62.6183 77.0413 62.3992 76.8728 62.2221C76.6579 61.9936 76.4908 61.9629 76.3987 62.0481C76.0985 62.3347 77.3982 63.1261 76.7023 63.781C76.3612 64.0914 75.8529 64.0095 75.3378 63.4808C75.0819 63.2181 74.9005 62.892 74.8125 62.5359Z" fill="white"/>
<path d="M95.1945 82.2629C95.9518 81.5466 96.7773 81.5603 97.3128 82.1231C97.8484 82.6859 97.8143 83.5148 97.0536 84.2312C96.2929 84.9475 95.4742 84.9373 94.9353 84.371C94.3963 83.8048 94.4372 82.9793 95.1945 82.2629ZM96.559 83.6956C97.0809 83.2044 97.1252 82.8156 96.8728 82.5495C96.6204 82.2834 96.2349 82.3073 95.713 82.8019C95.1911 83.2965 95.1468 83.682 95.3958 83.9446C95.6448 84.2073 96.0268 84.1902 96.5487 83.6956H96.559Z" fill="white"/>
<path d="M98.6609 86.786C98.1936 87.2294 97.5352 87.1271 97.0747 86.6393C96.4778 86.0048 96.5017 85.2339 97.2419 84.5346C98.0367 83.7842 98.9474 83.8524 99.5853 84.5346C99.8044 84.7527 99.96 85.0263 100.036 85.326L99.4591 85.4966C99.4164 85.292 99.3143 85.1046 99.1658 84.9576C99.0882 84.8644 98.9914 84.7891 98.882 84.7368C98.7725 84.6846 98.6531 84.6567 98.5318 84.6551C98.4106 84.6535 98.2904 84.6782 98.1796 84.7275C98.0688 84.7767 97.97 84.8494 97.89 84.9406C98.1765 84.9633 98.4425 85.0981 98.6302 85.3158C98.7307 85.4091 98.8115 85.5217 98.8676 85.6469C98.9238 85.7721 98.9542 85.9072 98.9571 86.0444C98.9599 86.1815 98.9352 86.3179 98.8843 86.4453C98.8334 86.5727 98.7575 86.6885 98.6609 86.786ZM98.1492 86.2948C98.1984 86.2481 98.237 86.1914 98.2626 86.1286C98.2881 86.0658 98.3 85.9982 98.2975 85.9304C98.2949 85.8627 98.2779 85.7962 98.2476 85.7355C98.2174 85.6748 98.1745 85.6213 98.122 85.5784C98.0808 85.5245 98.029 85.4796 97.9698 85.4465C97.9105 85.4135 97.8451 85.3929 97.7776 85.3862C97.7101 85.3795 97.642 85.3867 97.5774 85.4075C97.5128 85.4282 97.4532 85.462 97.4022 85.5068C97.3536 85.5554 97.3158 85.6137 97.2913 85.6778C97.2668 85.742 97.2561 85.8107 97.26 85.8793C97.2639 85.9479 97.2822 86.0149 97.3137 86.0759C97.3453 86.1369 97.3894 86.1906 97.4431 86.2334C97.4834 86.2877 97.5348 86.3329 97.5939 86.3659C97.653 86.3989 97.7184 86.4189 97.7858 86.4247C97.8532 86.4305 97.921 86.422 97.9849 86.3996C98.0487 86.3772 98.1071 86.3414 98.1561 86.2948H98.1492Z" fill="white"/>
<path d="M101.731 85.9299L102.164 86.3836L98.047 88.2256L97.6172 87.7685L101.731 85.9299Z" fill="white"/>
<path d="M101.425 90.2863L100.991 90.6956L99.3438 88.9593L99.6849 88.6353L101.36 88.7308C101.473 88.7529 101.591 88.7501 101.703 88.7224C101.816 88.6947 101.921 88.6429 102.011 88.5705C102.192 88.3999 102.178 88.1748 101.946 87.9326C101.863 87.8361 101.757 87.7619 101.638 87.7167C101.519 87.6714 101.391 87.6565 101.264 87.6733L101.148 87.0491C101.388 87.0213 101.632 87.0531 101.857 87.1417C102.082 87.2304 102.281 87.3731 102.438 87.5573C102.922 88.0724 102.98 88.6591 102.564 89.0548C102.342 89.2663 102.079 89.3959 101.476 89.355L100.48 89.297L101.425 90.2863Z" fill="white"/>
<path d="M103.638 92.5265L103.296 92.1546L102.816 92.6083L102.324 92.0898L102.809 91.6361L101.639 90.3979L101.997 90.0568L104.477 89.7634L105.005 90.3194L102.672 90.6196L103.256 91.237L103.685 90.8311L104.16 91.3326L103.73 91.7385L104.071 92.1137L103.638 92.5265Z" fill="white"/>
<path d="M114.414 64.1159C115.71 62.1238 115.202 59.4767 113.462 57.8598C112.933 57.3606 112.32 56.9588 111.651 56.6728C109.989 55.9905 107.789 56.4852 106.916 58.0611C106.203 59.3471 106.49 60.9538 106.991 62.3353C107.513 63.785 108.355 65.2654 109.792 65.8283C111.228 66.3911 112.834 65.876 113.864 64.8049C114.071 64.5947 114.255 64.3638 114.414 64.1159Z" fill="white"/>
<path d="M146.049 64.9377H58.8162C55.5307 64.9377 52.8672 67.6012 52.8672 70.8868V130.933C52.8672 134.219 55.5307 136.882 58.8162 136.882H146.049C149.335 136.882 151.998 134.219 151.998 130.933V70.8868C151.998 67.6012 149.335 64.9377 146.049 64.9377Z" fill="#263F97"/>
<path d="M151.999 70.8864C151.999 70.8864 151.999 70.8147 151.999 70.6715C151.993 70.4577 151.972 70.2446 151.938 70.0336C151.818 69.2031 151.52 68.4083 151.064 67.7038C150.731 67.1855 150.321 66.7199 149.85 66.3223C149.274 65.8505 148.616 65.4897 147.909 65.258C147.718 65.1932 147.517 65.1557 147.316 65.0977C147.114 65.0397 146.899 65.0329 146.685 64.9987L146.026 64.968H142.349L106.781 64.9953H82.2207H68.5352H59.5604C58.9548 64.9711 58.3482 65.0053 57.7491 65.0977C56.5428 65.3191 55.4373 65.9161 54.5904 66.8032C54.1627 67.2451 53.8091 67.7531 53.5432 68.3076C53.269 68.8617 53.0891 69.4578 53.011 70.0711C52.9522 70.6946 52.9328 71.3213 52.953 71.9472V81.5633C52.953 86.7619 52.953 92.0639 52.953 97.4694V130.899C52.9551 132.325 53.4738 133.703 54.413 134.777C55.3395 135.845 56.6241 136.538 58.0254 136.725C58.7241 136.785 59.4257 136.805 60.1267 136.783H114.077H142.27H145.552C146.087 136.799 146.623 136.764 147.152 136.677C147.671 136.577 148.175 136.407 148.649 136.172C148.884 136.057 149.112 135.927 149.332 135.783C149.545 135.633 149.75 135.472 149.946 135.299C150.526 134.788 151 134.167 151.337 133.471C151.675 132.775 151.871 132.019 151.914 131.247C151.948 127.153 151.914 123.217 151.934 119.464C151.934 104.455 151.958 92.2981 151.965 83.8999C151.965 79.7008 151.965 76.4431 151.982 74.2293C151.982 73.1275 151.982 72.285 151.982 71.7153C151.982 71.1456 151.982 70.8591 151.982 70.8591C151.982 70.8591 151.982 71.149 151.982 71.7153C151.982 72.2815 151.982 73.1275 151.982 74.2293C151.982 76.4431 151.982 79.6871 151.999 83.8999C151.999 92.2981 151.999 104.449 152.026 119.464C152.026 123.217 152.05 127.15 152.026 131.253C151.969 132.305 151.635 133.323 151.058 134.204C150.77 134.647 150.426 135.05 150.034 135.405C149.834 135.582 149.623 135.747 149.403 135.899C149.184 136.046 148.956 136.179 148.721 136.299C148.237 136.541 147.721 136.716 147.189 136.817C146.652 136.908 146.107 136.944 145.562 136.926H142.281H114.088H82.9302H60.113C59.4041 136.948 58.6944 136.928 57.9879 136.865C56.5441 136.675 55.22 135.963 54.2663 134.862C53.3034 133.759 52.7705 132.346 52.7654 130.882C52.7654 119.424 52.7654 108.242 52.7654 97.4524V81.5633C52.7654 78.9662 52.7654 76.3965 52.7654 73.8541V71.9541C52.745 71.3201 52.7656 70.6854 52.8268 70.0541C52.9075 69.4239 53.0931 68.8116 53.376 68.2427C53.6486 67.6713 54.0127 67.1482 54.454 66.6941C54.8908 66.2449 55.392 65.8632 55.9412 65.5616C56.4933 65.2685 57.0868 65.0615 57.7014 64.9476L58.1619 64.8759L58.6224 64.8521C58.9328 64.835 59.2364 64.8521 59.54 64.8521H82.2002H106.76L142.328 64.8828H145.989L146.654 64.9169C146.869 64.9544 147.084 64.9783 147.288 65.0226C147.493 65.067 147.694 65.1181 147.885 65.1864C148.598 65.4211 149.261 65.7866 149.84 66.2643C150.313 66.6656 150.724 67.1359 151.058 67.6594C151.511 68.3699 151.805 69.1708 151.917 70.0063C151.952 70.2183 151.97 70.4327 151.972 70.6476C151.999 70.8147 151.999 70.8864 151.999 70.8864Z" fill="#263238"/>
<path d="M148.527 69.3716C149.204 69.2534 149.897 69.2534 150.574 69.3716C149.897 69.4899 149.204 69.4899 148.527 69.3716Z" fill="#263238"/>
<path d="M140.176 69.3716C141.565 69.2534 142.962 69.2534 144.351 69.3716C142.962 69.4899 141.565 69.4899 140.176 69.3716Z" fill="#263238"/>
<path d="M131.83 69.3717C133.218 69.2534 134.614 69.2534 136.002 69.3717C134.614 69.49 133.218 69.49 131.83 69.3717Z" fill="#263238"/>
<path d="M123.479 69.3716C124.868 69.2534 126.265 69.2534 127.654 69.3716C126.265 69.4899 124.868 69.4899 123.479 69.3716Z" fill="#263238"/>
<path d="M115.133 69.3717C116.521 69.2534 117.917 69.2534 119.305 69.3717C117.917 69.49 116.521 69.49 115.133 69.3717Z" fill="#263238"/>
<path d="M106.781 69.3716C108.17 69.2534 109.567 69.2534 110.956 69.3716C109.567 69.4899 108.17 69.4899 106.781 69.3716Z" fill="#263238"/>
<path d="M98.4355 69.3717C99.8236 69.2534 101.219 69.2534 102.607 69.3717C101.219 69.49 99.8236 69.49 98.4355 69.3717Z" fill="#263238"/>
<path d="M90.084 69.3716C91.4732 69.2534 92.87 69.2534 94.2592 69.3716C92.87 69.4899 91.4732 69.4899 90.084 69.3716Z" fill="#263238"/>
<path d="M81.7324 69.3716C83.1217 69.2534 84.5184 69.2534 85.9077 69.3716C84.5184 69.4899 83.1217 69.4899 81.7324 69.3716Z" fill="#263238"/>
<path d="M73.3867 69.371C74.0755 69.2839 74.7704 69.2542 75.4641 69.2823C76.1612 69.2536 76.8595 69.2833 77.5517 69.371C76.8597 69.4607 76.1612 69.4904 75.4641 69.4597C74.7704 69.4898 74.0754 69.4601 73.3867 69.371Z" fill="#263238"/>
<path d="M65.0352 69.371C65.7273 69.2833 66.4256 69.2536 67.1228 69.2823C67.8199 69.2536 68.5182 69.2833 69.2104 69.371C68.5184 69.4607 67.8199 69.4904 67.1228 69.4597C66.4256 69.4904 65.7272 69.4607 65.0352 69.371Z" fill="#263238"/>
<path d="M58.8173 71.4183C58.7274 70.7401 58.6977 70.0552 58.7286 69.3716L58.8173 69.283H59.6121L60.2636 69.3034C60.4656 69.296 60.6677 69.3167 60.864 69.3648C60.668 69.4153 60.4658 69.4371 60.2636 69.4296L59.6121 69.4467H59.23H58.8173L58.906 69.358C58.9355 70.0461 58.9059 70.7354 58.8173 71.4183Z" fill="#263238"/>
<path d="M58.8172 79.07C58.7275 78.4363 58.6978 77.7956 58.7285 77.1563C58.6979 76.5182 58.7276 75.8786 58.8172 75.2461C58.9048 75.8788 58.9345 76.5182 58.9059 77.1563C58.9346 77.7956 58.9049 78.4361 58.8172 79.07Z" fill="#263238"/>
<path d="M58.8172 86.7209C58.699 85.449 58.699 84.1689 58.8172 82.897C58.9354 84.1689 58.9354 85.449 58.8172 86.7209Z" fill="#263238"/>
<path d="M58.8172 94.3725C58.699 93.0994 58.699 91.8182 58.8172 90.5452C58.9355 91.8182 58.9355 93.0994 58.8172 94.3725Z" fill="#263238"/>
<path d="M58.8172 102.03C58.699 100.757 58.699 99.4762 58.8172 98.2031C58.9355 99.4762 58.9355 100.757 58.8172 102.03Z" fill="#263238"/>
<path d="M58.8172 109.671C58.699 108.399 58.699 107.119 58.8172 105.847C58.9354 107.119 58.9354 108.399 58.8172 109.671Z" fill="#263238"/>
<path d="M58.8172 117.322C58.699 116.051 58.699 114.77 58.8172 113.499C58.9354 114.77 58.9354 116.051 58.8172 117.322Z" fill="#263238"/>
<path d="M58.8172 124.973C58.699 123.701 58.699 122.421 58.8172 121.149C58.9354 122.421 58.9354 123.701 58.8172 124.973Z" fill="#263238"/>
<path d="M60.8631 130.848C60.1846 130.936 59.4999 130.965 58.8164 130.937C58.639 130.759 58.7652 130.885 58.7277 130.845V130.439C58.7277 130.306 58.7277 130.179 58.7277 130.053C58.7277 129.828 58.7277 129.613 58.7277 129.402C58.7179 129.2 58.7397 128.999 58.7925 128.805C58.8408 129 58.8615 129.201 58.8539 129.402C58.8539 129.613 58.8539 129.828 58.8744 130.053C58.8744 130.179 58.8744 130.306 58.8744 130.439C58.8744 130.503 58.8744 130.572 58.8744 130.64V130.845C58.8334 130.807 58.9631 130.937 58.7857 130.759C59.4794 130.727 60.1746 130.756 60.8631 130.848Z" fill="#263238"/>
<path d="M69.0934 130.848C68.4149 130.935 67.7302 130.964 67.0467 130.936C66.3632 130.964 65.6785 130.935 65 130.848C65.6783 130.759 66.3632 130.729 67.0467 130.759C67.7302 130.729 68.415 130.759 69.0934 130.848Z" fill="#263238"/>
<path d="M77.3199 130.848C76.6414 130.935 75.9568 130.964 75.2732 130.936C74.5897 130.964 73.9051 130.935 73.2266 130.848C73.9049 130.759 74.5897 130.729 75.2732 130.759C75.9568 130.729 76.6416 130.759 77.3199 130.848Z" fill="#263238"/>
<path d="M85.5494 130.847C84.1807 130.966 82.8043 130.966 81.4355 130.847C82.8043 130.729 84.1807 130.729 85.5494 130.847Z" fill="#263238"/>
<path d="M93.774 130.847C92.4053 130.966 91.0289 130.966 89.6602 130.847C91.0289 130.729 92.4053 130.729 93.774 130.847Z" fill="#263238"/>
<path d="M102.003 130.847C100.634 130.966 99.2574 130.966 97.8887 130.847C99.2574 130.729 100.634 130.729 102.003 130.847Z" fill="#263238"/>
<path d="M110.231 130.847C108.862 130.966 107.486 130.966 106.117 130.847C107.486 130.729 108.862 130.729 110.231 130.847Z" fill="#263238"/>
<path d="M118.444 130.847C117.075 130.966 115.699 130.966 114.33 130.847C115.699 130.729 117.075 130.729 118.444 130.847Z" fill="#263238"/>
<path d="M126.686 130.847C125.317 130.966 123.941 130.966 122.572 130.847C123.941 130.729 125.317 130.729 126.686 130.847Z" fill="#263238"/>
<path d="M134.913 130.847C133.544 130.966 132.168 130.966 130.799 130.847C132.168 130.729 133.544 130.729 134.913 130.847Z" fill="#263238"/>
<path d="M143.145 130.847C141.776 130.966 140.4 130.966 139.031 130.847C140.4 130.729 141.776 130.729 143.145 130.847Z" fill="#263238"/>
<path d="M149.306 130.847C148.629 130.965 147.937 130.965 147.26 130.847C147.937 130.729 148.629 130.729 149.306 130.847Z" fill="#263238"/>
<g opacity="0.3">
<path opacity="0.3" d="M87.0624 104.841C87.0624 104.841 87.0829 108.252 86.0391 110.299C84.9953 112.346 84.6746 113.158 82.4915 113.949C80.3083 114.74 52.8418 117.759 52.8418 117.759V108.491L87.0624 104.841Z" fill="black"/>
</g>
<g opacity="0.3">
<path opacity="0.3" d="M86.5795 91.9802C86.5795 91.9802 86.8934 88.4974 78.1574 87.2046C68.1662 85.7276 52.8672 83.9128 52.8672 83.9128V90.4998L86.5795 91.9802Z" fill="black"/>
</g>
<path d="M82.1941 88.822H53.7759C51.08 88.822 48.8945 91.0075 48.8945 93.7034V106.427C48.8945 109.123 51.08 111.308 53.7759 111.308H82.1941C84.89 111.308 87.0755 109.123 87.0755 106.427V93.7034C87.0755 91.0075 84.89 88.822 82.1941 88.822Z" fill="#263F97"/>
<path d="M53.7756 111.305C53.7756 111.305 53.6767 111.305 53.4857 111.305C53.1994 111.294 52.915 111.255 52.6363 111.189C52.1804 111.086 51.7424 110.916 51.3366 110.684C50.7809 110.37 50.2928 109.949 49.9005 109.446C49.4036 108.814 49.0698 108.071 48.9284 107.28C48.8573 106.829 48.8299 106.372 48.8465 105.915C48.8465 105.445 48.8465 104.953 48.8465 104.445C48.8465 102.415 48.8465 100.106 48.8465 97.5511C48.8465 96.2719 48.8465 94.9382 48.8465 93.5396C48.8694 92.8023 49.0572 92.0796 49.396 91.4243C49.7349 90.7691 50.2161 90.1981 50.8045 89.7533C51.423 89.2778 52.1475 88.9594 52.916 88.8254C53.3059 88.7607 53.7011 88.7333 54.0963 88.7435H60.2363H82.2177C82.9582 88.742 83.6896 88.9067 84.3579 89.2255C85.0262 89.5443 85.6145 90.0091 86.0792 90.5856C86.6946 91.3399 87.0721 92.26 87.1639 93.2292C87.2014 93.7102 87.1878 94.1775 87.1912 94.6448C87.1912 95.5795 87.1912 96.5062 87.1912 97.4249V102.838C87.1912 103.722 87.1912 104.599 87.1912 105.462C87.1912 105.898 87.2083 106.321 87.1912 106.758C87.1787 106.974 87.1525 107.189 87.1127 107.403C87.0663 107.612 87.0094 107.819 86.9422 108.023C86.6644 108.822 86.1875 109.536 85.5566 110.099C84.9257 110.662 84.1616 111.055 83.3366 111.24C83.1396 111.285 82.9403 111.321 82.7396 111.346C82.5384 111.363 82.3371 111.37 82.1359 111.376H78.6736H70.3163L58.2135 111.346L54.9218 111.329H54.069H53.7756C53.7756 111.329 53.8745 111.329 54.069 111.329H54.9218L58.2135 111.312L70.3163 111.284H78.6736H80.9624C81.7402 111.264 82.535 111.349 83.2991 111.148C84.0901 110.959 84.8203 110.573 85.4216 110.025C86.0229 109.477 86.4756 108.786 86.7375 108.017C87.0309 107.229 86.9899 106.372 86.9899 105.506V102.883C86.9899 101.116 86.9899 99.3079 86.9899 97.4693V94.6892C86.9899 94.2219 86.9899 93.7477 86.9661 93.2906C86.8741 92.356 86.51 91.4688 85.9188 90.7391C85.6213 90.378 85.2772 90.058 84.8955 89.7874C84.499 89.5263 84.0686 89.3208 83.6163 89.1768C83.1583 89.0434 82.6845 88.9722 82.2075 88.9653H60.2261H54.086C53.699 88.9551 53.3118 88.9814 52.9296 89.0437C52.1854 89.1726 51.4833 89.4792 50.883 89.9374C50.3107 90.3686 49.8421 90.9222 49.5116 91.5579C49.1811 92.1936 48.9969 92.8952 48.9727 93.6113C48.9557 94.9996 48.9727 96.3402 48.9727 97.6194C48.9727 100.174 48.9727 102.484 48.9727 104.513C48.9727 105.022 48.9727 105.513 48.9727 105.983C48.9555 106.434 48.9806 106.885 49.0478 107.331C49.2115 108.261 49.6415 109.123 50.2858 109.813C50.93 110.504 51.7608 110.992 52.6772 111.22C52.9535 111.289 53.2355 111.332 53.5198 111.349L53.7756 111.305Z" fill="#263238"/>
<path d="M75.5735 109.084C80.0874 109.084 83.7466 105.425 83.7466 100.911C83.7466 96.397 80.0874 92.7378 75.5735 92.7378C71.0596 92.7378 67.4004 96.397 67.4004 100.911C67.4004 105.425 71.0596 109.084 75.5735 109.084Z" fill="#0D267E"/>
<path d="M77.668 107.587C78.3593 107.33 79.0151 106.986 79.6191 106.564C80.2618 106.092 80.82 105.516 81.2701 104.858C81.8306 104.06 82.2015 103.145 82.3546 102.182C82.5077 101.219 82.439 100.234 82.1536 99.3012C81.9307 98.5359 81.5776 97.8147 81.1098 97.1692C80.669 96.5793 80.1529 96.0495 79.5748 95.5933C79.5748 95.5933 79.626 95.6137 79.7078 95.6683C79.8341 95.7469 79.9559 95.8323 80.0728 95.9241C80.5024 96.2624 80.8854 96.6558 81.2122 97.0942C81.7025 97.7437 82.0743 98.4746 82.3105 99.2534C82.6139 100.208 82.6899 101.22 82.5323 102.209C82.3748 103.198 81.9881 104.137 81.4032 104.95C80.9391 105.614 80.3618 106.192 79.6976 106.656C79.2517 106.971 78.7652 107.225 78.2513 107.409C78.1131 107.462 77.9719 107.507 77.8283 107.543C77.7782 107.568 77.7238 107.583 77.668 107.587Z" fill="#0D267E"/>
<path d="M183.284 48.5235C183.561 51.5 182.948 54.4916 181.523 57.1194C180.098 59.7472 177.925 61.8929 175.279 63.2849C172.634 64.6768 169.635 65.2523 166.662 64.9384C163.689 64.6246 160.877 63.4355 158.58 61.5218C156.284 59.6081 154.607 57.0559 153.762 54.1884C152.917 51.321 152.943 48.2673 153.835 45.4142C154.727 42.5612 156.445 40.037 158.773 38.1615C161.101 36.286 163.933 35.1436 166.91 34.8789C170.89 34.5206 174.85 35.7562 177.92 38.3143C180.989 40.8725 182.919 44.5442 183.284 48.5235Z" fill="#FF9D00"/>
<path d="M168.201 55.9724L165.465 51.2V50.0753H166.377C166.914 50.0753 167.365 49.9588 167.729 49.7258C168.094 49.4826 168.327 49.1482 168.429 48.7227H165.465V47.598H168.413C168.322 47.2129 168.135 46.8938 167.851 46.6405C167.567 46.377 167.172 46.2453 166.666 46.2453H165.465V45.1206H172.319V46.2453H169.933C170.288 46.6303 170.511 47.0812 170.602 47.598H172.319V48.7227H170.632C170.531 49.4725 170.242 50.0601 169.766 50.4857C169.29 50.9011 168.677 51.1848 167.927 51.3368L170.906 55.9724H168.201Z" fill="#9C640A"/>
<g opacity="0.3">
<path opacity="0.3" d="M179.668 48.4765C179.6 48.4765 179.508 47.9887 179.245 47.1121C178.877 45.9032 178.325 44.7584 177.608 43.718C177.113 43.0078 176.541 42.3546 175.902 41.7702C175.172 41.0994 174.358 40.5261 173.48 40.0646C173.008 39.8157 172.517 39.6025 172.013 39.4268C171.489 39.2424 170.952 39.0976 170.407 38.9935C169.844 38.8855 169.274 38.8205 168.701 38.7991C168.109 38.7789 167.516 38.8029 166.927 38.8707C166.34 38.9437 165.759 39.0577 165.188 39.2119C164.634 39.3709 164.094 39.5716 163.571 39.8122C162.58 40.2674 161.66 40.865 160.842 41.586C160.099 42.2393 159.443 42.9857 158.891 43.8067C158.411 44.5269 158.013 45.298 157.704 46.1058C157.254 47.2858 156.992 48.5288 156.926 49.7898C156.875 50.6904 156.905 51.1952 156.834 51.2054C156.762 51.2157 156.639 50.7176 156.581 49.7898C156.516 48.4707 156.697 47.151 157.113 45.8977C157.733 44.0127 158.831 42.3204 160.299 40.9856C161.165 40.1926 162.145 39.5337 163.206 39.0311C163.767 38.7656 164.349 38.5455 164.945 38.3727C165.56 38.1969 166.187 38.068 166.822 37.9873C167.457 37.9149 168.096 37.8898 168.735 37.9122C169.356 37.9399 169.974 38.0152 170.584 38.1373C171.734 38.3717 172.842 38.7764 173.872 39.3381C175.616 40.2859 177.086 41.6676 178.14 43.3496C178.845 44.4669 179.335 45.7059 179.586 47.0029C179.729 47.9649 179.729 48.4765 179.668 48.4765Z" fill="black"/>
</g>
<path d="M156.788 50.922C156.799 50.9517 156.807 50.9826 156.812 51.0141C156.812 51.0858 156.839 51.1745 156.859 51.2836C156.88 51.3928 156.9 51.5531 156.928 51.7203C156.955 51.9204 156.995 52.1186 157.047 52.3138C157.537 54.44 158.615 56.3856 160.158 57.9285L160.697 58.4197C160.789 58.4982 160.874 58.5869 160.973 58.6653L161.277 58.8905C161.481 59.0406 161.683 59.2077 161.901 59.3476L162.583 59.7603C163.56 60.3121 164.611 60.7199 165.704 60.9713C168.071 61.5125 170.548 61.2843 172.776 60.3198C173.805 59.8733 174.764 59.2805 175.624 58.5596L176.218 58.0309C176.409 57.8535 176.559 57.6522 176.746 57.468C176.832 57.3759 176.92 57.2838 177.002 57.1917C177.084 57.0996 177.156 56.9939 177.234 56.8984C177.381 56.7005 177.527 56.5095 177.674 56.3185C178.171 55.5861 178.587 54.8014 178.912 53.9784C179.384 52.7805 179.652 51.5124 179.707 50.2262C179.721 50.0251 179.721 49.8234 179.707 49.6224C179.707 49.4518 179.707 49.3018 179.707 49.179C179.707 49.0561 179.707 48.9777 179.707 48.9061C179.704 48.8743 179.704 48.8423 179.707 48.8105C179.711 48.8411 179.711 48.8721 179.707 48.9026C179.707 48.9743 179.707 49.0664 179.728 49.1755C179.748 49.2847 179.728 49.4484 179.752 49.6224C179.767 49.8245 179.767 50.0275 179.752 50.2296C179.723 51.5265 179.471 52.8088 179.005 54.0194C178.686 54.8602 178.272 55.6614 177.77 56.4072L177.343 57.0041C177.265 57.103 177.193 57.2088 177.111 57.3043L176.852 57.5874C176.678 57.775 176.511 57.9763 176.317 58.1571L175.72 58.6995C174.849 59.4338 173.877 60.0381 172.834 60.4937C170.578 61.4741 168.068 61.706 165.67 61.1555C164.56 60.8981 163.494 60.4798 162.505 59.9138L161.823 59.4943C161.601 59.351 161.4 59.1804 161.192 59.0303L160.888 58.7984C160.789 58.7199 160.7 58.6278 160.605 58.546L160.052 58.0275C159.425 57.3865 158.873 56.677 158.405 55.9126C157.726 54.8064 157.243 53.5912 156.979 52.3206C156.93 52.1244 156.896 51.9249 156.876 51.7237C156.856 51.5531 156.839 51.403 156.822 51.2802C156.805 51.1574 156.801 51.079 156.791 51.0073C156.787 50.9791 156.786 50.9505 156.788 50.922Z" fill="#263238"/>
<path d="M161.993 93.0423C161.242 94.6079 160.043 95.9155 158.549 96.7995C157.055 97.6835 155.331 98.1043 153.598 98.0084C151.864 97.9126 150.198 97.3044 148.81 96.261C147.422 95.2176 146.375 93.7859 145.801 92.1471C145.228 90.5082 145.153 88.7361 145.587 87.0549C146.021 85.3737 146.945 83.8591 148.24 82.7029C149.535 81.5467 151.145 80.8008 152.864 80.5598C154.584 80.3188 156.336 80.5934 157.899 81.3489C158.936 81.8478 159.864 82.5461 160.631 83.4038C161.398 84.2615 161.988 85.2619 162.368 86.3477C162.748 87.4336 162.911 88.5837 162.846 89.7323C162.782 90.881 162.492 92.0057 161.993 93.0423Z" fill="#FF9D00"/>
<path d="M153.071 92.8078L152.144 89.2653L152.353 88.5573L152.959 88.7368C153.316 88.8425 153.637 88.8579 153.923 88.783C154.211 88.7017 154.428 88.5371 154.575 88.2892L152.606 87.7059L152.815 86.9979L154.774 87.5782C154.785 87.3179 154.72 87.0801 154.579 86.8648C154.44 86.6432 154.202 86.4825 153.865 86.3828L153.068 86.1464L153.277 85.4385L157.831 86.7876L157.621 87.4956L156.036 87.0259C156.2 87.3381 156.264 87.6658 156.228 88.009L157.369 88.347L157.159 89.055L156.039 88.7229C155.832 89.175 155.53 89.4881 155.134 89.6622C154.741 89.83 154.28 89.8879 153.754 89.836L154.868 93.3403L153.071 92.8078Z" fill="#9C640A"/>
<g opacity="0.3">
<path opacity="0.3" d="M160.215 91.947C160.25 91.6738 160.314 91.4051 160.406 91.1454C160.582 90.4331 160.647 89.6979 160.6 88.9657C160.563 88.464 160.473 87.9677 160.331 87.4852C160.163 86.9354 159.926 86.4092 159.625 85.9195C159.462 85.6557 159.281 85.4038 159.082 85.1657C158.435 84.3919 157.618 83.7779 156.694 83.3714C156.379 83.2335 156.054 83.1195 155.722 83.0303C155.399 82.9454 155.069 82.8849 154.736 82.8495C154.416 82.8128 154.093 82.8014 153.771 82.8154C153.461 82.8275 153.152 82.8629 152.847 82.9211C152.281 83.0239 151.732 83.2005 151.213 83.4464C150.759 83.6634 150.33 83.9288 149.934 84.2378C149.359 84.6948 148.858 85.2379 148.45 85.8479C148.317 86.0903 148.16 86.3188 147.982 86.5301C148.024 86.2513 148.125 85.9848 148.279 85.749C148.639 85.0649 149.125 84.455 149.712 83.9513C150.114 83.6013 150.558 83.3012 151.032 83.0576C151.578 82.7774 152.16 82.5721 152.761 82.447C153.434 82.3077 154.124 82.2709 154.808 82.3378C155.167 82.3736 155.523 82.4375 155.872 82.5288C156.231 82.6256 156.582 82.7487 156.923 82.8973C157.262 83.0494 157.59 83.2273 157.902 83.4294C158.203 83.6272 158.488 83.8485 158.755 84.0912C159.014 84.3243 159.254 84.5787 159.471 84.8518C159.681 85.1096 159.87 85.3833 160.037 85.6705C160.351 86.2042 160.591 86.7779 160.75 87.3761C160.886 87.8908 160.96 88.4198 160.972 88.952C160.991 89.7198 160.868 90.4844 160.607 91.2068C160.529 91.4779 160.395 91.73 160.215 91.947Z" fill="black"/>
</g>
<path d="M148.072 86.3398C148.072 86.3398 147.969 86.6161 147.802 87.1176C147.576 87.8273 147.47 88.5698 147.488 89.3144C147.502 89.8265 147.572 90.3355 147.696 90.8323C147.845 91.4062 148.064 91.9596 148.348 92.4799C148.671 93.0424 149.073 93.5558 149.542 94.0047C150.554 94.9762 151.851 95.5979 153.243 95.7785C153.886 95.862 154.537 95.8528 155.177 95.7512C156.268 95.5766 157.297 95.1322 158.172 94.4584C158.763 94.0048 159.276 93.4574 159.69 92.8381C159.973 92.3946 160.106 92.1286 160.123 92.1388C160.103 92.2069 160.074 92.2722 160.038 92.3332C159.951 92.5181 159.855 92.6981 159.748 92.8722C159.35 93.5165 158.844 94.0868 158.251 94.5573C157.37 95.2668 156.32 95.7367 155.204 95.9217C154.548 96.032 153.879 96.0446 153.219 95.9593C152.511 95.8603 151.821 95.6569 151.172 95.3555C150.532 95.0402 149.942 94.6309 149.423 94.1411C148.944 93.6797 148.535 93.1511 148.208 92.572C147.911 92.0459 147.682 91.4843 147.526 90.9005C147.405 90.3919 147.342 89.8712 147.338 89.3485C147.33 88.5921 147.456 87.8402 147.71 87.1278C147.777 86.935 147.857 86.7469 147.949 86.565C147.981 86.4853 148.022 86.4097 148.072 86.3398Z" fill="#263238"/>
<path d="M37.4091 91.7973C37.8247 94.6022 37.3986 97.4673 36.1848 100.03C34.971 102.593 33.0241 104.737 30.5906 106.193C28.1571 107.648 25.3465 108.349 22.5145 108.206C19.6826 108.063 16.9568 107.083 14.6823 105.39C12.4078 103.696 10.6868 101.366 9.73728 98.6946C8.78778 96.0228 8.65245 93.1293 9.34844 90.3806C10.0444 87.6318 11.5404 85.1513 13.647 83.2533C15.7536 81.3553 18.376 80.1251 21.1822 79.7184C23.0408 79.4459 24.9349 79.5422 26.7563 80.0018C28.5777 80.4613 30.2907 81.2752 31.7975 82.3968C33.3044 83.5185 34.5755 84.926 35.5383 86.5389C36.5012 88.1519 37.1368 89.9387 37.4091 91.7973Z" fill="#FF9D00"/>
<g opacity="0.3">
<path opacity="0.3" d="M33.9832 91.9401C33.9184 91.9401 33.8025 91.4864 33.5091 90.6848C33.1007 89.5573 32.5183 88.5007 31.7831 87.5534C31.2795 86.909 30.7077 86.3212 30.0775 85.8C29.3488 85.2074 28.5461 84.7121 27.6897 84.3264C27.2296 84.1153 26.7541 83.9397 26.2672 83.8011C25.7618 83.6474 25.2451 83.5334 24.722 83.46C24.1817 83.3867 23.6366 83.3548 23.0915 83.3645C22.53 83.3788 21.9702 83.4335 21.4166 83.5282C20.8634 83.6289 20.3184 83.7703 19.7861 83.9512C19.2705 84.1315 18.7689 84.3492 18.2852 84.6027C17.8183 84.8485 17.3712 85.1302 16.948 85.4453C16.5393 85.7444 16.1529 86.0728 15.7916 86.4277C14.5354 87.6624 13.5988 89.1844 13.0627 90.8622C12.6986 92.0047 12.5156 93.1971 12.5203 94.3961C12.5203 95.2489 12.5715 95.7265 12.5203 95.7367C12.4692 95.7469 12.3088 95.2864 12.2099 94.4132C12.0754 93.1671 12.1772 91.9068 12.5101 90.6984C12.7359 89.8578 13.0611 89.047 13.4788 88.2834C13.9648 87.4057 14.566 86.5969 15.2663 85.8785C15.6452 85.4885 16.0535 85.1282 16.4875 84.8006C16.9391 84.4557 17.417 84.1466 17.9167 83.8761C18.4348 83.596 18.9743 83.3576 19.5302 83.1632C20.6769 82.7581 21.8822 82.5438 23.0983 82.5287C23.6871 82.5224 24.2755 82.5612 24.8584 82.6447C25.4214 82.7246 25.977 82.8501 26.5197 83.0199C27.0395 83.179 27.5469 83.3763 28.0376 83.6101C29.7376 84.4173 31.2013 85.6484 32.2879 87.185C33.0127 88.2083 33.5423 89.3566 33.8502 90.5722C34.0276 91.4557 34.031 91.9333 33.9832 91.9401Z" fill="black"/>
</g>
<path d="M12.4424 95.4474C12.4526 95.4752 12.4606 95.5037 12.4662 95.5327C12.4833 95.5975 12.5038 95.6828 12.5276 95.7851L12.6163 96.1945C12.653 96.3825 12.7008 96.5682 12.7596 96.7505C13.0985 97.9217 13.6299 99.0284 14.3321 100.025C14.8165 100.711 15.376 101.34 16.0002 101.901L16.5357 102.338C16.6278 102.41 16.7165 102.488 16.812 102.556L17.1122 102.754C17.3135 102.884 17.5113 103.03 17.7262 103.153L18.388 103.494C19.342 103.966 20.3586 104.298 21.4069 104.48C22.536 104.659 23.6852 104.671 24.818 104.518C25.9464 104.335 27.0425 103.991 28.0722 103.494C29.0218 103.016 29.8982 102.405 30.6749 101.68L31.2071 101.144C31.381 100.967 31.5243 100.769 31.6812 100.588L31.9098 100.312C31.9848 100.216 32.0462 100.117 32.111 100.022C32.2441 99.8273 32.3703 99.6363 32.4999 99.4487C32.9315 98.7294 33.2838 97.9654 33.5505 97.1701C33.9343 96.012 34.1222 94.798 34.1066 93.5781C34.1132 93.3868 34.1052 93.1952 34.0827 93.0051C34.0827 92.8447 34.0588 92.7049 34.052 92.5855C34.0452 92.4661 34.052 92.3979 34.0349 92.3262C34.0304 92.2968 34.0304 92.2669 34.0349 92.2375C34.0454 92.266 34.0511 92.2959 34.052 92.3262C34.052 92.3945 34.0724 92.4797 34.0861 92.5821C34.0997 92.6844 34.1168 92.8413 34.1373 93.0016C34.1633 93.1927 34.1759 93.3853 34.1748 93.5781C34.219 94.8081 34.0481 96.0364 33.6699 97.2076C33.4103 98.0181 33.059 98.7964 32.6227 99.5272L32.2372 100.107C32.169 100.206 32.1076 100.308 32.0326 100.404L31.804 100.684C31.6471 100.871 31.5004 101.072 31.3265 101.253C31.1525 101.434 30.9854 101.615 30.7875 101.796C30.0017 102.538 29.1124 103.164 28.1473 103.651C26.0577 104.7 23.6866 105.051 21.383 104.651C20.3156 104.46 19.2815 104.115 18.3129 103.627L17.6307 103.262C17.4124 103.14 17.2146 102.989 17.0099 102.856L16.7063 102.655C16.6108 102.584 16.5221 102.502 16.4266 102.43L15.8876 101.987C15.2602 101.412 14.6995 100.769 14.2162 100.07C13.5159 99.0569 12.9965 97.9304 12.6811 96.7403C12.6226 96.5565 12.5793 96.3683 12.5515 96.1774C12.5242 96.0171 12.5004 95.8806 12.4765 95.7613L12.4355 95.5054C12.4362 95.4859 12.4384 95.4665 12.4424 95.4474Z" fill="#263238"/>
<path d="M198.422 136.96C198.422 137.187 154.001 137.369 99.217 137.369C44.4333 137.369 0 137.187 0 136.96C0 136.733 44.4125 136.566 99.217 136.566C154.022 136.566 198.422 136.748 198.422 136.96Z" fill="#263238"/>
<path d="M150.102 0.00623773C150.17 -0.00207924 150.239 -0.00207924 150.307 0.00623773L150.907 0.0232932C151.04 0.0232932 151.187 0.0232932 151.351 0.0232932L151.879 0.0983388L152.5 0.187028L153.183 0.360997C154.374 0.664913 155.506 1.16277 156.536 1.83461C158.065 2.80022 159.353 4.10417 160.299 5.64598C161.246 7.18779 161.825 8.92628 161.994 10.7275C162.041 11.2662 162.052 11.8075 162.028 12.3478C162.007 12.6207 162.028 12.9004 161.973 13.1767C161.918 13.453 161.888 13.7293 161.847 14.0124C161.636 15.1602 161.256 16.2705 160.721 17.3076C160.149 18.3956 159.423 19.3951 158.565 20.2753C157.651 21.1729 156.604 21.9242 155.461 22.5027C154.279 23.1102 152.998 23.504 151.678 23.6659C151.339 23.7174 150.998 23.7459 150.655 23.7512C150.314 23.7701 149.972 23.7701 149.632 23.7512C148.943 23.7236 148.259 23.638 147.585 23.4954C146.135 23.1842 144.756 22.6059 143.519 21.7898H143.642L139.497 23.4545L139.251 23.5534L139.323 23.2975C139.739 21.7762 140.149 20.2991 140.541 18.8631L140.561 18.9722C139.437 17.4817 138.68 15.7475 138.351 13.9101C138.193 13.0555 138.139 12.1851 138.191 11.3176C138.198 10.8991 138.237 10.4818 138.307 10.0691C138.337 9.86786 138.371 9.6666 138.402 9.46534C138.433 9.26409 138.498 9.07306 138.545 8.87863C139.239 6.1553 140.877 3.76666 143.167 2.1382C144.017 1.54201 144.945 1.06459 145.924 0.719167C146.139 0.640711 146.343 0.565665 146.544 0.497442L147.131 0.347352L147.67 0.214318C147.841 0.180206 148.011 0.16315 148.165 0.139272C148.479 0.0983385 148.755 0.043761 148.994 0.0335275L149.604 0.0130602H149.976C150.018 0.00795445 150.06 0.00795445 150.102 0.0130602C150.061 0.0214599 150.018 0.0271568 149.976 0.0301156L149.604 0.0574054L149 0.0983388C148.762 0.118806 148.489 0.176795 148.178 0.224551C145.93 0.612418 143.843 1.64476 142.171 3.19617C140.498 4.74758 139.312 6.75129 138.757 8.96391C138.712 9.15493 138.651 9.34595 138.617 9.54039C138.583 9.73483 138.559 9.93608 138.528 10.1373C138.459 10.5408 138.422 10.9492 138.419 11.3585C138.372 12.2093 138.428 13.0626 138.586 13.8998C138.915 15.6988 139.661 17.3954 140.766 18.8528L140.803 18.904V18.962C140.415 20.3947 140.012 21.8751 139.596 23.3965L139.422 23.243L143.563 21.5749L143.628 21.5476L143.686 21.5851C144.896 22.3859 146.245 22.9539 147.663 23.26C148.32 23.3996 148.988 23.4841 149.659 23.5124C149.992 23.5244 150.326 23.5176 150.658 23.492C150.988 23.4887 151.318 23.4614 151.644 23.4101C152.935 23.2549 154.188 22.8714 155.345 22.2776C156.464 21.7125 157.489 20.9785 158.385 20.1013C159.225 19.2428 159.938 18.2674 160.499 17.2052C161.028 16.1903 161.404 15.103 161.615 13.9783C161.656 13.702 161.7 13.4291 161.741 13.1596C161.782 12.8901 161.775 12.6172 161.796 12.3478C161.824 11.8168 161.816 11.2846 161.772 10.7548C161.613 8.98502 161.054 7.27452 160.137 5.75273C159.22 4.23095 157.969 2.93776 156.478 1.97106C155.467 1.30059 154.354 0.798328 153.183 0.483799L152.5 0.303007L151.89 0.200673L151.364 0.115394C151.204 0.0983386 151.054 0.0949279 150.924 0.0812834L150.304 0.0369381C150.236 0.0303481 150.169 0.0200996 150.102 0.00623773Z" fill="#263238"/>
<path d="M153.995 14.7039C153.949 14.708 153.902 14.708 153.856 14.7039H153.453L151.959 14.7278L146.955 14.7721H146.914V14.7312C146.873 14.4685 146.832 14.1854 146.791 13.9023C146.45 11.4769 146.136 9.31086 145.935 7.89865L145.962 7.92253H144.632H144.291H144.168C144.209 7.91805 144.25 7.91805 144.291 7.92253H144.632L145.962 7.88159H145.99V7.90547C146.201 9.3211 146.522 11.4838 146.883 13.9057L147.003 14.7346L146.955 14.6937H151.959L153.467 14.7039H153.873C153.914 14.7001 153.955 14.7001 153.995 14.7039Z" fill="#CFD8DC"/>
<path d="M147.06 14.841H146.892L146.865 14.6704V14.6295L146.766 13.9473L145.896 7.98458H144.273C144.129 7.98458 144.105 7.98459 144.105 7.93683V7.91977C144.105 7.91977 144.105 7.91977 144.259 7.89589H144.6L145.852 7.87884V7.84473L145.886 7.87543H146.002V7.93683C146 7.95498 146 7.97325 146.002 7.99141L146.036 8.02211H146.005C146.217 9.43773 146.531 11.5629 146.886 13.937L146.995 14.6909H151.92H153.817C153.977 14.6909 153.998 14.6909 153.998 14.7421C153.998 14.7932 153.998 14.7898 153.817 14.7932H153.414L151.924 14.8137L147.022 14.858L147.06 14.841ZM147.06 14.7387H148.39H147.06ZM146.602 12.3167L146.944 14.65L146.834 13.9097C146.756 13.3674 146.677 12.8352 146.602 12.3167Z" fill="#CFD8DC"/>
<path d="M146.742 13.2861H146.882H147.284L148.789 13.2622L153.984 13.2144L153.94 13.252C154.09 12.3787 154.25 11.4304 154.417 10.4514C154.502 9.94997 154.588 9.45535 154.666 8.9812L154.714 9.03578L148.591 9.05625H146.302H146.176H146.302H146.79L148.601 9.03237L154.724 8.9812H154.779V9.03578C154.7 9.50652 154.615 10.0011 154.53 10.506C154.363 11.485 154.189 12.4299 154.049 13.3065V13.3441H154.011H148.816H147.312H146.909H146.769L146.742 13.2861Z" fill="#CFD8DC"/>
<path d="M148.788 13.3405H146.775C146.737 13.3405 146.696 13.3405 146.696 13.2928C146.696 13.245 146.737 13.2484 146.775 13.245H147.28L148.788 13.2246L153.904 13.1768L154.368 10.4479C154.45 9.98056 154.528 9.52347 154.604 9.08343L148.586 9.1039H146.158C146.113 9.1039 146.072 9.1039 146.072 9.05614C146.072 9.00839 146.113 9.0118 146.158 9.00839H146.772L148.586 8.9811L154.634 8.92993H154.829L154.801 9.09367L154.119 13.187L154.092 13.3508H153.925L148.788 13.3405ZM153.904 13.2382H153.147H153.904ZM154.702 9.05955C154.627 9.503 154.549 9.96692 154.467 10.424L154.007 13.1529L154.689 9.05955H154.702ZM154.631 8.96745H153.133H154.631Z" fill="#CFD8DC"/>
<path d="M148.723 16.6425C148.723 16.6425 148.723 16.5811 148.682 16.4754C148.639 16.328 148.548 16.1994 148.423 16.1104C148.332 16.0465 148.228 16.0056 148.118 15.9914C148.008 15.9771 147.896 15.9898 147.792 16.0285C147.666 16.0764 147.558 16.1614 147.482 16.2723C147.406 16.3833 147.365 16.5148 147.366 16.6493C147.368 16.784 147.411 16.9149 147.488 17.0254C147.565 17.1358 147.673 17.221 147.799 17.2702C147.904 17.3074 148.016 17.3184 148.126 17.3024C148.236 17.2863 148.34 17.2437 148.43 17.1781C148.553 17.086 148.642 16.9568 148.686 16.8097C148.716 16.7073 148.716 16.6425 148.723 16.6425C148.739 16.7006 148.739 16.7618 148.723 16.8199C148.691 16.9813 148.603 17.1262 148.474 17.2292C148.39 17.297 148.291 17.3454 148.186 17.3712C148.081 17.397 147.971 17.3994 147.865 17.3785C147.759 17.3575 147.659 17.3135 147.571 17.2497C147.483 17.1858 147.411 17.1037 147.359 17.0089C147.306 16.9141 147.275 16.809 147.267 16.701C147.26 16.5929 147.276 16.4845 147.315 16.3833C147.353 16.2822 147.414 16.1906 147.491 16.1152C147.569 16.0398 147.662 15.9823 147.765 15.9466C147.882 15.9036 148.008 15.8913 148.131 15.911C148.254 15.9307 148.37 15.9818 148.467 16.0592C148.597 16.1613 148.687 16.3045 148.723 16.4651C148.74 16.5811 148.73 16.6425 148.723 16.6425Z" fill="#CFD8DC"/>
<path d="M148.007 17.4334C147.921 17.4334 147.836 17.4184 147.755 17.3891C147.601 17.3367 147.467 17.2376 147.371 17.1056C147.276 16.9735 147.224 16.8151 147.223 16.6523C147.221 16.5048 147.261 16.3599 147.338 16.2342C147.416 16.1085 147.527 16.0071 147.659 15.9416C147.791 15.876 147.939 15.8491 148.085 15.8638C148.232 15.8785 148.372 15.9342 148.488 16.0246C148.627 16.1321 148.723 16.2858 148.758 16.4578C148.769 16.5187 148.769 16.5812 148.758 16.642C148.768 16.703 148.768 16.7653 148.758 16.8262C148.724 16.9988 148.629 17.1535 148.492 17.2629C148.354 17.3722 148.183 17.4322 148.007 17.4334ZM147.861 15.9598L147.772 15.9871C147.635 16.0358 147.517 16.1256 147.434 16.2441C147.35 16.3625 147.306 16.5039 147.306 16.6489C147.306 16.7938 147.35 16.9352 147.434 17.0536C147.517 17.1721 147.635 17.2619 147.772 17.3106L147.861 17.3345L147.775 17.3072C147.64 17.2578 147.523 17.1679 147.441 17.0499C147.358 16.9318 147.314 16.7912 147.314 16.6471C147.314 16.5031 147.358 16.3625 147.441 16.2444C147.523 16.1263 147.64 16.0365 147.775 15.9871L147.861 15.9598ZM148.024 16.028C147.948 16.0273 147.873 16.0412 147.803 16.069C147.685 16.1139 147.584 16.1933 147.513 16.2969C147.442 16.4004 147.403 16.5232 147.403 16.6489C147.405 16.7639 147.438 16.8764 147.499 16.9739C147.56 17.0713 147.647 17.15 147.75 17.2012C147.853 17.2523 147.968 17.274 148.083 17.2639C148.198 17.2537 148.307 17.212 148.4 17.1435C148.514 17.0579 148.599 16.9386 148.642 16.8024C148.655 16.7612 148.664 16.719 148.669 16.6761C148.669 16.6761 148.669 16.6557 148.669 16.6454C148.667 16.6364 148.667 16.6271 148.669 16.6182C148.663 16.5752 148.652 16.533 148.638 16.4919C148.597 16.3547 148.512 16.2348 148.396 16.1508C148.289 16.072 148.16 16.029 148.028 16.028H148.024Z" fill="#CFD8DC"/>
<path d="M153.254 16.6152C153.254 16.6152 153.254 16.5538 153.213 16.4481C153.17 16.302 153.078 16.1747 152.954 16.0865C152.853 16.0191 152.736 15.9798 152.616 15.9726C152.495 15.9654 152.374 15.9905 152.266 16.0454C152.158 16.1003 152.066 16.1829 152.001 16.2849C151.935 16.3868 151.898 16.5044 151.893 16.6255C151.897 16.76 151.94 16.8903 152.018 17.0002C152.096 17.1101 152.204 17.1945 152.33 17.2429C152.435 17.2801 152.547 17.2911 152.657 17.2751C152.767 17.259 152.871 17.2164 152.961 17.1508C153.083 17.0599 153.173 16.9319 153.217 16.7858C153.247 16.68 153.247 16.6152 153.254 16.6152C153.268 16.6735 153.268 16.7343 153.254 16.7926C153.224 16.9559 153.136 17.1026 153.005 17.2053C152.895 17.2909 152.764 17.3439 152.625 17.3583C152.487 17.3727 152.347 17.3479 152.222 17.2867C152.097 17.2256 151.991 17.1306 151.918 17.0124C151.844 16.8943 151.805 16.7579 151.805 16.6186C151.805 16.4794 151.844 16.3429 151.918 16.2248C151.991 16.1067 152.097 16.0117 152.222 15.9505C152.347 15.8894 152.487 15.8646 152.625 15.879C152.764 15.8934 152.895 15.9464 153.005 16.0319C153.135 16.1347 153.226 16.2793 153.261 16.4412C153.274 16.4989 153.271 16.5588 153.254 16.6152Z" fill="#CFD8DC"/>
<path d="M152.541 17.4058C152.454 17.4067 152.368 17.3928 152.285 17.3649C152.176 17.329 152.075 17.2695 151.991 17.1906C151.907 17.1117 151.841 17.0152 151.798 16.9081C151.756 16.8009 151.737 16.6857 151.743 16.5705C151.75 16.4553 151.782 16.343 151.837 16.2415C151.892 16.1399 151.968 16.0517 152.061 15.983C152.153 15.9142 152.26 15.8667 152.373 15.8437C152.486 15.8207 152.603 15.8228 152.715 15.8499C152.827 15.877 152.932 15.9283 153.022 16.0004C153.16 16.1091 153.255 16.2623 153.292 16.4336C153.303 16.4945 153.303 16.557 153.292 16.6178C153.302 16.6788 153.302 16.741 153.292 16.802C153.255 16.9747 153.161 17.1295 153.023 17.2402C152.886 17.3509 152.714 17.4106 152.538 17.4092L152.541 17.4058ZM152.388 15.9356L152.306 15.9595C152.169 16.0082 152.051 16.098 151.968 16.2164C151.884 16.3349 151.84 16.4763 151.84 16.6212C151.84 16.7662 151.884 16.9075 151.968 17.026C152.051 17.1445 152.169 17.2342 152.306 17.283L152.405 17.3103L152.309 17.283C152.174 17.2327 152.058 17.1424 151.976 17.0241C151.894 16.9059 151.849 16.7653 151.849 16.6212C151.849 16.4772 151.894 16.3366 151.976 16.2183C152.058 16.1 152.174 16.0097 152.309 15.9595L152.388 15.9356ZM152.558 16.0004C152.482 15.9993 152.407 16.0132 152.337 16.0413C152.253 16.0731 152.178 16.1224 152.116 16.1858C152.053 16.2491 152.005 16.3252 151.975 16.4088C151.945 16.4924 151.932 16.5815 151.939 16.6702C151.946 16.7588 151.972 16.8449 152.016 16.9227C152.059 17.0004 152.118 17.068 152.19 17.1208C152.261 17.1736 152.343 17.2104 152.431 17.2287C152.518 17.247 152.607 17.2464 152.694 17.227C152.781 17.2075 152.863 17.1696 152.934 17.1158C153.048 17.0303 153.133 16.911 153.176 16.7747C153.187 16.7331 153.196 16.691 153.203 16.6485C153.201 16.6383 153.201 16.628 153.203 16.6178C153.201 16.6088 153.201 16.5995 153.203 16.5905C153.203 16.5632 153.203 16.5189 153.172 16.4643C153.131 16.3271 153.046 16.2072 152.93 16.1232C152.822 16.0441 152.692 16.0011 152.558 16.0004Z" fill="#CFD8DC"/>
</svg>
