<svg width="105" height="85" viewBox="0 0 105 85" fill="none" xmlns="http://www.w3.org/2000/svg">
<path d="M13.4461 26.9543C12.5763 26.9753 11.7287 27.2332 10.9946 27.7002C10.2605 28.1671 9.66773 28.8256 9.28011 29.6045C8.89249 30.3834 8.72472 31.2533 8.79487 32.1205C8.86502 32.9877 9.17043 33.8194 9.6782 34.5259L9.72298 34.5908L13.1102 39.1959C13.1794 39.2898 13.27 39.3656 13.3746 39.4171C13.4791 39.4685 13.5945 39.4941 13.711 39.4917C13.8275 39.4893 13.9417 39.4589 14.0441 39.4032C14.1464 39.3474 14.2338 39.2679 14.299 39.1713L17.3594 34.6199C17.937 33.7378 18.3355 32.8132 18.3355 31.7252C18.3342 31.089 18.206 30.4594 17.9583 29.8735C17.7106 29.2875 17.3485 28.7568 16.8931 28.3125C16.4378 27.8682 15.8984 27.5192 15.3065 27.286C14.7146 27.0528 14.0821 26.94 13.4461 26.9543ZM13.5602 35.2132C12.8491 35.2132 12.154 35.0023 11.5627 34.6072C10.9714 34.2121 10.5106 33.6506 10.2385 32.9936C9.96632 32.3366 9.89512 31.6137 10.0339 30.9163C10.1726 30.2188 10.515 29.5782 11.0179 29.0753C11.5207 28.5725 12.1613 28.23 12.8588 28.0913C13.5562 27.9526 14.2792 28.0238 14.9362 28.2959C15.5932 28.568 16.1547 29.0289 16.5498 29.6202C16.9448 30.2114 17.1557 30.9066 17.1557 31.6177C17.1557 32.5713 16.7769 33.4858 16.1026 34.1601C15.4283 34.8344 14.5138 35.2132 13.5602 35.2132Z" fill="#263F97"/>
<g opacity="0.3">
<path opacity="0.3" d="M13.4461 26.9543C12.5763 26.9753 11.7287 27.2332 10.9946 27.7002C10.2605 28.1671 9.66773 28.8256 9.28011 29.6045C8.89249 30.3834 8.72472 31.2533 8.79487 32.1205C8.86502 32.9877 9.17043 33.8194 9.6782 34.5259L9.72298 34.5908L13.1102 39.1959C13.1794 39.2898 13.27 39.3656 13.3746 39.4171C13.4791 39.4685 13.5945 39.4941 13.711 39.4917C13.8275 39.4893 13.9417 39.4589 14.0441 39.4032C14.1464 39.3474 14.2338 39.2679 14.299 39.1713L17.3594 34.6199C17.937 33.7378 18.3355 32.8132 18.3355 31.7252C18.3342 31.089 18.206 30.4594 17.9583 29.8735C17.7106 29.2875 17.3485 28.7568 16.8931 28.3125C16.4378 27.8682 15.8984 27.5192 15.3065 27.286C14.7146 27.0528 14.0821 26.94 13.4461 26.9543ZM13.5602 35.2132C12.8491 35.2132 12.154 35.0023 11.5627 34.6072C10.9714 34.2121 10.5106 33.6506 10.2385 32.9936C9.96632 32.3366 9.89512 31.6137 10.0339 30.9163C10.1726 30.2188 10.515 29.5782 11.0179 29.0753C11.5207 28.5725 12.1613 28.23 12.8588 28.0913C13.5562 27.9526 14.2792 28.0238 14.9362 28.2959C15.5932 28.568 16.1547 29.0289 16.5498 29.6202C16.9448 30.2114 17.1557 30.9066 17.1557 31.6177C17.1557 32.5713 16.7769 33.4858 16.1026 34.1601C15.4283 34.8344 14.5138 35.2132 13.5602 35.2132Z" fill="black"/>
</g>
<path d="M13.1639 26.9544C11.937 26.9872 10.7693 27.4889 9.90106 28.3563C9.03279 29.2237 8.52998 30.3909 8.49605 31.6178C8.46646 32.66 8.7812 33.6829 9.39156 34.5282L9.43858 34.5931L12.8236 39.1983C12.8923 39.294 12.9832 39.3717 13.0886 39.4245C13.1939 39.4773 13.3105 39.5038 13.4284 39.5016C13.5462 39.4994 13.6617 39.4686 13.765 39.4118C13.8683 39.3551 13.9563 39.2741 14.0213 39.1759L17.0818 34.6245C17.6616 33.7424 18.0579 32.8178 18.0579 31.7297C18.0571 31.0928 17.9292 30.4624 17.6815 29.8756C17.4338 29.2888 17.0714 28.7573 16.6155 28.3125C16.1596 27.8677 15.6195 27.5184 15.0267 27.2852C14.434 27.052 13.8007 26.9395 13.1639 26.9544ZM13.2758 34.5663C12.7375 34.5658 12.2114 34.4058 11.764 34.1064C11.3166 33.807 10.968 33.3816 10.7623 32.8842C10.5566 32.3867 10.503 31.8394 10.6083 31.3114C10.7136 30.7835 10.9731 30.2986 11.3539 29.9181C11.7347 29.5376 12.2198 29.2786 12.7478 29.1737C13.2758 29.0689 13.8231 29.1229 14.3204 29.329C14.8177 29.5351 15.2427 29.8841 15.5418 30.3317C15.8408 30.7793 16.0004 31.3056 16.0004 31.8439C16.0001 32.2014 15.9294 32.5554 15.7923 32.8855C15.6553 33.2157 15.4545 33.5157 15.2015 33.7683C14.9485 34.0208 14.6482 34.2211 14.3178 34.3577C13.9874 34.4942 13.6333 34.5643 13.2758 34.564V34.5663Z" fill="#263F97"/>
<path d="M88.4513 22.4185C87.7876 22.4331 87.1406 22.6287 86.5799 22.9842C86.0192 23.3396 85.5663 23.8414 85.27 24.4355C84.9737 25.0295 84.8452 25.6932 84.8985 26.3549C84.9517 27.0165 85.1847 27.6511 85.5723 28.1901L85.6081 28.2394L88.1894 31.7475C88.2421 31.8173 88.3105 31.8735 88.3891 31.9117C88.4678 31.9499 88.5543 31.9689 88.6417 31.9671C88.7291 31.9654 88.8148 31.9429 88.8919 31.9016C88.9689 31.8604 89.035 31.8014 89.0849 31.7296L91.4177 28.2617C91.8819 27.6181 92.1416 26.8498 92.1632 26.0566C92.1621 25.5729 92.0648 25.0942 91.8769 24.6485C91.6891 24.2028 91.4144 23.7989 91.069 23.4603C90.7236 23.1218 90.3142 22.8553 89.8648 22.6765C89.4154 22.4976 88.9349 22.4099 88.4513 22.4185ZM88.5386 28.714C87.997 28.714 87.4676 28.5535 87.0172 28.2528C86.5667 27.9521 86.2155 27.5246 86.0078 27.0244C85.8002 26.5242 85.7454 25.9737 85.8504 25.4424C85.9554 24.9111 86.2155 24.4228 86.5978 24.0392C86.9802 23.6556 87.4676 23.394 87.9986 23.2872C88.5295 23.1805 89.0802 23.2335 89.5811 23.4395C90.082 23.6455 90.5105 23.9954 90.8127 24.4448C91.1149 24.8943 91.2771 25.4232 91.2789 25.9648C91.2801 26.3254 91.2101 26.6827 91.0729 27.0162C90.9357 27.3497 90.734 27.6528 90.4795 27.9082C90.2249 28.1636 89.9224 28.3663 89.5894 28.5045C89.2563 28.6428 88.8992 28.714 88.5386 28.714Z" fill="#263F97"/>
<g opacity="0.3">
<path opacity="0.3" d="M88.4513 22.4185C87.7876 22.4331 87.1406 22.6287 86.5799 22.9842C86.0192 23.3396 85.5663 23.8414 85.27 24.4355C84.9737 25.0295 84.8452 25.6932 84.8985 26.3549C84.9517 27.0165 85.1847 27.6511 85.5723 28.1901L85.6081 28.2394L88.1894 31.7475C88.2421 31.8173 88.3105 31.8735 88.3891 31.9117C88.4678 31.9499 88.5543 31.9689 88.6417 31.9671C88.7291 31.9654 88.8148 31.9429 88.8919 31.9016C88.9689 31.8604 89.035 31.8014 89.0849 31.7296L91.4177 28.2617C91.8819 27.6181 92.1416 26.8498 92.1632 26.0566C92.1621 25.5729 92.0648 25.0942 91.8769 24.6485C91.6891 24.2028 91.4144 23.7989 91.069 23.4603C90.7236 23.1218 90.3142 22.8553 89.8648 22.6765C89.4154 22.4976 88.9349 22.4099 88.4513 22.4185ZM88.5386 28.714C87.997 28.714 87.4676 28.5535 87.0172 28.2528C86.5667 27.9521 86.2155 27.5246 86.0078 27.0244C85.8002 26.5242 85.7454 25.9737 85.8504 25.4424C85.9554 24.9111 86.2155 24.4228 86.5978 24.0392C86.9802 23.6556 87.4676 23.394 87.9986 23.2872C88.5295 23.1805 89.0802 23.2335 89.5811 23.4395C90.082 23.6455 90.5105 23.9954 90.8127 24.4448C91.1149 24.8943 91.2771 25.4232 91.2789 25.9648C91.2801 26.3254 91.2101 26.6827 91.0729 27.0162C90.9357 27.3497 90.734 27.6528 90.4795 27.9082C90.2249 28.1636 89.9224 28.3663 89.5894 28.5045C89.2563 28.6428 88.8992 28.714 88.5386 28.714Z" fill="black"/>
</g>
<path d="M88.2377 22.4188C87.5746 22.4346 86.9284 22.631 86.3686 22.987C85.8089 23.3429 85.357 23.8448 85.0614 24.4386C84.7659 25.0324 84.638 25.6956 84.6916 26.3568C84.7451 27.0179 84.9781 27.6519 85.3653 28.1904L85.3989 28.2396L87.978 31.7478C88.0307 31.8193 88.0998 31.8772 88.1795 31.9165C88.2592 31.9558 88.3471 31.9754 88.436 31.9736C88.5248 31.9718 88.6119 31.9488 88.69 31.9064C88.7681 31.864 88.8349 31.8034 88.8847 31.7299L91.2175 28.262C91.681 27.6182 91.94 26.8498 91.9608 26.0568C91.96 25.5721 91.8625 25.0924 91.6741 24.6458C91.4856 24.1992 91.21 23.7946 90.8633 23.4559C90.5166 23.1171 90.1058 22.8509 89.655 22.6728C89.2041 22.4947 88.7223 22.4084 88.2377 22.4188ZM88.3227 28.2195C87.9123 28.2195 87.511 28.0978 87.1697 27.8697C86.8285 27.6417 86.5625 27.3175 86.4054 26.9383C86.2483 26.5591 86.2072 26.1418 86.2873 25.7393C86.3674 25.3367 86.565 24.9669 86.8553 24.6766C87.1455 24.3864 87.5153 24.1887 87.9179 24.1087C88.3204 24.0286 88.7377 24.0697 89.117 24.2268C89.4962 24.3838 89.8203 24.6498 90.0483 24.9911C90.2764 25.3324 90.3981 25.7337 90.3981 26.1441C90.3984 26.4168 90.3449 26.6868 90.2407 26.9387C90.1365 27.1906 89.9837 27.4195 89.7909 27.6123C89.5981 27.8051 89.3692 27.9579 89.1173 28.0621C88.8654 28.1663 88.5954 28.2198 88.3227 28.2195Z" fill="#263F97"/>
<path d="M16.0674 44.1485L0.078125 83.8554L30.0575 78.9256L52.0445 83.8554L74.5621 78.9256L104.676 84.6703L88.5545 44.1485L70.5659 39.6172L52.3781 43.0828L33.7896 39.6172L16.0674 44.1485Z" fill="white"/>
<path d="M16.0654 44.1463L16.3587 44.068L17.2341 43.8441L20.6639 42.9598L33.7809 39.6016H33.7921L52.3739 43.056H52.3582L70.546 39.5859H70.5773L88.5637 44.1038H88.5905V44.1284L104.71 84.6502L104.75 84.7487L104.645 84.7286L89.1547 81.7734L74.531 78.9839H74.5556L52.0358 83.9092H52.0224L30.0376 78.9839H30.0555L0.0738795 83.9092L0 83.9204L0.0291039 83.851C4.97456 71.5914 8.9842 61.6647 11.7468 54.8029L14.9393 46.9067L15.7699 44.856C15.958 44.3948 16.0565 44.1598 16.0565 44.1598C16.0565 44.1598 15.9647 44.3993 15.7789 44.865L14.955 46.9246L11.7916 54.8208L0.116416 83.8689L0.0694019 83.8107L30.0555 78.8719H30.0757L52.0604 83.7972H52.0381L74.5556 78.8719H74.5668L89.1905 81.6615L104.681 84.6166L104.616 84.695L88.4965 44.1732L88.5323 44.2045L70.546 39.6688H70.5773L52.3828 43.1187H52.3672L33.7853 39.6441L20.6818 42.9844L17.2453 43.8553L16.3654 44.0792L16.0654 44.1463Z" fill="#263238"/>
<path d="M16.9994 45.2126L2.875 81.8546L29.9239 77.4576L52.3765 82.6538L74.5605 77.3256L102.142 82.6538L87.6193 45.2126L70.8307 41.082L52.3765 44.5477L33.5216 41.082L16.9994 45.2126Z" fill="white"/>
<path d="M4.44531 77.7891L25.9443 72.8078L25.1517 68.1781L26.9383 67.052L24.1577 56.2364L15.5608 48.9492L4.44531 77.7891Z" fill="#455A64"/>
<path d="M2.875 81.8548L3.92275 79.137L39.9715 70.7617L41.9282 76.1504L41.2946 77.2385L34.5245 78.5235L29.9239 77.4579L2.875 81.8548Z" fill="#B7BFD8"/>
<path d="M41.9258 70.2395L43.3564 75.57L47.5093 77.3744L53.4152 74.7506L65.8068 71.1417L61.9404 65.3164L41.9258 70.2395Z" fill="#B7BFD8"/>
<path d="M27.53 72.2192L34.2285 70.7662L32.8919 66.4141L28.0114 67.5917L26.7129 68.5096L27.53 72.2192Z" fill="#B7BFD8"/>
<path d="M26.1641 57.793L28.5954 65.7742L32.3968 64.9369L31.7117 61.872L40.0736 59.9982L26.1641 57.793Z" fill="#455A64"/>
<path d="M16.1934 47.3058L26.7134 55.7505L40.6788 58.399L55.5756 54.696L48.7765 43.885L33.5215 41.082L16.9993 45.2126L16.1934 47.3058Z" fill="#EBEBEB"/>
<path d="M50.8105 44.2578L72.6498 77.7835L74.5595 77.3245L53.421 44.3496L52.3754 44.5466L50.8105 44.2578Z" fill="#B7BFD8"/>
<path d="M33.1191 62.7108L35.8863 70.7592L60.4546 64.4816L55.9076 56.7422L33.1191 62.7108Z" fill="#B7BFD8"/>
<path d="M46.7852 81.3602L47.0247 81.0043L48.6389 78.6065L52.5097 77.3752L55.1738 75.3693L66.7192 72.2148L70.3057 78.3468L52.3776 82.6542" fill="#B7BFD8"/>
<path d="M67.2383 41.7559L73.0233 48.1924L87.6201 45.2126L70.8315 41.082L67.2383 41.7559Z" fill="#B7BFD8"/>
<path d="M90.689 53.1339L79.9697 56.1137L74.5586 48.9474L87.9823 46.1602L90.689 53.1339Z" fill="#B7BFD8"/>
<path d="M54.5684 44.1363L65.8092 60.2823L78.7807 56.5592L65.8092 42.0273L54.5684 44.1363Z" fill="#B7BFD8"/>
<path d="M85.9922 79.5368L98.9614 74.457L102.143 82.6577L85.9922 79.5368Z" fill="#B7BFD8"/>
<path d="M72.4258 59.3146L79.4734 57.4766L86.9174 66.4093L79.6727 68.8137L72.4258 59.3146Z" fill="#455A64"/>
<path d="M81.0586 56.7427L88.901 65.7336L94.8069 63.7501L90.9226 53.7383L81.0586 56.7427Z" fill="#B7BFD8"/>
<path d="M86.9152 77.4325L81.0586 69.308L95.2144 64.7969L98.089 72.2117L96.2442 74.0676L86.9152 77.4325Z" fill="#455A64"/>
<path d="M66.4941 61.4598L77.2537 77.7782L83.8805 79.1193L85.1297 78.5484L71.4956 59.9531L66.4941 61.4598Z" fill="#B7BFD8"/>
<path d="M22.4025 73.6238L19.7227 61.0195L10.2706 62.6717L4.44531 77.7835L22.4025 73.6238Z" fill="#B7BFD8"/>
<path d="M31.0924 41.6914V47.463L33.1163 47.7182L38.7669 54.3002L43.6251 53.7427L45.9377 57.0942L40.6788 58.4016L26.7134 55.7531L16.1934 47.3085L16.9993 45.2152L31.0924 41.6914Z" fill="#455A64"/>
<path d="M60.6367 43.0482L68.5732 54.6294L75.4104 52.7824L65.8105 42.0273L60.6367 43.0482Z" fill="#B7BFD8"/>
<path d="M83.9309 55.007L81.0586 50.5182L88.8227 48.3242L90.6876 53.1286L83.9309 55.007Z" fill="#EBEBEB"/>
<path d="M72.4258 70.457L76.1847 69.1562L83.4741 79.0382L77.2548 77.78L72.4258 70.457Z" fill="#EBEBEB"/>
<path d="M37.7578 79.2775L41.2525 78.8521L42.4167 77.1484L46.7823 78.5208L45.6405 81.1021L37.7578 79.2775Z" fill="#455A64"/>
<path d="M16.9999 45.2244L18.0879 44.9446L21.2849 44.1386L33.5153 41.0648H33.5265L52.3837 44.5192H52.368L70.8223 41.0469H70.8424L87.6332 45.1729H87.6578V45.1998C92.1152 56.6422 97.0249 69.3047 102.196 82.6343L102.234 82.7328L102.132 82.7127L88.2937 80.0396L74.5498 77.3822H74.5744L52.3904 82.7105H52.3636L29.9131 77.5098H29.9333L2.88219 81.8978L2.81055 81.909L2.83517 81.8396C7.2075 70.5226 10.747 61.3615 13.1917 55.0303C14.4164 51.8691 15.3656 49.4132 16.0104 47.7475L16.7469 45.8558C16.9126 45.4282 16.9999 45.2132 16.9999 45.2132C16.9999 45.2132 16.9171 45.4371 16.7536 45.8647L16.0283 47.7632L13.2276 55.0616L2.91577 81.8709L2.86876 81.8149L29.9154 77.409H29.9355L52.3882 82.612H52.3636L74.5476 77.2814H74.561L88.316 79.9254L102.145 82.5985L102.08 82.6769C96.9107 69.345 92.0055 56.6914 87.5616 45.2334L87.5974 45.2647L70.8066 41.1297H70.8267L52.3703 44.5864H52.3546L33.5041 41.1118L21.3028 44.1521L18.0991 44.9468L16.9999 45.2244Z" fill="#263238"/>
<g opacity="0.2">
<path opacity="0.2" d="M52.0417 83.8554L52.3753 43.0828L33.7867 39.6172L30.0547 78.9256L52.0417 83.8554Z" fill="#B7BFD8"/>
</g>
<g opacity="0.2">
<path opacity="0.2" d="M70.5645 39.6172L74.5607 78.9256L104.674 84.6703L88.553 44.1485L70.5645 39.6172Z" fill="#B7BFD8"/>
</g>
<path d="M52.5185 0.00724664C39.5336 0.309481 28.942 10.8944 28.633 23.8793C28.4963 29.2095 30.1126 34.4374 33.2337 38.7604L33.4732 39.0851L33.5068 39.1321L50.8349 62.7019C51.1885 63.1826 51.6525 63.5713 52.1877 63.8351C52.723 64.0989 53.3139 64.2301 53.9105 64.2176C54.5072 64.2051 55.092 64.0492 55.6158 63.7632C56.1396 63.4772 56.5868 63.0694 56.9199 62.5743L72.5913 39.291C75.5555 34.7687 77.5883 30.0449 77.5883 24.4748C77.5884 21.2106 76.9355 17.9794 75.668 14.9714C74.4006 11.9633 72.5443 9.23915 70.2083 6.95926C67.8723 4.67937 65.1038 2.8898 62.0658 1.69588C59.0278 0.501965 55.7817 -0.072178 52.5185 0.00724664ZM53.1006 42.2731C49.4612 42.2735 45.9034 41.1947 42.8772 39.1731C39.851 37.1515 37.4922 34.2779 36.0991 30.9157C34.7061 27.5535 34.3414 23.8537 35.0511 20.2842C35.7609 16.7147 37.5132 13.4358 40.0864 10.8623C42.6597 8.28869 45.9383 6.53599 49.5078 5.82582C53.0772 5.11565 56.777 5.47991 60.1394 6.87254C63.5018 8.26516 66.3757 10.6236 68.3976 13.6496C70.4196 16.6756 71.4988 20.2332 71.4988 23.8726C71.4988 28.7523 69.5605 33.4322 66.1102 36.8829C62.66 40.3336 57.9803 42.2725 53.1006 42.2731Z" fill="#263F97"/>
<g opacity="0.3">
<path opacity="0.3" d="M52.5185 0.460372C39.5336 0.762606 28.942 11.3475 28.633 24.3324C28.4963 29.6627 30.1126 34.8905 33.2337 39.2136L33.4732 39.5382L33.5068 39.5852L50.8349 63.155C51.1885 63.6358 51.6525 64.0245 52.1877 64.2882C52.723 64.552 53.3139 64.6832 53.9105 64.6707C54.5072 64.6582 55.092 64.5024 55.6158 64.2164C56.1396 63.9303 56.5868 63.5226 56.9199 63.0274L72.5913 39.7441C75.5555 35.2218 77.5883 30.498 77.5883 24.9279C77.5884 21.6638 76.9355 18.4326 75.668 15.4245C74.4006 12.4164 72.5443 9.69227 70.2083 7.41238C67.8723 5.13249 65.1038 3.34292 62.0658 2.14901C59.0278 0.95509 55.7817 0.380947 52.5185 0.460372ZM53.1006 42.7262C49.4612 42.7266 45.9034 41.6478 42.8772 39.6262C39.851 37.6046 37.4922 34.731 36.0991 31.3688C34.7061 28.0066 34.3414 24.3068 35.0511 20.7373C35.7609 17.1678 37.5132 13.889 40.0864 11.3154C42.6597 8.74181 45.9383 6.98911 49.5078 6.27894C53.0772 5.56878 56.777 5.93304 60.1394 7.32566C63.5018 8.71828 66.3757 11.0767 68.3976 14.1027C70.4196 17.1287 71.4988 20.6863 71.4988 24.3257C71.4988 29.2054 69.5605 33.8853 66.1102 37.336C62.66 40.7867 57.9803 42.7256 53.1006 42.7262Z" fill="black"/>
</g>
<path d="M51.0693 0.452559C38.0844 0.754794 27.4927 11.3397 27.1838 24.3246C27.0471 29.6549 28.6633 34.8827 31.7845 39.2057L32.024 39.5304L32.0576 39.5774L49.3857 63.1472C49.7393 63.628 50.2032 64.0166 50.7385 64.2804C51.2738 64.5442 51.8647 64.6754 52.4613 64.6629C53.058 64.6504 53.6428 64.4946 54.1666 64.2085C54.6903 63.9225 55.1376 63.5147 55.4707 63.0196L71.1421 39.7363C74.1063 35.214 76.1391 30.4902 76.1391 24.9201C76.1391 21.656 75.4862 18.4247 74.2188 15.4167C72.9514 12.4086 71.0951 9.68446 68.7591 7.40457C66.4231 5.12468 63.6546 3.33511 60.6166 2.14119C57.5786 0.947278 54.3325 0.373135 51.0693 0.452559ZM51.6514 42.7184C48.012 42.7188 44.4542 41.64 41.428 39.6184C38.4017 37.5968 36.043 34.7232 34.6499 31.361C33.2569 27.9988 32.8922 24.299 33.6019 20.7295C34.3117 17.16 36.064 13.8812 38.6372 11.3076C41.2105 8.734 44.4891 6.9813 48.0585 6.27113C51.6279 5.56096 55.3278 5.92522 58.6902 7.31785C62.0525 8.71047 64.9264 11.0689 66.9484 14.0949C68.9704 17.1209 70.0496 20.6785 70.0496 24.3179C70.0496 29.1976 68.1113 33.8775 64.661 37.3282C61.2107 40.7789 56.5311 42.7178 51.6514 42.7184Z" fill="#263F97"/>
</svg>
