<svg width="1437drrr" height="529" viewBox="0 0 1437 529" fill="none" xmlns="http://www.w3.org/2000/svg">
<g clip-path="url(#clip0)">
<rect width="1440" height="529" fill="#263F97"/>
<path d="M181.928 457.747L97.2289 475.578L21 448.831L105.699 431L181.928 457.747Z" fill="#162A6D"/>
<path d="M181.928 457.747L136.458 466.663L60.2289 439.916L105.699 431L181.928 457.747Z" fill="#7C93E2"/>
<path d="M97.2301 475.578L136.459 462.204L60.2301 435.457L21.0012 448.831L97.2301 475.578Z" fill="#4E67BE"/>
<path d="M181.929 457.746L97.2299 475.577V573.65L181.929 555.818V457.746Z" fill="#344EA9"/>
<path d="M21.4464 448.832L97.2295 475.579V573.651L21.4464 546.904V448.832Z" fill="#152A74"/>
<circle cx="307.728" cy="236.728" r="2.72832" fill="#6D80C6"/>
<circle cx="330.237" cy="236.728" r="2.72832" fill="#6D80C6"/>
<circle cx="352.746" cy="236.728" r="2.72832" fill="#6D80C6"/>
<circle cx="375.255" cy="236.728" r="2.72832" fill="#6D80C6"/>
<circle cx="397.763" cy="236.728" r="2.72832" fill="#6D80C6"/>
<circle cx="420.271" cy="236.728" r="2.72832" fill="#6D80C6"/>
<circle cx="307.728" cy="258.185" r="2.72832" fill="#6D80C6"/>
<circle cx="330.237" cy="258.185" r="2.72832" fill="#6D80C6"/>
<circle cx="352.746" cy="258.185" r="2.72832" fill="#6D80C6"/>
<circle cx="375.255" cy="258.185" r="2.72832" fill="#6D80C6"/>
<circle cx="397.763" cy="258.185" r="2.72832" fill="#6D80C6"/>
<circle cx="420.271" cy="258.185" r="2.72832" fill="#6D80C6"/>
<circle cx="307.728" cy="279.642" r="2.72832" fill="#6D80C6"/>
<circle cx="330.237" cy="279.642" r="2.72832" fill="#6D80C6"/>
<circle cx="352.746" cy="279.642" r="2.72832" fill="#6D80C6"/>
<circle cx="375.255" cy="279.642" r="2.72832" fill="#6D80C6"/>
<circle cx="397.763" cy="279.642" r="2.72832" fill="#6D80C6"/>
<circle cx="420.271" cy="279.642" r="2.72832" fill="#6D80C6"/>
<circle cx="307.728" cy="301.097" r="2.72832" fill="#6D80C6"/>
<circle cx="330.237" cy="301.097" r="2.72832" fill="#6D80C6"/>
<circle cx="352.746" cy="301.097" r="2.72832" fill="#6D80C6"/>
<circle cx="375.255" cy="301.097" r="2.72832" fill="#6D80C6"/>
<circle cx="397.763" cy="301.097" r="2.72832" fill="#6D80C6"/>
<circle cx="420.271" cy="301.097" r="2.72832" fill="#6D80C6"/>
<circle cx="307.728" cy="322.555" r="2.72832" fill="#6D80C6"/>
<circle cx="330.237" cy="322.555" r="2.72832" fill="#6D80C6"/>
<circle cx="352.746" cy="322.555" r="2.72832" fill="#6D80C6"/>
<circle cx="375.255" cy="322.555" r="2.72832" fill="#6D80C6"/>
<circle cx="397.763" cy="322.555" r="2.72832" fill="#6D80C6"/>
<circle cx="420.271" cy="322.555" r="2.72832" fill="#6D80C6"/>
<circle cx="307.728" cy="344.012" r="2.72832" fill="#6D80C6"/>
<circle cx="330.237" cy="344.012" r="2.72832" fill="#6D80C6"/>
<circle cx="352.746" cy="344.012" r="2.72832" fill="#6D80C6"/>
<circle cx="375.255" cy="344.012" r="2.72832" fill="#6D80C6"/>
<circle cx="397.763" cy="344.012" r="2.72832" fill="#6D80C6"/>
<circle cx="420.271" cy="344.012" r="2.72832" fill="#6D80C6"/>
<circle cx="307.728" cy="365.469" r="2.72832" fill="#6D80C6"/>
<circle cx="330.237" cy="365.469" r="2.72832" fill="#6D80C6"/>
<circle cx="352.746" cy="365.469" r="2.72832" fill="#6D80C6"/>
<circle cx="375.255" cy="365.469" r="2.72832" fill="#6D80C6"/>
<circle cx="397.763" cy="365.469" r="2.72832" fill="#6D80C6"/>
<circle cx="420.271" cy="365.469" r="2.72832" fill="#6D80C6"/>
<g filter="url(#filter0_f)">
<path d="M1463.76 489.811L1262.48 479.324L1176 525.473L1380 556.499L1524.11 567.143L1620 494.197L1463.76 489.811Z" fill="url(#paint0_linear)"/>
</g>
<path d="M1177.78 428.952L1262.48 446.783L1338.71 420.036L1254.01 402.205L1177.78 428.952Z" fill="#162A6D"/>
<path d="M1177.78 428.952L1223.25 437.868L1299.48 411.121L1254.01 402.205L1177.78 428.952Z" fill="#7C93E2"/>
<path d="M1262.48 446.783L1223.25 433.409L1299.48 406.662L1338.71 420.036L1262.48 446.783Z" fill="#4E67BE"/>
<path d="M1177.78 428.951L1262.48 446.782V544.855L1177.78 527.023V428.951Z" fill="#344EA9"/>
<path d="M1338.26 420.037L1262.48 446.784V544.856L1338.26 518.109V420.037Z" fill="#152A74"/>
<path d="M1280.31 439.651L1365.01 457.483L1441.24 430.736L1356.54 412.904L1280.31 439.651Z" fill="#162A6D"/>
<path d="M1280.31 439.651L1325.78 448.567L1402.01 421.82L1356.54 412.904L1280.31 439.651Z" fill="#7C93E2"/>
<path d="M1365.01 457.482L1325.78 444.108L1402.01 417.361L1441.24 430.735L1365.01 457.482Z" fill="#4E67BE"/>
<path d="M1280.31 439.65L1365.01 457.482V555.554L1280.31 537.723V439.65Z" fill="#344EA9"/>
<path d="M1440.79 430.736L1365.01 457.483V555.556L1440.79 528.809V430.736Z" fill="#152A74"/>
<g filter="url(#filter1_f)">
<path d="M1402.05 413.13L1296.01 406.445L1251 421L1344.5 442L1374 456L1436.5 426L1402.05 413.13Z" fill="url(#paint1_linear)"/>
</g>
<path d="M1260.7 323.747L1345.4 341.578L1421.63 314.831L1336.93 297L1260.7 323.747Z" fill="#162A6D"/>
<path d="M1260.7 323.747L1306.17 332.663L1382.4 305.916L1336.93 297L1260.7 323.747Z" fill="#7C93E2"/>
<path d="M1345.4 341.578L1306.17 328.204L1382.4 301.457L1421.63 314.831L1345.4 341.578Z" fill="#4E67BE"/>
<path d="M1260.7 323.746L1345.4 341.577V439.65L1260.7 421.818V323.746Z" fill="#344EA9"/>
<path d="M1421.18 314.832L1345.4 341.579V439.651L1421.18 412.904V314.832Z" fill="#152A74"/>
</g>
<defs>
<filter id="filter0_f" x="1127.86" y="431.18" width="540.289" height="184.108" filterUnits="userSpaceOnUse" color-interpolation-filters="sRGB">
<feFlood flood-opacity="0" result="BackgroundImageFix"/>
<feBlend mode="normal" in="SourceGraphic" in2="BackgroundImageFix" result="shape"/>
<feGaussianBlur stdDeviation="24.0723" result="effect1_foregroundBlur"/>
</filter>
<filter id="filter1_f" x="1247" y="402.445" width="193.5" height="57.5542" filterUnits="userSpaceOnUse" color-interpolation-filters="sRGB">
<feFlood flood-opacity="0" result="BackgroundImageFix"/>
<feBlend mode="normal" in="SourceGraphic" in2="BackgroundImageFix" result="shape"/>
<feGaussianBlur stdDeviation="2" result="effect1_foregroundBlur"/>
</filter>
<linearGradient id="paint0_linear" x1="1233.06" y1="523.011" x2="1481.36" y2="590.324" gradientUnits="userSpaceOnUse">
<stop stop-color="#060924"/>
<stop offset="1" stop-color="#080B2E" stop-opacity="0"/>
</linearGradient>
<linearGradient id="paint1_linear" x1="1270.45" y1="437.421" x2="1396.23" y2="465.461" gradientUnits="userSpaceOnUse">
<stop stop-color="#263F97"/>
<stop offset="1" stop-color="#263F97" stop-opacity="0"/>
</linearGradient>
<clipPath id="clip0">
<rect width="1437" height="529" fill="white"/>
</clipPath>
</defs>
</svg>
