<svg width="18" height="18" viewBox="0 0 18 18" fill="none" xmlns="http://www.w3.org/2000/svg">
<circle cx="9" cy="9" r="9" fill="#E3E4ED"/>
<path d="M9.638 12.3945H8.504V7.93053H9.638V12.3945ZM8.27 6.63453C8.27 6.40653 8.345 6.22053 8.495 6.07653C8.651 5.93253 8.843 5.86053 9.071 5.86053C9.299 5.86053 9.488 5.93253 9.638 6.07653C9.794 6.22053 9.872 6.40653 9.872 6.63453C9.872 6.86253 9.794 7.04853 9.638 7.19253C9.488 7.33653 9.299 7.40853 9.071 7.40853C8.843 7.40853 8.651 7.33653 8.495 7.19253C8.345 7.04853 8.27 6.86253 8.27 6.63453Z" fill="#263F97"/>
</svg>
