<svg width="30" height="30" viewBox="0 0 30 30" fill="none" xmlns="http://www.w3.org/2000/svg">
<g clip-path="url(#clip0)">
<path d="M8.99072 14.0866C8.99072 17.6344 11.8667 20.5104 15.4145 20.5104C18.9623 20.5104 21.8383 17.6344 21.8383 14.0866C21.8383 10.5389 18.9623 7.66284 15.4145 7.66284C11.8685 7.66682 8.9947 10.5406 8.99072 14.0866ZM15.4145 14.4925C14.3485 14.4985 13.4452 13.709 13.3089 12.6517C13.1725 11.5947 13.8457 10.6015 14.8784 10.3369V9.79383C14.8784 9.54789 15.0776 9.34866 15.3236 9.34866C15.5695 9.34866 15.7688 9.54789 15.7688 9.79383V10.3098C16.7789 10.4807 17.5162 11.3589 17.5097 12.3837C17.5097 12.6266 17.3127 12.8236 17.0698 12.8236C16.8268 12.8236 16.6298 12.6266 16.6298 12.3837C16.6291 11.7112 16.0835 11.1666 15.411 11.1674C14.7385 11.1681 14.194 11.7139 14.195 12.3864C14.1957 13.0586 14.7415 13.6032 15.414 13.6022C16.5044 13.6084 17.4099 14.4451 17.502 15.5317C17.5942 16.6181 16.8425 17.5954 15.7688 17.7852V18.3158C15.7688 18.5618 15.5695 18.761 15.3236 18.761C15.0776 18.761 14.8784 18.5618 14.8784 18.3158V17.7579C13.9481 17.5122 13.2979 16.6735 13.2917 15.7113C13.2917 15.4627 13.4934 15.2609 13.7421 15.2609C13.9908 15.2609 14.1925 15.4627 14.1925 15.7113C14.194 16.3331 14.6625 16.8546 15.2806 16.9224C15.3035 16.9187 15.3268 16.9169 15.3502 16.9167C15.3837 16.9167 15.417 16.9207 15.4498 16.9281C16.1176 16.9117 16.6474 16.3607 16.6378 15.6929C16.6281 15.0249 16.0823 14.4896 15.4145 14.4925Z" fill="#FF756C"/>
<path d="M25.7236 23.5735C25.7204 23.5753 25.7169 23.577 25.7132 23.5787L21.5806 25.5311C21.6251 25.7599 21.6444 25.9927 21.6382 26.2257C21.6318 26.4667 21.4345 26.6587 21.1935 26.6587C21.1893 26.6587 21.1851 26.6587 21.1809 26.6587L15.1327 26.4923C14.8868 26.4856 14.693 26.2809 14.6997 26.0349C14.7064 25.789 14.9114 25.5952 15.1571 25.6019L20.7166 25.755C20.5322 24.6775 19.6136 23.8796 18.521 23.8478L14.8418 23.7467C14.1152 23.7258 13.4027 23.5417 12.757 23.2081L12.3826 23.0143C10.544 22.0564 8.32858 22.1811 6.60923 23.3395L6.46191 28.6918L7.09416 28.3532C7.72243 28.0154 8.45752 27.9349 9.14416 28.1289L15.3881 29.8816C16.5915 30.128 17.842 29.9884 18.9614 29.4821L27.6119 23.8865C27.1182 23.3812 26.3538 23.2543 25.7236 23.5735Z" fill="#FF756C"/>
<path d="M2.39941 29.6212L2.61877 21.658L5.76334 21.7447L5.54399 29.7079L2.39941 29.6212Z" fill="#FF756C"/>
<path d="M15.8323 5.27854V0.445178C15.8323 0.199237 15.633 0 15.3871 0C15.1411 0 14.9419 0.199237 14.9419 0.445178V5.27854C14.9419 5.52449 15.1411 5.72372 15.3871 5.72372C15.633 5.72372 15.8323 5.52449 15.8323 5.27854Z" fill="#FF756C"/>
<path d="M19.6487 5.27855V2.98906C19.6487 2.74312 19.4494 2.54388 19.2035 2.54388C18.9575 2.54388 18.7583 2.74312 18.7583 2.98906V5.27855C18.7583 5.52449 18.9575 5.72373 19.2035 5.72373C19.4494 5.72373 19.6487 5.52449 19.6487 5.27855Z" fill="#FF756C"/>
<path d="M12.0163 5.27855V2.98906C12.0163 2.74312 11.8171 2.54388 11.5712 2.54388C11.3252 2.54388 11.126 2.74312 11.126 2.98906V5.27855C11.126 5.52449 11.3252 5.72373 11.5712 5.72373C11.8171 5.72373 12.0163 5.52449 12.0163 5.27855Z" fill="#FF756C"/>
</g>
<defs>
<clipPath id="clip0">
<rect width="30" height="30" fill="white"/>
</clipPath>
</defs>
</svg>
