<svg width="21" height="13" viewBox="0 0 21 13" fill="none" xmlns="http://www.w3.org/2000/svg">
<path d="M15.3772 0.0473022H12.9675L12.5967 3.59609H15.0064L15.3772 0.0473022Z" fill="#909DCA"/>
<path d="M19.3959 0H16.679L16.2291 4.30762C16.1947 4.6359 15.918 4.88555 15.588 4.88555H11.8824C11.4987 4.88555 11.2014 4.55172 11.2417 4.17398L11.6778 0H8.75165C7.93653 0 7.25118 0.611016 7.15794 1.42141L6.03173 11.1878C5.92224 12.1371 6.66448 12.9766 7.62544 12.9766H18.2701C19.0852 12.9766 19.7701 12.366 19.8638 11.5556L20.9896 1.78922C21.0994 0.83643 20.354 0 19.3959 0Z" fill="#909DCA"/>
<path d="M4.15552 8.59802H-0.355469C-0.711422 8.59802 -1 8.8866 -1 9.24255C-1 9.59851 -0.711422 9.88708 -0.355469 9.88708H4.15552C4.51147 9.88708 4.80005 9.59851 4.80005 9.24255C4.80005 8.8866 4.51152 8.59802 4.15552 8.59802Z" fill="#909DCA"/>
<path d="M4.15545 5.84808H0.374023C0.0180703 5.84808 -0.270508 6.13666 -0.270508 6.49261C-0.270508 6.84856 0.0180703 7.13714 0.374023 7.13714H4.15545C4.5114 7.13714 4.79998 6.84856 4.79998 6.49261C4.79998 6.13666 4.51144 5.84808 4.15545 5.84808Z" fill="#909DCA"/>
<path d="M4.15589 3.09808H1.06201C0.706059 3.09808 0.41748 3.38666 0.41748 3.74261C0.41748 4.09857 0.706059 4.38715 1.06201 4.38715H4.15589C4.51184 4.38715 4.80042 4.09857 4.80042 3.74261C4.80042 3.38666 4.51189 3.09808 4.15589 3.09808Z" fill="#909DCA"/>
</svg>
