<svg width="23" height="22" viewBox="0 0 23 22" fill="none" xmlns="http://www.w3.org/2000/svg">
<g opacity="0.8" clip-path="url(#clip0)">
<path d="M20.1582 0.902344H3.6582C2.14204 0.902344 0.908203 2.13618 0.908203 3.65234V18.319C0.908203 19.8351 2.14204 21.069 3.6582 21.069H20.1582C21.6744 21.069 22.9082 19.8351 22.9082 18.319V3.65234C22.9082 2.13618 21.6744 0.902344 20.1582 0.902344ZM20.1582 19.2357H3.6582C3.15315 19.2357 2.74159 18.825 2.74159 18.319V5.48573H21.0748V18.319C21.0748 18.825 20.6633 19.2357 20.1582 19.2357Z" fill="#7484BD"/>
<path d="M15.3026 13.2489C15.3211 13.1067 15.3458 12.9656 15.3458 12.8189C15.3458 12.6713 15.3201 12.531 15.3026 12.389L16.1286 11.7638C16.3129 11.6245 16.3642 11.3697 16.2486 11.1689L15.5071 9.88559C15.3916 9.68568 15.145 9.60243 14.9323 9.69223L13.9818 10.0927C13.7499 9.9158 13.5033 9.76004 13.2311 9.64641L13.1045 8.63715C13.0751 8.40787 12.8808 8.23566 12.6498 8.23566H11.1675C10.9366 8.23566 10.7414 8.40787 10.7128 8.63715L10.5865 9.64641C10.3142 9.76004 10.0666 9.91681 9.83568 10.0927L8.88516 9.69223C8.6715 9.60243 8.42493 9.68484 8.30945 9.88559L7.56874 11.1689C7.45326 11.3689 7.50462 11.6236 7.68875 11.7638L8.51473 12.389C8.49643 12.531 8.47075 12.6713 8.47075 12.8189C8.47075 12.9666 8.49643 13.1067 8.51389 13.2489L7.68791 13.874C7.50362 14.0133 7.45226 14.2682 7.5679 14.469L8.30945 15.7523C8.42493 15.9521 8.6715 16.0355 8.88416 15.9457L9.83467 15.5442C10.0666 15.7211 10.3132 15.8769 10.5855 15.9907L10.712 16.9998C10.7414 17.2299 10.9357 17.4023 11.1667 17.4023H12.649C12.8799 17.4023 13.0751 17.2299 13.1037 17.0008L13.23 15.9915C13.5023 15.8779 13.7499 15.7211 13.9808 15.545L14.9313 15.9457C15.1442 16.0355 15.3907 15.9531 15.5062 15.7523L16.2478 14.468C16.3632 14.2682 16.3119 14.0133 16.1278 13.8731L15.3026 13.2489ZM11.9083 14.6523C10.8953 14.6523 10.0749 13.8318 10.0749 12.8189C10.0749 11.8061 10.8953 10.9857 11.9083 10.9857C12.9212 10.9857 13.7416 11.8061 13.7416 12.8189C13.7416 13.8318 12.9212 14.6523 11.9083 14.6523Z" fill="#7484BD"/>
</g>
<defs>
<clipPath id="clip0">
<rect width="22" height="22" fill="white" transform="translate(0.908203)"/>
</clipPath>
</defs>
</svg>
