<svg width="193" height="162" viewBox="0 0 193 162" fill="none" xmlns="http://www.w3.org/2000/svg">
<g opacity="0.6" clip-path="url(#clip0)">
<path d="M174.618 45.6539C175.131 44.8031 175.44 43.8459 175.521 42.8566C175.602 41.8674 175.453 40.8728 175.086 39.9502C174.719 39.0276 174.143 38.2018 173.404 37.5371C172.664 36.8723 171.781 36.3866 170.823 36.1175C169.864 35.8484 168.856 35.8033 167.878 35.9857C166.899 36.1681 165.975 36.573 165.179 37.169C164.383 37.7651 163.735 38.5361 163.287 39.4222C162.838 40.3083 162.6 41.2856 162.592 42.2781V42.3066C162.592 42.7938 162.704 43.2062 162.749 43.7455L163.413 49.9311C163.433 50.1104 163.494 50.2827 163.592 50.4345C163.69 50.5862 163.822 50.7134 163.977 50.8059C164.132 50.8985 164.307 50.9539 164.488 50.9679C164.668 50.9819 164.849 50.954 165.017 50.8865L170.705 48.5888C171.198 48.4215 171.682 48.2266 172.153 48.005H172.175C173.185 47.4531 174.029 46.6412 174.618 45.6539ZM167.612 44.7503C167.127 44.4614 166.74 44.0357 166.498 43.5272C166.257 43.0188 166.172 42.4503 166.254 41.8937C166.337 41.3371 166.583 40.8175 166.962 40.4005C167.341 39.9835 167.836 39.6879 168.383 39.5511C168.931 39.4143 169.507 39.4424 170.038 39.6319C170.57 39.8214 171.033 40.1637 171.369 40.6156C171.705 41.0675 171.9 41.6087 171.927 42.1707C171.955 42.7326 171.815 43.2901 171.524 43.7726C171.135 44.4189 170.505 44.8849 169.772 45.0682C169.038 45.2515 168.262 45.1372 167.613 44.7503H167.612Z" fill="#FE756C"/>
<path d="M82.2598 51.7444L68.1782 54.8651L78.0992 99.3424L92.1808 96.2217L82.2598 51.7444Z" fill="#F5F5F5"/>
<path d="M82.2595 51.7448L75.2188 53.3051L85.1131 97.6629L92.1539 96.1025L82.2595 51.7448Z" fill="#EBEBEB"/>
<path d="M73.7839 49.0413L68.811 50.1434L69.7848 54.5087L74.7576 53.4066L73.7839 49.0413Z" fill="#F5F5F5"/>
<path d="M73.7834 49.0416L72.5967 49.3046L73.5704 53.6699L74.7572 53.4069L73.7834 49.0416Z" fill="#EBEBEB"/>
<path d="M67.0064 55.1195L66.9492 54.8667L82.6153 51.3865L82.6725 51.6394" fill="#E0E0E0"/>
<path d="M72.5717 55.891L71.3813 56.1548L71.9398 58.6587L73.1302 58.3949L72.5717 55.891Z" fill="#FAFAFA"/>
<path d="M76.4291 58.7065C76.4291 58.7324 74.8625 59.1056 72.9191 59.5357C70.9756 59.9658 69.3942 60.2794 69.3867 60.2794C69.3793 60.2794 70.9533 59.8803 72.8968 59.4502C74.8402 59.02 76.4216 58.6629 76.4291 58.7065Z" fill="#E0E0E0"/>
<path d="M79.6821 54.2966L78.4917 54.5617L79.0528 57.0655L80.2432 56.8005L79.6821 54.2966Z" fill="#E0E0E0"/>
<path d="M83.5307 57.1124C83.5307 57.1384 81.9641 57.5115 80.0206 57.9416C78.0772 58.3718 76.4957 58.7038 76.4883 58.6853C76.4809 58.6668 78.0549 58.2862 79.9983 57.8561C81.9418 57.426 83.5232 57.0865 83.5307 57.1124Z" fill="#E0E0E0"/>
<path d="M80.7949 59.2715L79.6045 59.5365L80.1656 62.0404L81.356 61.7753L80.7949 59.2715Z" fill="#E0E0E0"/>
<path d="M84.643 62.0869C84.643 62.1129 83.0764 62.486 81.1329 62.9161C79.1895 63.3463 77.608 63.6598 77.6006 63.6598C77.5932 63.6598 79.1672 63.2608 81.1106 62.8306C83.0541 62.4005 84.6355 62.0533 84.643 62.0869Z" fill="#E0E0E0"/>
<path d="M81.9419 64.3949L80.7515 64.6599L81.3125 67.1637L82.5029 66.8987L81.9419 64.3949Z" fill="#E0E0E0"/>
<path d="M85.789 67.2102C85.789 67.2362 84.2224 67.6093 82.2789 68.0394C80.3355 68.4696 78.754 68.7831 78.7466 68.7831C78.7392 68.7831 80.3132 68.384 82.2566 67.9539C84.2001 67.5238 85.7804 67.1806 85.789 67.2102Z" fill="#E0E0E0"/>
<path d="M83.0893 69.5184L81.8989 69.7834L82.46 72.2872L83.6504 72.0222L83.0893 69.5184Z" fill="#E0E0E0"/>
<path d="M86.9325 72.334C86.9325 72.36 85.3659 72.7331 83.4225 73.1632C81.479 73.5934 79.8976 73.9069 79.8902 73.9069C79.8827 73.9069 81.4567 73.5079 83.4002 73.0777C85.3436 72.6476 86.9251 72.3081 86.9325 72.334Z" fill="#E0E0E0"/>
<path d="M84.1885 74.514L82.998 74.7778L83.5566 77.2817L84.747 77.0179L84.1885 74.514Z" fill="#E0E0E0"/>
<path d="M88.045 77.2975C88.045 77.3234 86.4821 77.6965 84.535 78.1267C82.5878 78.5568 81.0101 78.8889 81.0064 78.8704C81.0026 78.8518 82.5692 78.4713 84.5164 78.0412C86.4636 77.611 88.0413 77.2975 88.045 77.2975Z" fill="#E0E0E0"/>
<path d="M85.3208 79.4924L84.1304 79.7574L84.6914 82.2613L85.8819 81.9962L85.3208 79.4924Z" fill="#E0E0E0"/>
<path d="M86.4384 84.5708L85.248 84.8347L85.8066 87.3385L86.9969 87.0747L86.4384 84.5708Z" fill="#E0E0E0"/>
<path d="M89.1639 82.3062C89.1639 82.3322 87.5974 82.7053 85.6539 83.1391C83.7105 83.573 82.129 83.8822 82.1216 83.8822C82.1142 83.8822 83.6882 83.4832 85.6316 83.053C87.5751 82.6229 89.1565 82.2803 89.1639 82.3062Z" fill="#E0E0E0"/>
<path d="M73.7119 60.9287L72.5215 61.1937L73.0826 63.6975L74.273 63.4325L73.7119 60.9287Z" fill="#FAFAFA"/>
<path d="M77.5562 63.7382C77.5562 63.7641 75.9934 64.1372 74.0462 64.5674C72.099 64.9975 70.5213 65.3296 70.5176 65.3111C70.5139 65.2925 72.0804 64.912 74.0276 64.4819C75.9748 64.0517 77.5525 63.7122 77.5562 63.7382Z" fill="#E0E0E0"/>
<path d="M74.8403 65.9752L73.6499 66.2403L74.211 68.7441L75.4014 68.4791L74.8403 65.9752Z" fill="#FAFAFA"/>
<path d="M78.6859 68.787C78.6859 68.8129 77.1194 69.186 75.1759 69.6199C73.2324 70.0537 71.651 70.3636 71.6436 70.3636C71.6361 70.3636 73.2101 69.9645 75.1536 69.5344C77.0971 69.1042 78.6785 68.7459 78.6859 68.787Z" fill="#E0E0E0"/>
<path d="M75.9678 71.0263L74.7773 71.2913L75.3384 73.7952L76.5288 73.5301L75.9678 71.0263Z" fill="#FAFAFA"/>
<path d="M79.8153 73.8393C79.8153 73.8653 78.2488 74.2384 76.3053 74.6685C74.3618 75.0987 72.7804 75.4122 72.773 75.4122C72.7655 75.4122 74.3395 75.0132 76.283 74.583C78.2265 74.1529 79.8079 73.8108 79.8153 73.8393Z" fill="#E0E0E0"/>
<path d="M77.0898 76.0853L75.8994 76.3492L76.4579 78.853L77.6483 78.5892L77.0898 76.0853Z" fill="#FAFAFA"/>
<path d="M80.9416 78.8888C80.9416 78.9148 79.3787 79.2879 77.4353 79.718C75.4918 80.1482 73.9067 80.462 73.9038 80.462C73.901 80.462 75.4666 80.063 77.4138 79.6328C79.361 79.2027 80.9387 78.8629 80.9416 78.8888Z" fill="#E0E0E0"/>
<path d="M78.2295 81.1212L77.0391 81.3862L77.6001 83.8901L78.7906 83.6251L78.2295 81.1212Z" fill="#FAFAFA"/>
<path d="M82.0728 83.938C82.0728 83.9639 80.5062 84.337 78.5628 84.7672C76.6193 85.1973 75.0379 85.5294 75.0342 85.5108C75.0305 85.4923 76.597 85.1118 78.5405 84.6817C80.4839 84.2515 82.0654 83.912 82.0728 83.938Z" fill="#E0E0E0"/>
<path d="M79.3584 86.1735L78.168 86.4385L78.729 88.9424L79.9194 88.6774L79.3584 86.1735Z" fill="#FAFAFA"/>
<path d="M105.01 72.0807L84.0557 74.0749L86.6945 101.624L107.649 99.63L105.01 72.0807Z" fill="#EBEBEB"/>
<path d="M105.017 72.0749L95.1929 73.0099L97.8317 100.559L107.656 99.6242L105.017 72.0749Z" fill="#E0E0E0"/>
<path d="M90.6969 77.2055L88.8115 77.3849L89.2484 81.9461L91.1338 81.7667L90.6969 77.2055Z" fill="#F5F5F5"/>
<path d="M92.4127 95.0754L90.5273 95.2548L90.9642 99.816L92.8496 99.6366L92.4127 95.0754Z" fill="#F5F5F5"/>
<path d="M96.1604 83.0977C96.1604 83.1498 93.6762 83.4286 90.6026 83.7222C87.5289 84.0158 85.0335 84.213 85.0075 84.1609C84.9815 84.1087 87.4918 83.8299 90.5654 83.5363C93.639 83.2427 96.1567 83.0455 96.1604 83.0977Z" fill="#F5F5F5"/>
<path d="M91.5616 86.207L89.6763 86.3864L90.1132 90.9476L91.9985 90.7682L91.5616 86.207Z" fill="#F5F5F5"/>
<path d="M97.0261 92.0988C97.0261 92.151 94.5419 92.4298 91.4682 92.7234C88.3946 93.017 85.8955 93.2142 85.8732 93.1621C85.8509 93.1099 88.3574 92.8311 91.4311 92.5375C94.5047 92.2439 97.0224 92.0467 97.0261 92.0988Z" fill="#F5F5F5"/>
<path d="M99.5245 76.3631L97.6392 76.5425L98.0761 81.1038L99.9614 80.9243L99.5245 76.3631Z" fill="#F5F5F5"/>
<path d="M103.61 75.9776L101.725 76.157L102.162 80.7183L104.047 80.5388L103.61 75.9776Z" fill="#F5F5F5"/>
<path d="M100.354 85.027L98.4683 85.2064L98.9052 89.7676L100.791 89.5882L100.354 85.027Z" fill="#F5F5F5"/>
<path d="M104.445 84.6333L102.56 84.8127L102.996 89.3739L104.882 89.1945L104.445 84.6333Z" fill="#F5F5F5"/>
<path d="M101.185 93.6906L99.2993 93.87L99.7362 98.4312L101.622 98.2518L101.185 93.6906Z" fill="#F5F5F5"/>
<path d="M105.277 93.2965L103.392 93.4759L103.829 98.0371L105.714 97.8577L105.277 93.2965Z" fill="#F5F5F5"/>
<path d="M106.493 70.9726L82.3877 73.2667L82.483 74.2619L106.589 71.9678L106.493 70.9726Z" fill="#E0E0E0"/>
<path d="M105.18 72.1851C105.18 72.2373 100.506 72.7241 94.7357 73.2745C88.9654 73.825 84.2654 74.2337 84.2617 74.1818C84.258 74.13 88.9391 73.6428 94.7057 73.0924C100.472 72.542 105.176 72.1329 105.18 72.1851Z" fill="#EBEBEB"/>
<path d="M86.6358 102.439L67.2184 110.994L53.5718 80.4433L72.9867 71.8882L86.6358 102.439Z" fill="#EBEBEB"/>
<path d="M72.9828 71.8917L63.2729 76.1684L76.834 106.758L86.5438 102.481L72.9828 71.8917Z" fill="#E0E0E0"/>
<path d="M59.9709 70.429L53.1133 73.4495L55.7833 79.4723L62.6409 76.4518L59.9709 70.429Z" fill="#EBEBEB"/>
<path d="M59.9727 70.4275L58.3384 71.1473L61.0084 77.1701L62.6427 76.4503L59.9727 70.4275Z" fill="#E0E0E0"/>
<path d="M73.3981 71.2928L51.7949 80.8082L51.9502 81.1583L73.5534 71.643L73.3981 71.2928Z" fill="#E0E0E0"/>
<path d="M60.2041 80.6608L58.5596 81.3851L60.0913 84.8403L61.7358 84.1159L60.2041 80.6608Z" fill="white"/>
<path d="M66.5745 83.6182C66.5931 83.6552 64.4297 84.6443 61.7516 85.823C59.0735 87.0017 56.9027 87.9349 56.8652 87.8976C56.8278 87.8602 59.01 86.8751 61.6919 85.6927C64.3737 84.5104 66.5597 83.5666 66.5745 83.6182Z" fill="#E0E0E0"/>
<path d="M70 76.3484L68.3555 77.0728L69.8872 80.5279L71.5317 79.8036L70 76.3484Z" fill="#F5F5F5"/>
<path d="M76.3699 79.2871C76.3699 79.3241 74.2251 80.3095 71.5432 81.4919C68.8614 82.6743 66.6943 83.6013 66.6605 83.5628C66.6268 83.5243 68.8053 82.5403 71.4872 81.3579C74.169 80.1756 76.3513 79.2497 76.3699 79.2871Z" fill="#EBEBEB"/>
<path d="M73.039 83.2034L71.3945 83.9277L72.9263 87.3829L74.5707 86.6585L73.039 83.2034Z" fill="#F5F5F5"/>
<path d="M79.4094 86.1463C79.4094 86.1834 77.2646 87.1688 74.5828 88.3511C71.9009 89.5335 69.7338 90.4605 69.7001 90.422C69.6663 90.3835 71.8449 89.3995 74.5267 88.2172C77.2086 87.0348 79.3945 86.1093 79.4094 86.1463Z" fill="#EBEBEB"/>
<path d="M76.1748 90.2724L74.5303 90.9968L76.062 94.4519L77.7065 93.7276L76.1748 90.2724Z" fill="#F5F5F5"/>
<path d="M82.5429 93.2107C82.5429 93.2477 80.3981 94.2331 77.7163 95.4155C75.0344 96.5979 72.8484 97.5249 72.8336 97.4864C72.8187 97.4479 74.9784 96.4639 77.6602 95.2815C80.342 94.0992 82.5243 93.1736 82.5429 93.2107Z" fill="#EBEBEB"/>
<path d="M79.3012 97.3396L77.6567 98.064L79.1885 101.519L80.833 100.795L79.3012 97.3396Z" fill="#F5F5F5"/>
<path d="M85.6757 100.274C85.6757 100.311 83.5309 101.3 80.8491 102.479C78.1672 103.657 75.9813 104.588 75.9664 104.553C75.9515 104.519 78.1112 103.527 80.793 102.349C83.4749 101.17 85.6571 100.237 85.6757 100.274Z" fill="#EBEBEB"/>
<path d="M63.2944 87.6228L61.6499 88.3471L63.1816 91.8022L64.8261 91.0779L63.2944 87.6228Z" fill="white"/>
<path d="M69.6628 90.5632C69.6628 90.6003 67.518 91.5857 64.8362 92.7681C62.1544 93.9504 59.9873 94.8774 59.9535 94.8427C59.9198 94.8079 62.0983 93.8165 64.7801 92.6378C67.462 91.4591 69.648 90.5259 69.6628 90.5632Z" fill="#E0E0E0"/>
<path d="M66.3774 94.5901L64.7329 95.3145L66.2646 98.7696L67.9092 98.0453L66.3774 94.5901Z" fill="white"/>
<path d="M72.7514 97.5273C72.7514 97.5644 70.6066 98.5498 67.9248 99.7321C65.2429 100.914 63.0569 101.841 63.0421 101.803C63.0272 101.765 65.1869 100.781 67.865 99.5982C70.5431 98.4158 72.7328 97.49 72.7514 97.5273Z" fill="#E0E0E0"/>
<path d="M69.4673 101.555L67.8228 102.28L69.3545 105.735L70.999 105.011L69.4673 101.555Z" fill="white"/>
<path d="M75.8355 104.491C75.8355 104.528 73.6945 105.513 71.0126 106.696C68.3308 107.878 66.1448 108.805 66.13 108.767C66.1151 108.728 68.271 107.744 70.9529 106.562C73.6347 105.379 75.8207 104.439 75.8355 104.491Z" fill="#E0E0E0"/>
<path d="M156.737 95.2517L148.781 104.547C148.74 104.594 148.709 104.649 148.689 104.709C148.67 104.768 148.662 104.831 148.667 104.894C148.672 104.956 148.689 105.017 148.718 105.073C148.746 105.129 148.786 105.179 148.833 105.219L168.427 121.857C168.476 121.899 168.531 121.93 168.592 121.949C168.652 121.969 168.716 121.976 168.779 121.971C168.842 121.965 168.904 121.948 168.96 121.918C169.016 121.889 169.066 121.849 169.106 121.8L171.975 118.354C172.038 118.275 172.076 118.179 172.083 118.079L172.474 111.955C172.48 111.882 172.467 111.809 172.439 111.741C172.41 111.673 172.366 111.613 172.31 111.565L169.095 108.791C169 108.709 168.942 108.592 168.932 108.467C168.923 108.341 168.964 108.217 169.047 108.122L170.248 106.713C170.289 106.666 170.32 106.611 170.339 106.552C170.359 106.492 170.366 106.43 170.362 106.368C170.357 106.305 170.339 106.245 170.311 106.189C170.282 106.134 170.243 106.084 170.195 106.044L157.431 95.1987C157.383 95.1548 157.327 95.1213 157.265 95.1C157.203 95.0788 157.138 95.0704 157.073 95.0753C157.008 95.0802 156.945 95.0983 156.887 95.1285C156.829 95.1587 156.778 95.2003 156.737 95.2508L156.737 95.2517Z" fill="#263F97"/>
<path d="M168.93 110.072L166.379 113.046C166.335 113.1 166.314 113.169 166.32 113.238C166.327 113.308 166.36 113.372 166.412 113.417L170.799 117.012C170.837 117.043 170.883 117.063 170.932 117.07C170.981 117.078 171.031 117.072 171.077 117.053C171.122 117.034 171.162 117.004 171.192 116.965C171.222 116.925 171.241 116.879 171.246 116.83L171.783 112.168C171.789 112.123 171.782 112.077 171.765 112.035C171.749 111.993 171.721 111.955 171.686 111.926L169.329 110.034C169.301 110.008 169.268 109.989 169.232 109.977C169.196 109.965 169.158 109.961 169.121 109.964C169.083 109.968 169.047 109.979 169.014 109.997C168.981 110.016 168.952 110.041 168.929 110.071L168.93 110.072Z" fill="#EBEBEB"/>
<path d="M168.927 122.789L147.842 104.866L147.287 105.514L168.372 123.437L168.927 122.789Z" fill="#FE756C"/>
<path d="M154.595 111.042C154.184 111.522 153.618 111.845 152.995 111.956C152.372 112.067 151.729 111.96 151.176 111.652C150.624 111.343 150.195 110.854 149.964 110.266C149.733 109.679 149.713 109.029 149.908 108.429C150.103 107.828 150.501 107.314 151.034 106.973C151.568 106.632 152.203 106.486 152.832 106.559C153.461 106.633 154.045 106.921 154.484 107.376C154.923 107.83 155.191 108.423 155.242 109.052C155.27 109.41 155.228 109.77 155.117 110.111C155.006 110.452 154.829 110.769 154.595 111.042Z" fill="#EBEBEB"/>
<path d="M153.738 110.313C153.531 110.555 153.256 110.731 152.949 110.819C152.642 110.906 152.315 110.9 152.011 110.802C151.707 110.704 151.439 110.519 151.241 110.269C151.042 110.019 150.923 109.716 150.897 109.399C150.872 109.081 150.941 108.763 151.097 108.485C151.253 108.207 151.488 107.981 151.772 107.836C152.057 107.691 152.378 107.634 152.695 107.671C153.013 107.708 153.312 107.838 153.555 108.045C153.881 108.322 154.083 108.716 154.117 109.141C154.151 109.566 154.015 109.988 153.738 110.313Z" fill="#455A64"/>
<path d="M161.944 116.37C161.892 116.325 163.772 114.042 166.14 111.272C168.509 108.503 170.471 106.294 170.523 106.339C170.575 106.383 168.699 108.666 166.33 111.436C163.962 114.206 162 116.415 161.944 116.37Z" fill="#EBEBEB"/>
<path d="M165.957 120.697C165.546 121.176 164.981 121.497 164.358 121.607C163.735 121.716 163.094 121.608 162.543 121.299C161.991 120.99 161.565 120.501 161.335 119.913C161.105 119.326 161.087 118.678 161.282 118.079C161.478 117.479 161.877 116.966 162.409 116.627C162.942 116.287 163.576 116.142 164.204 116.217C164.832 116.291 165.415 116.58 165.853 117.034C166.291 117.488 166.558 118.08 166.608 118.708C166.636 119.066 166.593 119.426 166.481 119.767C166.37 120.108 166.192 120.425 165.957 120.697Z" fill="#EBEBEB"/>
<path d="M165.099 119.969C164.857 120.251 164.524 120.44 164.157 120.505C163.79 120.57 163.412 120.506 163.087 120.324C162.762 120.142 162.51 119.854 162.374 119.508C162.239 119.162 162.228 118.779 162.343 118.426C162.459 118.073 162.694 117.77 163.008 117.57C163.322 117.37 163.695 117.285 164.066 117.329C164.436 117.372 164.779 117.543 165.037 117.811C165.296 118.078 165.453 118.427 165.482 118.798C165.499 119.008 165.473 119.22 165.408 119.421C165.342 119.622 165.237 119.808 165.099 119.969Z" fill="#455A64"/>
<path d="M167.158 115.094C167.113 115.146 166.786 114.934 166.412 114.622C166.037 114.31 165.778 114.012 165.822 113.96C165.867 113.908 166.194 114.12 166.568 114.432C166.943 114.744 167.202 115.042 167.158 115.094Z" fill="#EBEBEB"/>
<path d="M39.7401 92.723C39.1402 91.9302 38.3649 91.2861 37.4745 90.8407C36.584 90.3954 35.6025 90.1609 34.6063 90.1554C33.61 90.1499 32.626 90.3736 31.7307 90.8091C30.8353 91.2446 30.0529 91.8802 29.4442 92.6663C28.8356 93.4524 28.4171 94.368 28.2214 95.3416C28.0257 96.3153 28.058 97.3209 28.3158 98.28C28.5737 99.2392 29.0501 100.126 29.708 100.872C30.3659 101.618 31.1875 102.202 32.109 102.579H32.1376C32.5888 102.765 33.0178 102.814 33.5325 102.978L39.538 104.678C39.7116 104.727 39.8943 104.735 40.0717 104.702C40.2491 104.669 40.4166 104.596 40.5609 104.488C40.7053 104.38 40.8228 104.24 40.9041 104.08C40.9854 103.919 41.0285 103.742 41.0299 103.562V97.4411C41.0589 96.9223 41.0589 96.4022 41.0299 95.8833V95.8608C40.8884 94.719 40.4431 93.6356 39.7401 92.723ZM36.2902 98.8615C35.8405 99.2002 35.3001 99.3984 34.7374 99.4309C34.1747 99.4635 33.615 99.329 33.129 99.0445C32.643 98.76 32.2526 98.3382 32.007 97.8324C31.7615 97.3267 31.672 96.7598 31.7498 96.2034C31.8275 95.6469 32.0691 95.126 32.4439 94.7064C32.8187 94.2868 33.3099 93.9874 33.8554 93.8461C34.4009 93.7047 34.9762 93.7278 35.5086 93.9124C36.0409 94.097 36.5064 94.4348 36.8461 94.8831C37.3016 95.4841 37.4989 96.2408 37.3947 96.9869C37.2905 97.7329 36.8933 98.4071 36.2905 98.8612L36.2902 98.8615Z" fill="#FE756C"/>
<path d="M58.391 15.9246C58.0024 14.6304 57.3195 13.4431 56.3952 12.455C55.471 11.4669 54.3305 10.7047 53.0625 10.2278C51.7945 9.75084 50.4331 9.57202 49.0844 9.70523C47.7357 9.83844 46.4361 10.2801 45.2866 10.9958C44.1371 11.7115 43.1689 12.682 42.4572 13.8316C41.7455 14.9813 41.3095 16.2792 41.1833 17.6242C41.0571 18.9693 41.244 20.3252 41.7294 21.5865C42.2148 22.8478 42.9857 23.9804 43.9821 24.8962L44.0155 24.9221C44.5043 25.3682 45.0265 25.6347 45.6084 26.0823L52.4643 31.0706C52.6636 31.2149 52.8939 31.311 53.137 31.3514C53.38 31.3917 53.6291 31.3752 53.8647 31.3031C54.1002 31.2309 54.3156 31.1052 54.494 30.9358C54.6724 30.7663 54.8088 30.5579 54.8925 30.3269L57.7808 22.5192C58.0662 21.8717 58.3153 21.2089 58.5269 20.5338V20.5053C58.8926 18.9937 58.8457 17.4121 58.391 15.9246ZM51.0542 22.1224C50.3204 22.3434 49.5375 22.3426 48.8042 22.12C48.071 21.8975 47.4204 21.4632 46.9348 20.8721C46.4491 20.281 46.1502 19.5597 46.0759 18.7993C46.0015 18.0389 46.1551 17.2736 46.5171 16.6002C46.8791 15.9267 47.4333 15.3754 48.1096 15.0159C48.7859 14.6565 49.554 14.505 50.3168 14.5806C51.0795 14.6562 51.8026 14.9556 52.3946 15.4409C52.9866 15.9261 53.421 16.5755 53.6428 17.3068C53.9399 18.2874 53.8342 19.3456 53.3487 20.2485C52.8633 21.1514 52.0379 21.8251 51.0542 22.1215V22.1224Z" fill="#FE756C"/>
<path d="M104.661 10.2257C104.837 8.96888 103.054 7.93159 101.716 7.82385C101.078 7.77539 100.414 7.8723 99.81 7.66023C98.5008 7.20672 97.9749 5.51867 96.6955 4.98079C95.7406 4.57915 94.6402 4.93603 93.7113 5.40095C92.7825 5.86586 91.8688 6.45305 90.8319 6.51634C89.9331 6.57334 88.9668 6.24126 88.1649 6.67625C87.5793 7.00348 87.2698 7.68018 86.7288 8.07782C86.1686 8.42122 85.5212 8.59675 84.8637 8.5835C84.2043 8.56916 83.5479 8.67633 82.9276 8.89961C82.3308 9.17098 81.8347 9.80321 81.9579 10.4463L104.661 10.2257Z" fill="#EBEBEB"/>
<path d="M52.1431 59.5446C52.0201 58.7302 50.7218 58.4107 49.8679 58.5854C49.475 58.7194 49.0662 58.8019 48.652 58.8309C47.7532 58.7861 47.1189 57.8306 46.2238 57.7155C45.556 57.6374 44.9332 58.0612 44.4445 58.5184C43.9558 58.9757 43.4896 59.5076 42.8556 59.7379C42.3074 59.9374 41.6359 59.9089 41.2256 60.3254C40.9196 60.6341 40.8538 61.1098 40.5879 61.4593C40.3014 61.7773 39.9281 62.0051 39.5138 62.1149C39.1012 62.225 38.7131 62.4116 38.3699 62.665C38.2002 62.7946 38.0772 62.9754 38.0193 63.1806C37.9615 63.3857 37.9719 63.6039 38.049 63.8026L52.1431 59.5446Z" fill="#F5F5F5"/>
<path d="M157.982 73.026C158.291 71.9776 156.908 70.8696 155.78 70.6094C155.243 70.4831 154.661 70.4831 154.178 70.2388C153.123 69.6849 152.891 68.1827 151.873 67.5656C151.127 67.101 150.131 67.2643 149.281 67.5434C148.43 67.8224 147.58 68.2016 146.692 68.1272C145.92 68.0602 145.129 67.6551 144.402 67.9276C143.861 68.132 143.515 68.6713 143.003 68.9353C142.479 69.1598 141.901 69.2269 141.34 69.1285C140.781 69.0315 140.209 69.039 139.652 69.1508C139.376 69.214 139.128 69.3641 138.943 69.5791C138.759 69.794 138.65 70.0623 138.63 70.3443L157.982 73.026Z" fill="#F5F5F5"/>
<path d="M142.588 155.988C142.525 155.122 143.256 154.352 144.062 153.981C144.867 153.609 145.774 153.482 146.602 153.148C146.93 153.01 147.296 152.777 147.307 152.427C147.307 151.906 146.58 151.683 146.389 151.211C146.189 150.664 146.761 150.159 146.993 149.623C147.508 148.407 146.225 147.181 144.979 146.682C143.734 146.184 142.249 145.827 141.671 144.637C141.459 144.065 141.324 143.468 141.268 142.86C140.977 141.373 139.858 139.908 138.325 139.659C136.792 139.41 135.065 140.774 135.315 142.262C135.468 143.094 136.095 143.749 136.434 144.492C136.773 145.236 136.688 146.402 135.882 146.652C134.562 147.051 133.29 144.667 132.182 145.484C132.637 147.012 133.077 148.536 133.529 150.076C131.794 150.945 129.717 149.369 128.974 147.581C128.232 145.792 128.206 143.774 127.326 142.06C126.445 140.346 124.065 139.059 122.555 140.275C122.48 142.484 125.438 143.376 126.748 145.164C127.691 146.454 127.553 148.551 126.154 149.369C124.756 150.187 122.57 148.763 123.095 147.26C123.285 146.739 123.724 146.304 123.773 145.743C123.826 145.051 123.233 144.489 122.692 144.044C121.849 143.337 121.004 142.642 120.163 141.947C119.645 141.458 119.033 141.079 118.365 140.831C116.627 140.333 114.892 141.724 113.971 143.252C113.05 144.78 112.539 146.599 111.267 147.868C109.443 149.727 105.982 149.842 104.27 147.894C102.558 145.946 103.427 142.317 105.957 141.592C106.916 141.332 108.121 141.354 108.628 140.521C109.508 139.034 106.99 137.175 107.859 135.688C108.523 134.548 110.288 135.067 111.571 134.68C112.854 134.294 113.559 133.03 114.312 131.94C115.066 130.851 116.226 129.769 117.535 130.052C117.434 129.308 117.335 128.479 117.673 127.795C118.011 127.111 118.971 126.655 119.598 127.1C118.956 128.144 119.724 129.594 120.843 130.115C121.962 130.635 123.272 130.514 124.506 130.375C125.741 130.236 127.289 129.78 127.39 128.564C127.427 128.165 127.275 127.746 127.427 127.375C127.968 125.921 130.687 127.916 131.731 126.754C132.336 126.144 131.668 125.066 130.825 124.865C129.982 124.664 129.124 124.965 128.27 124.991C127.416 125.017 126.368 124.582 126.33 123.737C126.293 122.892 127.237 122.309 127.337 121.506C127.501 120.116 125.099 119.755 124.267 120.886C123.435 122.016 123.727 123.565 123.977 124.942C124.226 126.319 124.368 127.946 123.335 128.913C122.895 129.571 121.75 129.226 121.373 128.542C120.996 127.858 121.071 127.003 121.001 126.222C120.932 125.441 120.587 124.534 119.808 124.322C119.267 124.173 118.689 124.434 118.133 124.508C115.944 124.768 114.422 121.976 115.112 119.916C115.802 117.856 117.779 116.518 119.707 115.455C121.117 114.685 122.866 113.968 124.261 114.748C124.914 115.119 125.38 115.726 126.011 116.102C127.13 116.745 128.491 116.511 129.759 116.533C131.77 116.588 133.701 117.326 135.231 118.626C135.799 119.135 136.324 119.979 135.884 120.589C135.444 121.199 134.038 121.37 134.277 122.128C135.769 122.613 137.533 121.481 137.697 119.957C138.061 120.118 138.375 120.373 138.607 120.695C138.839 121.017 138.981 121.395 139.017 121.79C140.619 120.191 143.687 120.426 144.985 122.277C145.336 122.762 145.59 123.344 146.104 123.679C146.619 124.013 147.488 123.839 147.552 123.255C147.563 123.067 147.528 122.88 147.451 122.708C147.149 121.864 146.836 121.036 146.533 120.203C147.701 119.582 149.085 120.552 149.89 121.593C152.833 125.478 154.937 123.143 159.089 123.775C161.897 124.199 163.128 125.973 164.713 128.118C169.562 134.721 175.989 140.131 180.406 147.032C180.872 147.749 181.301 148.482 181.704 149.226C181.629 149.041 181.565 148.856 181.487 148.669C179.761 144.188 177.612 139.879 175.072 135.801C174.531 134.935 173.975 134.076 173.413 133.232C173.059 132.711 172.693 132.18 172.326 131.67C171.864 131.001 171.371 130.354 170.879 129.711C170.507 129.187 170.099 128.681 169.697 128.183C169.421 127.837 169.129 127.488 168.842 127.142C168.555 126.796 168.213 126.361 167.861 125.973L166.803 124.768C166.703 124.646 166.591 124.523 166.464 124.398C166.092 123.978 165.718 123.569 165.32 123.16C165.293 123.11 165.255 123.066 165.208 123.033C165.108 122.922 164.996 122.81 164.88 122.699C164.565 122.353 164.227 122.015 163.899 121.68C163.358 121.138 162.802 120.591 162.24 120.07C161.774 119.609 161.297 119.174 160.804 118.739C160.375 118.369 159.95 117.973 159.51 117.599C159.07 117.225 158.652 116.855 158.212 116.51C157.682 116.063 157.141 115.628 156.589 115.193C155.068 113.989 153.5 112.851 151.886 111.78C151.483 111.509 151.091 111.249 150.688 110.988C150.285 110.728 149.871 110.464 149.469 110.219C149.066 109.973 148.652 109.709 148.234 109.475C147.817 109.241 147.405 108.981 146.988 108.731C146.649 108.532 146.324 108.361 145.981 108.17C145.815 108.066 145.643 107.972 145.466 107.887C144.751 107.488 144.019 107.103 143.288 106.747C142.916 106.561 142.561 106.377 142.169 106.201C141.707 105.963 141.225 105.74 140.748 105.532C140.68 105.491 140.609 105.458 140.535 105.431C140.106 105.232 139.681 105.032 139.237 104.847C138.622 104.587 138.007 104.327 137.372 104.078C136.667 103.793 135.962 103.508 135.242 103.245C134.451 102.948 133.657 102.665 132.851 102.405C132.045 102.144 131.228 101.869 130.412 101.62C129.595 101.371 128.774 101.148 127.942 100.925C126.309 100.494 124.649 100.107 122.974 99.7724C122.944 99.7655 122.914 99.7569 122.884 99.7465C122.243 99.6239 121.601 99.5011 120.96 99.4007C120.919 99.3879 120.876 99.3792 120.833 99.3748C120.557 99.3263 120.27 99.2782 119.979 99.2408C118.782 99.0413 117.577 98.8703 116.353 98.7426C116.208 98.7183 116.061 98.7021 115.913 98.6941C115.563 98.642 115.208 98.6197 114.843 98.5827C114.042 98.5083 113.235 98.445 112.415 98.3968C111.594 98.3486 110.717 98.2965 109.86 98.2705C109.002 98.2446 108.073 98.2221 107.181 98.2221C104.817 98.2221 102.476 98.325 100.158 98.5308C99.6057 98.5678 99.0647 98.62 98.5239 98.6796C97.9831 98.7392 97.4049 98.8059 96.8229 98.8791C96.241 98.9524 95.7039 99.0279 95.1357 99.1134C94.5675 99.1989 94.0167 99.2882 93.4485 99.3885C92.9709 99.4629 92.4787 99.5484 92.0012 99.6487C90.8187 99.8719 89.6476 100.117 88.4911 100.392C87.9504 100.515 87.4093 100.653 86.8685 100.801C86.3278 100.95 85.7819 101.087 85.2571 101.236C84.362 101.486 83.4929 101.757 82.6262 102.028C81.9212 102.266 81.2049 102.5 80.5148 102.738C80.4955 102.74 80.4772 102.748 80.4625 102.761C79.7476 103.01 79.0527 103.27 78.3463 103.545L78.2345 103.582C77.5931 103.828 76.9513 104.088 76.3211 104.352C75.5266 104.672 74.7482 105.021 73.9787 105.367C73.3258 105.664 72.6843 105.962 72.0541 106.274C71.4238 106.586 70.6963 106.943 70.0285 107.289L69.9539 107.33C69.3125 107.665 68.6707 108.01 68.0405 108.371C67.4102 108.731 66.7462 109.115 66.1044 109.486C65.5002 109.857 64.9108 110.204 64.3177 110.576C64.0889 110.713 63.8776 110.861 63.6499 111.011C63.0234 111.41 62.4203 111.817 61.7848 112.236C61.0387 112.746 60.2929 113.281 59.5728 113.813C58.9274 114.285 58.3008 114.768 57.6817 115.252C54.1259 118.052 50.8176 121.151 47.7934 124.516C46.7227 125.68 45.7158 126.873 44.7335 128.089C43.9016 129.13 43.096 130.186 42.3276 131.279C42.5278 131.253 42.7343 131.227 42.9319 131.215C44.0509 131.13 45.2631 131.167 46.2889 130.68C47.2326 130.224 47.9003 129.39 48.7545 128.795C50.9439 127.256 54.5312 126.971 55.1217 124.389C55.3219 123.523 55.0845 122.579 55.4125 121.746C56.0279 120.195 58.1318 119.972 59.8165 119.999C60.5314 119.999 61.3756 120.099 61.7039 120.716C61.9427 121.151 61.8046 121.697 61.6255 122.159C60.5665 125.083 58.5281 127.554 55.8541 129.155C53.6647 130.471 50.8072 131.486 50.203 133.943C50.5053 134.776 52.0418 134.713 52.165 135.583C52.2545 136.274 51.348 136.635 51.0211 137.256C50.5436 138.163 51.6403 139.267 52.6846 139.216C53.729 139.164 54.5981 138.424 55.3628 137.728C57.6531 135.632 60.059 133.371 60.8869 130.397C61.2586 129.166 61.3682 127.727 62.3788 126.909C63.5762 125.94 65.7172 126.612 66.1087 128.088C67.101 127.541 68.649 127.132 69.1638 128.151C69.3428 128.522 69.2904 128.932 69.3802 129.315C69.7048 130.902 71.9091 131.624 72.1367 133.223C72.3978 135.082 69.9956 136.03 68.1194 136.316C66.4221 136.576 64.7215 136.837 63.0242 137.108C62.2756 137.161 61.5503 137.39 60.908 137.777C60.3038 138.223 59.9272 139.067 60.2789 139.725C60.5357 140.059 60.8326 140.36 61.1628 140.621C62.5727 142.008 61.4128 144.875 59.4247 144.938C58.7458 144.964 58.0781 144.715 57.3992 144.689C55.3851 144.603 53.7885 146.351 52.8299 148.102C51.8713 149.853 51.1553 151.85 49.5475 153.039C46.9366 154.962 42.4866 154.527 41.2295 157.471C40.7259 158.661 40.987 159.999 41.1886 161.278C41.222 161.478 41.2483 161.687 41.2744 161.896H96.5899C97.7423 161.439 98.992 161.1 99.9766 160.371C102.244 158.698 102.547 155.508 103.975 153.099C105.404 150.69 109.866 149.674 110.536 152.4C115.266 142.421 125.717 157.233 131.932 156.118C133.737 155.794 135.497 154.939 137.314 155.192C140.444 155.623 142.096 158.943 143.189 161.884H145.8C145.502 160.851 145.516 159.713 144.908 158.834C144.181 157.825 142.689 157.234 142.588 155.988ZM100.402 111.689C99.9131 112.804 100.133 114.209 99.3835 115.184C98.7867 115.953 97.7535 116.228 96.7986 116.451L90.7858 117.86C89.8846 118.024 89.0133 118.322 88.2009 118.744C86.628 119.674 85.7876 121.428 84.5716 122.782C83.3557 124.135 81.1774 125.105 79.7413 123.979C79.4155 123.686 79.1522 123.33 78.967 122.934C78.7818 122.537 78.6785 122.107 78.6632 121.67C78.5545 120.412 78.8553 119.153 79.5211 118.078C80.2037 116.963 81.2518 116.112 81.83 114.955C82.4082 113.799 82.2924 112.1 81.0839 111.557C80.4425 111.264 79.6329 111.379 79.0624 110.966C78.0366 110.222 78.7715 108.46 79.9612 108.014C81.1508 107.568 82.4752 107.917 83.7472 107.995C88.3539 108.285 91.7444 105.311 95.2095 102.839C97.9062 100.917 103.646 98.6448 106.772 100.608C108.014 101.392 108.503 103.408 107.332 104.292C106.806 104.687 106.082 104.777 105.594 105.215C105.008 105.742 104.926 106.605 104.59 107.315C103.729 109.153 101.211 109.822 100.402 111.689Z" fill="#263F97"/>
<g opacity="0.3">
<path opacity="0.3" d="M99.3828 115.183C100.129 114.209 99.9124 112.815 100.401 111.688C101.21 109.829 103.728 109.151 104.601 107.316C104.937 106.606 105.019 105.743 105.605 105.215C106.093 104.777 106.817 104.688 107.343 104.293C108.515 103.41 108.025 101.393 106.783 100.609C103.666 98.6457 97.9243 100.918 95.2202 102.84C91.7551 105.312 88.3643 108.286 83.7579 107.996C82.4859 107.918 81.1656 107.573 79.9719 108.015C78.7783 108.457 78.0473 110.22 79.0731 110.967C79.645 111.38 80.4532 111.264 81.0946 111.558C82.2846 112.1 82.4038 113.789 81.8407 114.956C81.2776 116.124 80.2144 116.98 79.5318 118.079C78.866 119.154 78.5652 120.413 78.6739 121.671C78.6892 122.108 78.7925 122.538 78.9777 122.935C79.1629 123.331 79.4262 123.687 79.752 123.98C81.1881 125.095 83.3701 124.14 84.5823 122.783C85.7946 121.426 86.6376 119.676 88.2116 118.745C89.024 118.323 89.8953 118.025 90.7965 117.861L96.8093 116.452C97.7528 116.228 98.786 115.964 99.3828 115.183Z" fill="black"/>
<path opacity="0.3" d="M137.314 155.197C135.497 154.944 133.737 155.799 131.931 156.123C125.717 157.238 115.265 142.412 110.536 152.405C109.875 149.69 105.403 150.713 103.975 153.122C102.546 155.531 102.244 158.721 99.9761 160.395C98.9915 161.138 97.7381 161.461 96.5894 161.919H143.189C142.096 158.948 140.451 155.628 137.314 155.197Z" fill="black"/>
<path opacity="0.3" d="M72.1314 133.231C71.9026 131.632 69.7006 130.911 69.3749 129.323C69.2854 128.952 69.3377 128.516 69.1584 128.159C68.6437 127.14 67.0957 127.549 66.1037 128.096C65.7008 126.609 63.5585 125.947 62.3738 126.917C61.3703 127.735 61.2548 129.174 60.8818 130.405C60.0525 133.379 57.6478 135.64 55.3577 137.737C54.6116 138.432 53.724 139.175 52.6796 139.224C51.6352 139.272 50.5385 138.171 51.0161 137.264C51.3444 136.643 52.2507 136.283 52.16 135.591C52.037 134.721 50.5014 134.784 50.198 133.951C50.8022 131.494 53.6582 130.479 55.849 129.163C58.5243 127.562 60.5637 125.091 61.6231 122.165C61.8021 121.704 61.9402 121.158 61.7014 120.723C61.3732 120.105 60.529 120.005 59.814 120.005C58.1268 119.979 56.0243 120.202 55.4101 121.752C55.0818 122.585 55.3206 123.53 55.1192 124.396C54.5298 126.976 50.9415 127.262 48.7521 128.802C47.8979 129.397 47.2301 130.23 46.2864 130.687C45.2681 131.174 44.0707 131.137 42.9294 131.222C42.7269 131.23 42.525 131.252 42.3252 131.285C41.6388 132.225 40.9736 133.19 40.3296 134.182C39.6856 135.173 39.0639 136.171 38.4645 137.175C35.6244 141.967 33.3136 147.051 31.5726 152.339C30.9559 154.196 30.4113 156.081 29.9389 157.994C29.6205 159.283 29.337 160.586 29.0884 161.902H29.4601C29.7101 161.039 29.8965 160.177 30.0532 159.426C30.0941 159.236 30.1316 159.055 30.1676 158.879C30.5854 157.02 31.2009 155.046 32.6742 153.79C34.1475 152.533 36.7287 152.399 37.8737 153.953C38.6904 155.069 38.5029 156.597 38.2915 157.961C38.0802 159.326 37.8737 160.578 37.6624 161.902H41.2693C41.2433 161.694 41.217 161.486 41.1835 161.285C40.9834 160.006 40.7211 158.683 41.2244 157.478C42.4827 154.504 46.9502 154.97 49.5425 153.046C51.1502 151.856 51.87 149.856 52.8249 148.109C53.7797 146.361 55.38 144.61 57.3941 144.695C58.073 144.721 58.7408 144.97 59.4197 144.944C61.4078 144.881 62.5679 142.015 61.1578 140.628C60.8276 140.367 60.5307 140.066 60.2739 139.732C59.9233 139.074 60.2999 138.245 60.903 137.784C61.5453 137.397 62.2706 137.168 63.0192 137.115C64.7164 136.843 66.4171 136.583 68.1144 136.323C69.9903 136.042 72.3925 135.082 72.1314 133.231Z" fill="black"/>
<path opacity="0.3" d="M183.719 155.282C183.421 154.26 183.108 153.245 182.772 152.237C182.436 151.23 182.082 150.233 181.705 149.241C181.302 148.497 180.873 147.753 180.407 147.046C175.991 140.145 169.59 134.735 164.715 128.132C163.13 125.987 161.899 124.214 159.09 123.79C154.939 123.158 152.835 125.493 149.892 121.607C149.098 120.566 147.714 119.596 146.535 120.217C146.837 121.05 147.15 121.879 147.453 122.723C147.53 122.894 147.564 123.082 147.553 123.269C147.49 123.853 146.61 124.013 146.106 123.693C145.602 123.373 145.36 122.775 144.987 122.292C143.678 120.433 140.608 120.206 139.019 121.804C138.982 121.41 138.841 121.032 138.609 120.709C138.376 120.387 138.062 120.133 137.699 119.972C137.535 121.496 135.763 122.626 134.278 122.143C134.039 121.399 135.397 121.247 135.886 120.604C136.375 119.96 135.8 119.15 135.233 118.64C133.702 117.338 131.769 116.598 129.757 116.543C128.489 116.521 127.116 116.755 126.008 116.112C125.367 115.741 124.912 115.119 124.259 114.759C122.864 113.978 121.114 114.695 119.705 115.465C117.777 116.52 115.787 117.848 115.11 119.927C114.432 122.005 115.941 124.76 118.131 124.518C118.683 124.444 119.25 124.184 119.805 124.333C120.585 124.544 120.924 125.448 120.999 126.232C121.074 127.017 120.973 127.857 121.371 128.552C121.769 129.248 122.893 129.593 123.333 128.923C124.366 127.956 124.239 126.32 123.974 124.952C123.709 123.584 123.434 122.023 124.265 120.896C125.097 119.769 127.499 120.126 127.335 121.517C127.234 122.335 126.291 122.93 126.328 123.748C126.365 124.566 127.41 125.038 128.268 125.002C129.126 124.966 129.991 124.667 130.823 124.876C131.655 125.084 132.334 126.155 131.729 126.764C130.685 127.928 127.966 125.931 127.425 127.385C127.272 127.756 127.425 128.177 127.388 128.575C127.287 129.791 125.739 130.237 124.504 130.386C123.269 130.534 121.964 130.646 120.841 130.125C119.719 129.605 118.954 128.155 119.596 127.11C118.969 126.664 118.01 127.11 117.671 127.805C117.332 128.5 117.432 129.292 117.533 130.062C116.224 129.779 115.052 130.869 114.31 131.951C113.568 133.033 112.841 134.308 111.569 134.691C110.297 135.074 108.521 134.557 107.857 135.698C106.988 137.186 109.506 139.071 108.626 140.532C108.118 141.365 106.914 141.342 105.955 141.602C103.426 142.309 102.546 145.956 104.268 147.904C105.99 149.853 109.441 149.741 111.265 147.879C112.537 146.6 113.052 144.804 113.969 143.264C114.887 141.725 116.625 140.346 118.363 140.844C119.032 141.092 119.643 141.471 120.161 141.96C121.004 142.655 121.848 143.35 122.69 144.056C123.231 144.502 123.809 145.064 123.772 145.756C123.723 146.317 123.283 146.753 123.093 147.273C122.567 148.76 124.768 150.199 126.153 149.382C127.538 148.565 127.69 146.467 126.746 145.177C125.437 143.388 122.479 142.497 122.553 140.288C124.064 139.072 126.443 140.347 127.324 142.072C128.205 143.798 128.23 145.82 128.973 147.594C129.715 149.367 131.793 150.957 133.527 150.088C133.076 148.549 132.636 147.025 132.18 145.496C133.299 144.678 134.56 147.062 135.881 146.665C136.686 146.416 136.787 145.275 136.432 144.505C136.078 143.735 135.466 143.092 135.313 142.274C135.063 140.761 136.776 139.408 138.324 139.672C139.872 139.936 140.976 141.375 141.267 142.873C141.322 143.48 141.458 144.078 141.669 144.65C142.248 145.84 143.747 146.2 144.978 146.695C146.209 147.19 147.507 148.42 146.992 149.636C146.753 150.171 146.186 150.677 146.388 151.224C146.578 151.708 147.305 151.919 147.305 152.439C147.305 152.789 146.934 153.023 146.6 153.16C145.771 153.495 144.866 153.607 144.06 153.993C143.254 154.38 142.523 155.134 142.587 156.001C142.687 157.243 144.188 157.838 144.892 158.867C145.5 159.745 145.485 160.882 145.783 161.917H154.997C154.665 161.256 154.336 160.598 154.001 159.936C154.747 159.315 155.925 159.565 156.694 160.185C157.253 160.696 157.742 161.278 158.148 161.917H185.287C184.861 159.667 184.339 157.455 183.719 155.282Z" fill="black"/>
</g>
<path d="M104.601 107.316C104.937 106.606 105.019 105.743 105.605 105.215C106.094 104.777 106.817 104.688 107.343 104.293C108.516 103.41 108.026 101.393 106.784 100.609C103.667 98.6457 97.9248 100.918 95.2207 102.84C91.7556 105.312 88.3648 108.286 83.7584 107.996C82.4864 107.918 81.166 107.573 79.9724 108.015C78.7787 108.457 78.0478 110.22 79.0736 110.967C79.6455 111.38 80.4537 111.264 81.0951 111.558C82.285 112.1 82.4043 113.789 81.8412 114.956C81.2781 116.124 80.2149 116.98 79.5323 118.079C78.8665 119.154 78.5657 120.413 78.6744 121.671C78.6897 122.108 78.793 122.538 78.9782 122.935C79.1634 123.331 79.4267 123.687 79.7525 123.98C81.1886 125.095 83.3706 124.14 84.5828 122.783C85.7951 121.426 86.6381 119.676 88.2121 118.745C89.0245 118.323 89.8958 118.025 90.797 117.861L96.8098 116.452C97.7647 116.229 98.7979 115.954 99.3947 115.184C100.141 114.21 99.9244 112.816 100.413 111.689C101.211 109.822 103.729 109.153 104.601 107.316Z" fill="#0F2162"/>
<path d="M137.314 155.197C135.497 154.944 133.737 155.799 131.931 156.123C125.717 157.238 115.265 142.412 110.536 152.405C109.875 149.69 105.403 150.713 103.975 153.122C102.546 155.531 102.244 158.721 99.9761 160.395C98.9915 161.138 97.7381 161.461 96.5894 161.919H143.189C142.096 158.948 140.451 155.628 137.314 155.197Z" fill="#263238"/>
<path d="M182.768 152.237C182.432 151.23 182.078 150.233 181.701 149.24C181.298 148.497 180.869 147.753 180.403 147.046C175.987 140.145 169.586 134.735 164.711 128.132C163.126 125.987 161.895 124.214 159.086 123.79C154.935 123.158 152.831 125.493 149.888 121.607C149.093 120.566 147.71 119.596 146.531 120.217C146.833 121.05 147.146 121.879 147.448 122.723C147.526 122.894 147.56 123.082 147.549 123.269C147.486 123.853 146.605 124.013 146.102 123.693C145.598 123.373 145.356 122.775 144.983 122.292C143.674 120.432 140.604 120.206 139.015 121.804C138.978 121.409 138.836 121.031 138.604 120.709C138.372 120.387 138.058 120.132 137.695 119.972C137.53 121.496 135.759 122.626 134.274 122.143C134.035 121.399 135.393 121.247 135.882 120.603C136.37 119.96 135.796 119.15 135.229 118.64C133.698 117.338 131.765 116.598 129.753 116.543C128.485 116.521 127.112 116.755 126.005 116.112C125.363 115.741 124.908 115.119 124.255 114.759C122.86 113.978 121.11 114.695 119.701 115.465C117.773 116.52 115.783 117.848 115.106 119.926C114.428 122.005 115.938 124.76 118.127 124.518C118.679 124.444 119.246 124.184 119.802 124.332C120.581 124.544 120.921 125.448 120.995 126.232C121.07 127.017 120.969 127.857 121.367 128.552C121.765 129.248 122.889 129.593 123.329 128.923C124.362 127.956 124.235 126.32 123.97 124.952C123.706 123.584 123.43 122.022 124.261 120.896C125.093 119.769 127.495 120.126 127.331 121.517C127.231 122.335 126.287 122.929 126.324 123.748C126.361 124.566 127.406 125.038 128.264 125.002C129.122 124.966 129.987 124.667 130.819 124.875C131.651 125.084 132.33 126.154 131.725 126.764C130.681 127.928 127.962 125.931 127.421 127.385C127.268 127.756 127.421 128.177 127.384 128.575C127.283 129.791 125.735 130.237 124.5 130.385C123.266 130.534 121.96 130.646 120.837 130.125C119.715 129.605 118.95 128.155 119.592 127.11C118.965 126.664 118.007 127.11 117.667 127.805C117.328 128.5 117.428 129.292 117.529 130.062C116.22 129.779 115.048 130.869 114.306 131.951C113.564 133.033 112.837 134.308 111.565 134.691C110.293 135.074 108.517 134.557 107.853 135.698C106.984 137.186 109.502 139.071 108.622 140.532C108.114 141.365 106.91 141.342 105.951 141.602C103.422 142.309 102.542 145.956 104.264 147.904C105.986 149.853 109.437 149.741 111.261 147.878C112.533 146.599 113.048 144.804 113.965 143.264C114.883 141.725 116.621 140.346 118.359 140.844C119.028 141.091 119.639 141.471 120.157 141.959C121 142.655 121.845 143.35 122.686 144.056C123.227 144.502 123.805 145.064 123.768 145.755C123.719 146.317 123.279 146.753 123.089 147.272C122.563 148.76 124.764 150.198 126.149 149.382C127.534 148.565 127.686 146.467 126.742 145.177C125.433 143.388 122.475 142.497 122.549 140.288C124.06 139.072 126.439 140.347 127.32 142.072C128.201 143.797 128.227 145.82 128.969 147.593C129.711 149.367 131.789 150.957 133.523 150.088C133.072 148.549 132.632 147.024 132.176 145.496C133.295 144.678 134.556 147.062 135.877 146.665C136.682 146.416 136.783 145.275 136.429 144.505C136.074 143.735 135.463 143.092 135.31 142.274C135.06 140.761 136.772 139.408 138.32 139.672C139.868 139.936 140.972 141.375 141.263 142.873C141.318 143.48 141.454 144.078 141.666 144.65C142.244 145.84 143.743 146.2 144.974 146.695C146.205 147.19 147.503 148.42 146.988 149.636C146.749 150.171 146.182 150.677 146.384 151.224C146.574 151.708 147.301 151.919 147.301 152.439C147.301 152.789 146.93 153.023 146.597 153.16C145.767 153.495 144.862 153.607 144.056 153.993C143.25 154.38 142.519 155.134 142.583 156.001C142.684 157.243 144.184 157.837 144.888 158.867C145.496 159.745 145.481 160.882 145.78 161.917H154.996C154.664 161.255 154.336 160.598 154 159.936C154.746 159.315 155.925 159.565 156.693 160.185C157.253 160.696 157.742 161.278 158.148 161.917H185.287C184.859 159.687 184.335 157.479 183.714 155.296C183.417 154.26 183.103 153.245 182.768 152.237Z" fill="#0F2162"/>
<path d="M156.694 160.173C155.926 159.563 154.744 159.303 154.001 159.923C154.337 160.585 154.665 161.243 154.998 161.905H158.149C157.744 161.266 157.254 160.683 156.695 160.173H156.694Z" fill="#455A64"/>
<path d="M41.2317 157.479C42.49 154.505 46.9574 154.971 49.5498 153.047C51.1575 151.857 51.8773 149.857 52.8322 148.11C53.787 146.362 55.3873 144.611 57.4014 144.696C58.0803 144.722 58.7481 144.971 59.4269 144.946C61.415 144.882 62.5752 142.016 61.1651 140.629C60.8348 140.368 60.538 140.067 60.2811 139.733C59.9305 139.075 60.3072 138.246 60.9103 137.785C61.5526 137.398 62.2779 137.169 63.0265 137.116C64.7237 136.844 66.4244 136.584 68.1216 136.324C69.9867 136.039 72.4001 135.082 72.139 133.23C71.9102 131.632 69.7082 130.91 69.3825 129.323C69.293 128.952 69.3453 128.516 69.166 128.159C68.6513 127.14 67.1033 127.549 66.111 128.096C65.708 126.608 63.5658 125.947 62.381 126.917C61.3776 127.735 61.262 129.174 60.8891 130.404C60.0598 133.379 57.6551 135.639 55.365 137.736C54.6189 138.431 53.7313 139.175 52.6869 139.223C51.6425 139.271 50.5458 138.171 51.0234 137.264C51.3517 136.643 52.2579 136.282 52.1673 135.591C52.0443 134.721 50.5086 134.784 50.2052 133.951C50.8095 131.493 53.6655 130.479 55.8563 129.162C58.5316 127.562 60.571 125.09 61.6304 122.165C61.8094 121.704 61.9475 121.157 61.7087 120.722C61.3804 120.105 60.5362 120.005 59.8213 120.005C58.1341 119.979 56.0316 120.202 55.4173 121.752C55.089 122.585 55.3278 123.529 55.1265 124.396C54.5371 126.976 50.9487 127.262 48.7593 128.801C47.9052 129.396 47.2374 130.229 46.2937 130.686C45.2754 131.174 44.078 131.136 42.9367 131.222C42.7341 131.23 42.5323 131.251 42.3324 131.285C41.6411 132.224 40.9739 133.19 40.3306 134.181C39.6874 135.173 39.0657 136.171 38.4655 137.174C35.6253 141.966 33.3145 147.051 31.5736 152.339C30.9568 154.195 30.4123 156.08 29.9398 157.994C29.6215 159.283 29.338 160.585 29.0894 161.902H29.4611C29.7111 161.039 29.8975 160.176 30.0542 159.425C30.0951 159.236 30.1326 159.055 30.1686 158.879C30.5864 157.02 31.2018 155.046 32.6752 153.789C34.1485 152.533 36.7297 152.399 37.8747 153.953C38.6914 155.068 38.5038 156.596 38.2925 157.961C38.0812 159.325 37.8747 160.578 37.6634 161.902H41.2692C41.2432 161.694 41.2168 161.485 41.1834 161.285C40.9818 160.006 40.7207 158.669 41.2317 157.479Z" fill="#0F2162"/>
<path d="M37.8752 153.954C36.7313 152.389 34.1453 152.538 32.6794 153.791C31.2135 155.044 30.5918 157.007 30.1728 158.881C30.1356 159.052 30.0982 159.251 30.0584 159.427C29.9017 160.171 29.7153 161.041 29.4653 161.903H37.6727C37.8824 160.587 38.0921 159.273 38.3018 157.962C38.5055 156.598 38.6919 155.07 37.8752 153.954Z" fill="#455A64"/>
<path d="M88.6859 148.247C88.8612 146.993 87.0894 145.967 85.7579 145.86C85.1239 145.808 84.4673 145.905 83.8667 145.697C82.565 145.243 82.0428 143.57 80.7745 143.035C79.8234 142.636 78.7304 142.99 77.8093 143.451C76.8882 143.912 75.9791 144.496 74.9521 144.567C74.0571 144.624 73.087 144.291 72.3 144.726C71.7181 145.05 71.4135 145.724 70.875 146.117C70.315 146.461 69.6675 146.636 69.0099 146.623C68.3556 146.606 67.7038 146.712 67.0891 146.936C66.4922 147.207 65.9998 147.832 66.1231 148.472L88.6859 148.247Z" fill="#FAFAFA"/>
<path d="M94.4893 139.328C94.6037 138.473 93.3926 137.77 92.4827 137.696C92.047 137.712 91.6112 137.674 91.1846 137.585C90.2933 137.271 89.9389 136.127 89.0684 135.76C88.4156 135.489 87.6698 135.732 87.038 136.045C86.4063 136.359 85.7798 136.758 85.0797 136.808C84.4643 136.845 83.8003 136.618 83.2632 136.915C82.8629 137.139 82.6552 137.599 82.2861 137.867C81.9044 138.105 81.4605 138.226 81.0103 138.213C80.5623 138.203 80.1162 138.276 79.6949 138.428C79.4861 138.51 79.3091 138.656 79.1902 138.846C79.0713 139.035 79.0167 139.258 79.0346 139.48L94.4893 139.328Z" fill="#FAFAFA"/>
<path d="M64.5342 99.1257C64.5036 99.1504 64.4712 99.1728 64.4372 99.1927L64.1464 99.3711L63.0274 100.044L62.2106 100.524L61.2521 101.122C60.5694 101.561 59.7601 102.035 58.9394 102.61L57.6154 103.509C57.1578 103.826 56.6977 104.179 56.2092 104.528C55.2321 105.223 54.236 106.015 53.1731 106.863C51.088 108.57 48.8649 110.536 46.6641 112.737C44.6083 114.829 42.66 117.023 40.8265 119.311C40.0021 120.378 39.2039 121.378 38.5176 122.363C38.1707 122.85 37.8238 123.315 37.5104 123.776L36.6239 125.107C36.0419 125.944 35.5758 126.739 35.132 127.427L34.5389 128.386L34.065 129.208L33.4047 130.342C33.3338 130.464 33.274 130.561 33.2294 130.635C33.1848 130.71 33.1659 130.736 33.1622 130.732C33.1585 130.728 33.1622 130.695 33.2108 130.628L33.3712 130.323L33.9978 129.171C34.1408 128.918 34.2924 128.643 34.4554 128.338C34.6184 128.033 34.8271 127.717 35.0373 127.368C35.4588 126.677 35.9175 125.881 36.4921 125.031L37.3723 123.691C37.682 123.227 38.03 122.762 38.3732 122.271C39.0558 121.282 39.8651 120.276 40.671 119.2C44.3056 114.595 48.4526 110.416 53.0324 106.743C54.099 105.914 55.1025 105.111 56.0871 104.423C56.5758 104.074 57.0383 103.721 57.5007 103.408L58.8362 102.52C59.6792 101.936 60.4774 101.471 61.1674 101.033C61.5143 100.821 61.8314 100.62 62.1334 100.441L62.9627 99.9769L64.1152 99.3375L64.4175 99.1776L64.5342 99.1257Z" fill="#263238"/>
<path d="M73.7174 91.31C73.6484 91.3477 73.5742 91.3752 73.4972 91.3918L72.8518 91.5914C72.5721 91.6732 72.2289 91.7735 71.8335 91.9075C71.438 92.0415 70.983 92.1714 70.4894 92.3499C69.5011 92.6882 68.3372 93.1343 67.0614 93.6696C65.7857 94.205 64.4131 94.8557 63.0006 95.5994C61.5882 96.3431 60.2888 97.135 59.1252 97.8798C57.9615 98.6246 56.9469 99.3669 56.1113 99.9803C55.6898 100.289 55.3206 100.586 54.9923 100.843C54.664 101.099 54.388 101.319 54.1604 101.508L53.6345 101.929C53.5779 101.983 53.5139 102.029 53.4443 102.066C53.4952 102.006 53.5514 101.95 53.6122 101.899L54.1121 101.449C54.3323 101.256 54.6008 101.018 54.9251 100.758C55.2494 100.497 55.6114 100.188 56.0441 99.874C56.8686 99.2269 57.8866 98.4983 59.0282 97.7324C60.1698 96.9665 61.4976 96.1858 62.9111 95.431C64.3247 94.6761 65.7137 94.0442 66.9917 93.5052C68.2697 92.9661 69.451 92.546 70.4494 92.2262C70.9455 92.0514 71.4005 91.9252 71.7997 91.806C72.1989 91.6869 72.5458 91.5902 72.8292 91.521L73.4869 91.3573C73.5627 91.3367 73.6397 91.3209 73.7174 91.31Z" fill="#263238"/>
<path d="M27.8484 131.238C27.1639 130.894 26.4091 130.713 25.6426 130.707C24.876 130.701 24.1186 130.872 23.429 131.206C22.7394 131.539 22.1364 132.027 21.6668 132.631C21.1972 133.235 20.8736 133.938 20.7214 134.687C20.5691 135.436 20.5922 136.21 20.7889 136.948C20.9855 137.687 21.3504 138.37 21.8552 138.945C22.36 139.52 22.9911 139.971 23.6993 140.264C24.4076 140.556 25.1739 140.681 25.9387 140.63C26.3105 140.604 26.625 140.496 27.0354 140.431L31.7617 139.57C31.9023 139.548 32.0357 139.493 32.1508 139.409C32.2659 139.326 32.3594 139.216 32.4236 139.089C32.4878 138.963 32.5209 138.822 32.5202 138.681C32.5195 138.539 32.4849 138.399 32.4194 138.273L30.3318 134.054C30.1748 133.687 29.998 133.328 29.8022 132.979C29.3207 132.234 28.6455 131.632 27.8484 131.238ZM27.5502 136.648C27.3554 137.035 27.0499 137.355 26.6725 137.568C26.295 137.782 25.8625 137.879 25.4297 137.847C24.9969 137.816 24.5833 137.657 24.2411 137.391C23.8989 137.125 23.6436 136.763 23.5074 136.353C23.3713 135.942 23.3605 135.5 23.4763 135.083C23.5921 134.666 23.8294 134.293 24.1581 134.011C24.4868 133.728 24.8922 133.549 25.3229 133.497C25.7536 133.444 26.1904 133.52 26.5779 133.715C27.0968 133.975 27.4906 134.431 27.6729 134.981C27.8552 135.531 27.8111 136.13 27.5502 136.648Z" fill="#263F97"/>
<path d="M149.212 98.278C149.593 97.6155 149.816 96.8743 149.863 96.112C149.91 95.3498 149.78 94.587 149.483 93.883C149.186 93.1789 148.73 92.5526 148.151 92.0527C147.572 91.5528 146.885 91.1927 146.144 91.0004C145.402 90.8082 144.626 90.7889 143.876 90.9442C143.126 91.0995 142.422 91.425 141.818 91.8956C141.215 92.3662 140.728 92.9692 140.397 93.6576C140.065 94.3461 139.897 95.1015 139.906 95.8651V95.8873C139.935 96.2613 139.983 96.6336 140.049 97.0027L140.657 101.75C140.675 101.888 140.724 102.02 140.801 102.135C140.879 102.25 140.982 102.346 141.102 102.415C141.223 102.484 141.358 102.524 141.497 102.532C141.636 102.539 141.775 102.515 141.903 102.461L146.243 100.602C146.625 100.465 146.998 100.308 147.362 100.129C148.133 99.6869 148.772 99.0479 149.212 98.278ZM143.808 97.6905C143.43 97.4767 143.125 97.156 142.93 96.769C142.736 96.3819 142.661 95.9461 142.715 95.5166C142.769 95.0871 142.95 94.6834 143.235 94.3565C143.52 94.0297 143.895 93.7944 144.314 93.6807C144.733 93.5669 145.177 93.5796 145.589 93.7173C146 93.8551 146.362 94.1115 146.627 94.4542C146.892 94.7969 147.05 95.2104 147.079 95.6422C147.108 96.0741 147.008 96.505 146.792 96.8802C146.503 97.3808 146.027 97.747 145.468 97.8988C144.908 98.0507 144.312 97.9758 143.808 97.6905H143.808Z" fill="#263F97"/>
<path d="M74.9176 95.8459C74.6556 95.4633 74.3086 95.1462 73.9036 94.9191C73.4986 94.6919 73.0466 94.561 72.5825 94.5364C72.1185 94.5118 71.655 94.5943 71.2282 94.7773C70.8013 94.9604 70.4226 95.2391 70.1214 95.5918C69.8202 95.9445 69.6047 96.3617 69.4917 96.811C69.3786 97.2603 69.371 97.7295 69.4695 98.1821C69.5681 98.6348 69.77 99.0587 70.0596 99.4208C70.3493 99.783 70.7188 100.074 71.1396 100.27C71.3446 100.367 71.5425 100.401 71.781 100.486L74.5412 101.408C74.6213 101.435 74.7065 101.442 74.7901 101.431C74.8737 101.419 74.9534 101.388 75.0231 101.341C75.0927 101.293 75.1504 101.23 75.1917 101.157C75.233 101.083 75.2567 101.001 75.261 100.917L75.3917 98.067C75.4163 97.8261 75.4274 97.5841 75.4252 97.3421C75.3925 96.8078 75.2173 96.2919 74.9178 95.8476L74.9176 95.8459ZM73.1683 98.6268C72.9518 98.7749 72.6961 98.8557 72.4335 98.859C72.1709 98.8623 71.9132 98.7879 71.6931 98.6452C71.4729 98.5025 71.3001 98.298 71.1966 98.0574C71.0931 97.8169 71.0634 97.5511 71.1114 97.2938C71.1594 97.0365 71.2829 96.7991 71.4662 96.6117C71.6496 96.4243 71.8845 96.2953 72.1414 96.241C72.3983 96.1867 72.6656 96.2095 72.9094 96.3066C73.1533 96.4037 73.3628 96.5708 73.5114 96.7865C73.6101 96.9298 73.6796 97.0911 73.7157 97.2611C73.7519 97.4312 73.7541 97.6066 73.7222 97.7775C73.6904 97.9484 73.6251 98.1114 73.53 98.2571C73.4349 98.4028 73.312 98.5284 73.1683 98.6268Z" fill="#263F97"/>
<path d="M113.184 141.06C113.184 140.598 113.077 140.141 112.872 139.726C112.666 139.311 112.368 138.949 111.999 138.668C111.63 138.387 111.202 138.194 110.746 138.104C110.291 138.015 109.821 138.032 109.372 138.153C108.924 138.274 108.51 138.496 108.162 138.803C107.814 139.109 107.542 139.491 107.366 139.919C107.191 140.348 107.116 140.811 107.149 141.272C107.182 141.734 107.321 142.182 107.556 142.581C107.67 142.778 107.817 142.916 107.966 143.12L109.719 145.436C109.769 145.504 109.835 145.559 109.91 145.597C109.986 145.635 110.069 145.655 110.154 145.655C110.238 145.655 110.321 145.635 110.397 145.597C110.472 145.559 110.538 145.504 110.588 145.436L112.315 143.156C112.472 142.97 112.619 142.777 112.755 142.576C113.031 142.117 113.179 141.594 113.184 141.059V141.06ZM110.163 142.362C109.899 142.362 109.642 142.285 109.422 142.14C109.203 141.994 109.031 141.787 108.93 141.545C108.829 141.302 108.802 141.035 108.853 140.778C108.904 140.52 109.03 140.283 109.216 140.097C109.402 139.911 109.64 139.785 109.898 139.733C110.156 139.681 110.424 139.708 110.668 139.808C110.911 139.908 111.12 140.078 111.266 140.297C111.412 140.515 111.491 140.772 111.491 141.034C111.491 141.386 111.351 141.723 111.102 141.972C110.853 142.22 110.515 142.361 110.163 142.362Z" fill="#263F97"/>
<path d="M182.04 131.405C182.397 131.109 182.68 130.735 182.869 130.313C183.057 129.89 183.146 129.43 183.127 128.968C183.108 128.506 182.983 128.054 182.761 127.648C182.539 127.242 182.226 126.892 181.847 126.626C181.467 126.36 181.032 126.185 180.573 126.113C180.115 126.042 179.646 126.077 179.203 126.216C178.761 126.354 178.356 126.593 178.021 126.912C177.685 127.232 177.428 127.624 177.269 128.058C177.191 128.274 177.176 128.475 177.113 128.717L176.449 131.542C176.429 131.624 176.428 131.71 176.447 131.792C176.466 131.874 176.504 131.951 176.558 132.016C176.612 132.081 176.68 132.133 176.758 132.167C176.835 132.2 176.92 132.216 177.004 132.212L179.864 132.078C180.107 132.079 180.349 132.068 180.591 132.044C181.122 131.964 181.622 131.743 182.038 131.405H182.04ZM179.097 129.918C179.098 129.669 179.198 129.432 179.374 129.257C179.551 129.082 179.79 128.984 180.039 128.984C180.288 128.985 180.526 129.084 180.702 129.259C180.878 129.435 180.977 129.673 180.977 129.921C180.977 130.169 180.878 130.407 180.702 130.583C180.526 130.759 180.288 130.858 180.039 130.858C179.79 130.859 179.551 130.761 179.374 130.586C179.198 130.411 179.098 130.173 179.097 129.925V129.918Z" fill="#263F97"/>
<path d="M129.649 41.8704L119.156 27.6352L123.805 23.5072L133.608 40.8969L129.649 41.8704Z" fill="#FFBE9D"/>
<path d="M129.649 41.8704C129.649 41.8704 130.979 44.8698 131.287 45.1061C131.595 45.3424 132.912 48.473 133.376 48.3047C133.84 48.1365 133.538 48.0756 133.385 47.5577C133.231 47.0397 132.605 45.8993 132.817 45.8055C133.029 45.7116 134.989 49.2337 135.194 49.2952C135.399 49.3567 135.675 49.6233 135.639 49.1102C135.639 49.1102 136.13 49.585 136.429 49.3392C136.582 49.2412 136.696 49.0947 136.754 48.9235C136.812 48.7522 136.81 48.5665 136.748 48.3967C136.589 48.0599 135.477 45.3324 135.477 45.3324C135.477 45.3324 136.747 48.3335 137.047 48.2089C137.347 48.0843 137.35 48.2057 137.435 47.748C137.519 47.2903 136.783 45.2781 136.783 45.2781L135.455 43.1089C135.455 43.1089 136.861 44.4584 137.257 44.5442C137.654 44.63 138.286 44.5272 138.375 44.1385C138.465 43.7499 138.123 43.7195 137.771 43.5664C137.419 43.4134 135.705 41.7561 135.302 41.4896C134.898 41.223 132.515 40.0552 132.515 40.0552L129.649 41.8704Z" fill="#FFBE9D"/>
<path d="M134.394 3.6068C134.508 3.4731 134.654 3.37074 134.819 3.30949C135.357 3.07363 135.966 3.051 136.52 3.24621C136.208 2.81217 135.983 2.32242 135.856 1.80359C135.795 1.5424 135.802 1.26988 135.878 1.01253C135.954 0.755192 136.095 0.521788 136.289 0.335027C136.503 0.185838 136.747 0.083357 137.004 0.034247C137.261 -0.014863 137.526 -0.00950301 137.781 0.0499802C138.51 0.142879 139.188 0.47664 139.705 0.998047C139.958 1.26211 140.144 1.5831 140.247 1.93389C140.349 2.28467 140.366 2.65493 140.294 3.01333L138.803 4.17718C138.371 4.7291 137.799 5.1564 137.147 5.41514C137.006 5.49174 136.848 5.52909 136.689 5.52322C136.529 5.51734 136.374 5.46847 136.24 5.38179C136.15 5.28218 136.093 5.1575 136.076 5.02453C136.06 4.89157 136.084 4.7567 136.147 4.6381C136.28 4.40086 136.461 4.19433 136.68 4.03209C136.122 4.28568 135.509 4.39808 134.897 4.35932C134.791 4.36447 134.686 4.34535 134.589 4.30344C134.492 4.26153 134.406 4.19795 134.337 4.1176C134.298 4.036 134.282 3.94482 134.292 3.85466C134.302 3.7645 134.338 3.67905 134.395 3.60822L134.394 3.6068Z" fill="#263238"/>
<path d="M136.001 0.364859C136.001 0.383387 136.269 0.390798 136.68 0.502537C137.213 0.651613 137.703 0.922781 138.112 1.2944C138.518 1.66937 138.832 2.13246 139.03 2.6478C139.179 3.04687 139.209 3.30968 139.227 3.30968C139.237 3.24687 139.237 3.18293 139.227 3.12013C139.203 2.95197 139.163 2.78642 139.108 2.62557C138.925 2.08744 138.611 1.6032 138.193 1.21658C137.77 0.834135 137.257 0.565422 136.701 0.435836C136.536 0.396389 136.367 0.37027 136.198 0.357732C136.132 0.348948 136.065 0.351455 136 0.365144L136.001 0.364859Z" fill="#455A64"/>
<path d="M138.746 3.92652C138.801 3.79652 138.879 3.67794 138.978 3.57705C139.308 3.11737 139.767 2.76546 140.298 2.56571C140.345 2.54789 140.396 2.54065 140.446 2.54449C140.496 2.54833 140.545 2.56317 140.589 2.58794C140.715 2.68457 140.671 2.88923 140.566 3.0118C140.447 3.12234 140.341 3.24675 140.252 3.38237L139.451 4.21527C139.378 4.31891 139.274 4.39598 139.153 4.43476C139.093 4.45416 139.03 4.45714 138.969 4.44339C138.908 4.42964 138.851 4.39967 138.806 4.35666C138.754 4.2988 138.721 4.2269 138.71 4.15009C138.7 4.07329 138.712 3.99506 138.746 3.92538V3.92652Z" fill="#455A64"/>
<path d="M135.602 11.2621C135.812 9.96639 136.136 8.69135 136.568 7.4513C137.002 6.20594 137.74 5.0879 138.716 4.19806C138.865 4.06779 139.992 3.25741 140.156 3.36886C140.32 3.48031 139.388 4.2984 139.391 4.4395C139.38 5.80606 138.951 7.13675 138.162 8.254C137.423 9.34834 136.564 10.3573 135.602 11.2621Z" fill="#263238"/>
<path d="M132.517 16.8872L137.914 6.81163C139.406 3.87821 142.368 2.30162 145.27 3.8708L145.576 4.06036C146.824 4.83234 147.734 6.04442 148.127 7.45539C148.519 8.86635 148.363 10.3728 147.692 11.6748C146.376 14.2217 144.883 17.0337 144.055 18.3264C142.35 20.9885 139.4 19.7391 139.4 19.7391C139.4 19.7391 138.337 21.5982 137.882 22.3863C137.882 22.3863 137.468 22.6169 134.898 21.2002C132.328 19.7836 132.517 16.8872 132.517 16.8872Z" fill="#FFBE9D"/>
<path d="M139.399 19.7384C138.158 18.966 137.165 17.8551 136.539 16.5374C136.539 16.5374 136.167 19.0173 139.012 20.4374L139.399 19.7384Z" fill="#EB996E"/>
<path d="M145.818 13.2928C145.758 13.3938 145.661 13.4672 145.547 13.4971C145.433 13.527 145.312 13.5111 145.21 13.4527C145.158 13.4265 145.113 13.3902 145.076 13.346C145.038 13.3019 145.01 13.2507 144.993 13.1956C144.976 13.1405 144.97 13.0825 144.976 13.0251C144.982 12.9677 144.999 12.9121 145.027 12.8615C145.088 12.7603 145.186 12.6868 145.3 12.6569C145.415 12.627 145.536 12.643 145.639 12.7016C145.69 12.7282 145.736 12.7647 145.772 12.809C145.809 12.8533 145.837 12.9045 145.853 12.9596C145.87 13.0147 145.876 13.0725 145.87 13.1298C145.863 13.187 145.846 13.2424 145.818 13.2928Z" fill="#263238"/>
<path d="M146.481 12.3325C146.403 12.3325 146.246 11.962 145.832 11.7006C145.418 11.4392 144.985 11.4663 144.971 11.387C144.956 11.3078 145.067 11.2904 145.261 11.2756C145.524 11.2589 145.785 11.3253 146.007 11.4652C146.223 11.5983 146.39 11.7962 146.485 12.0304C146.535 12.2063 146.52 12.3223 146.481 12.3325Z" fill="#263238"/>
<path d="M141.913 11.1472C141.883 11.1973 141.844 11.241 141.797 11.276C141.75 11.3109 141.697 11.3363 141.641 11.3509C141.585 11.3654 141.526 11.3686 141.468 11.3605C141.41 11.3524 141.355 11.3329 141.305 11.3034C141.253 11.2775 141.207 11.2416 141.17 11.1978C141.133 11.154 141.105 11.1031 141.088 11.0483C141.071 10.9935 141.065 10.9358 141.071 10.8787C141.077 10.8216 141.094 10.7662 141.122 10.7159C141.182 10.6147 141.28 10.5412 141.395 10.5113C141.509 10.4814 141.631 10.4974 141.733 10.556C141.785 10.5826 141.83 10.6191 141.867 10.6634C141.904 10.7077 141.931 10.7589 141.948 10.814C141.965 10.8691 141.97 10.9269 141.964 10.9842C141.958 11.0414 141.94 11.0968 141.913 11.1472Z" fill="#263238"/>
<path d="M142.286 10.065C142.204 10.065 142.047 9.69448 141.633 9.43794C141.219 9.1814 140.786 9.19993 140.775 9.12182C140.764 9.04372 140.872 9.02519 141.061 9.01037C141.317 8.99761 141.571 9.06379 141.789 9.19993C142.004 9.33284 142.172 9.53088 142.266 9.76518C142.335 9.93849 142.316 10.0574 142.286 10.065Z" fill="#263238"/>
<path d="M141.752 14.2212C142.013 14.2866 142.264 14.3854 142.499 14.5151C142.611 14.5721 142.727 14.6117 142.785 14.5521C142.866 14.4456 142.909 14.3153 142.908 14.1816C142.967 13.8669 143.031 13.5359 143.098 13.1888C143.231 12.3299 143.433 11.4831 143.702 10.6567C143.637 11.5234 143.503 12.3837 143.302 13.2295C143.231 13.5753 143.164 13.9062 143.097 14.2223C143.084 14.3898 143.014 14.5477 142.896 14.6684C142.858 14.6961 142.814 14.7145 142.768 14.7222C142.721 14.73 142.673 14.7269 142.628 14.7132C142.559 14.6951 142.494 14.6662 142.434 14.6277C142.19 14.5232 141.96 14.3869 141.751 14.2223L141.752 14.2212Z" fill="#263238"/>
<path d="M143.092 9.1349C142.972 9.2056 142.634 8.85613 142.144 8.55113C141.654 8.24613 141.197 8.0828 141.197 7.94512C141.197 7.87813 141.346 7.8311 141.569 7.84849C141.862 7.87751 142.143 7.97699 142.389 8.13838C142.64 8.29233 142.85 8.50397 143.001 8.75551C143.129 8.95276 143.148 9.09899 143.092 9.1349Z" fill="#263238"/>
<path d="M147.06 11.4889C146.917 11.5297 146.65 11.225 146.255 10.9721C145.859 10.7193 145.482 10.5779 145.464 10.4331C145.464 10.3624 145.572 10.3028 145.778 10.3068C146.046 10.3251 146.304 10.415 146.525 10.5671C146.752 10.7117 146.935 10.9162 147.054 11.158C147.142 11.3327 147.127 11.4556 147.06 11.4889Z" fill="#263238"/>
<path d="M136.9 8.9349C136.866 8.88645 135.389 7.24685 134.289 9.11705C133.189 10.9872 135.315 11.6862 135.347 11.634C135.379 11.5819 136.9 8.9349 136.9 8.9349Z" fill="#FFBE9D"/>
<path d="M135.199 10.5967H135.085C134.987 10.5849 134.899 10.5354 134.838 10.459C134.761 10.313 134.725 10.1492 134.733 9.98449C134.741 9.81977 134.792 9.66013 134.883 9.52206C134.973 9.35728 135.1 9.21588 135.255 9.10932C135.304 9.06411 135.363 9.03061 135.428 9.01132C135.492 8.99202 135.56 8.98742 135.626 8.99786C135.669 9.01011 135.707 9.03651 135.733 9.07274C135.759 9.10898 135.772 9.15292 135.769 9.19739C135.769 9.26438 135.729 9.29403 135.741 9.30514C135.753 9.31626 135.798 9.30514 135.827 9.21222C135.845 9.16051 135.845 9.10402 135.827 9.05231C135.796 8.9846 135.742 8.93037 135.674 8.89981C135.588 8.87059 135.495 8.8638 135.406 8.88006C135.317 8.89632 135.233 8.93511 135.163 8.99273C134.988 9.10761 134.846 9.26448 134.748 9.44881C134.64 9.60884 134.583 9.79742 134.583 9.9904C134.583 10.1834 134.64 10.372 134.748 10.532C134.791 10.5751 134.842 10.6084 134.899 10.6296C134.956 10.6508 135.016 10.6593 135.077 10.6546C135.173 10.6375 135.206 10.6004 135.199 10.5967Z" fill="#EB996E"/>
<path d="M148.213 7.91967C148.613 7.91967 148.258 6.43258 147.698 5.65924C146.859 4.5068 145.307 3.21269 144.091 2.91909C142.633 2.54853 141.234 2.59926 139.955 3.38371C138.683 4.20166 137.652 5.34309 136.97 6.69026C136.732 7.08318 136.604 7.53246 136.599 7.9915C136.627 8.55304 136.97 9.10689 136.636 9.66074C136.503 9.86257 136.456 10.1086 136.505 10.3448C136.643 10.9064 137.251 10.8009 137.649 10.5643C138.481 10.0624 139.025 9.21093 139.54 8.38572C139.94 7.8193 140.244 7.19123 140.439 6.52664C140.525 6.15608 140.543 5.78296 140.648 5.41125C140.691 5.22817 140.772 5.0564 140.888 4.90758C141.003 4.75875 141.149 4.63636 141.316 4.5487C141.393 4.52048 141.473 4.49809 141.554 4.48172C141.949 4.40217 142.357 4.42918 142.738 4.55994C143.118 4.6907 143.456 4.92045 143.718 5.2254C144.568 6.19941 146.063 7.78342 146.739 7.69049C147.204 7.65907 147.657 7.53295 148.07 7.31993L148.213 7.91967Z" fill="#263238"/>
<path d="M144.337 2.72116C144.957 2.82954 145.549 3.05955 146.078 3.39783C146.608 3.73611 147.064 4.17591 147.422 4.69169C147.618 4.96097 147.758 5.26732 147.832 5.59204C147.905 5.91676 147.912 6.25306 147.851 6.58041C147.779 6.90607 147.595 7.19626 147.331 7.40018C147.066 7.60409 146.738 7.70874 146.404 7.6958H146.355C145.397 7.51366 144.934 7.11202 144.289 6.37974C143.748 5.76632 143.382 5.01522 142.838 4.4018C142.251 3.75012 141.482 3.28799 140.629 3.07462C141.812 2.63218 143.092 2.51022 144.337 2.72116Z" fill="#263238"/>
<path d="M141.003 2.91489C141.101 2.91825 141.198 2.9294 141.294 2.94824C141.557 2.99287 141.81 3.08482 142.04 3.2196C142.38 3.41788 142.678 3.6806 142.916 3.99294C143.21 4.37796 143.468 4.78814 143.688 5.21864C143.913 5.65296 144.168 6.07051 144.453 6.468C144.691 6.7941 144.987 7.07422 145.326 7.29464C145.554 7.44122 145.807 7.54462 146.072 7.59964C146.143 7.61495 146.216 7.62363 146.289 7.62558H146.367C146.008 7.57625 145.665 7.44981 145.36 7.25501C145.035 7.03213 144.752 6.75395 144.524 6.43322C144.247 6.03669 143.998 5.62184 143.778 5.19156C143.557 4.75433 143.293 4.3397 142.991 3.9536C142.741 3.63625 142.43 3.37203 142.076 3.17656C141.836 3.04355 141.573 2.96007 141.3 2.93114C141.227 2.92426 141.153 2.92426 141.08 2.93114L141.003 2.91489Z" fill="#455A64"/>
<path d="M142.148 2.75143C142.477 2.79835 142.793 2.91091 143.077 3.08237C143.38 3.27407 143.648 3.51683 143.867 3.79984C144.134 4.14601 144.361 4.52 144.546 4.91523C144.751 5.33538 144.918 5.75184 145.125 6.11242C145.294 6.43743 145.496 6.74399 145.729 7.02714C145.887 7.2181 146.068 7.38805 146.27 7.53281C146.324 7.57179 146.381 7.60657 146.441 7.63686C146.478 7.65909 146.501 7.67021 146.505 7.66536C146.236 7.46905 145.994 7.23912 145.785 6.98125C145.564 6.69654 145.372 6.39105 145.21 6.0691C145.02 5.69854 144.839 5.29206 144.636 4.86819C144.451 4.46029 144.218 4.07587 143.942 3.72316C143.711 3.4351 143.43 3.19081 143.113 3.00199C142.899 2.87607 142.664 2.7892 142.419 2.74545C142.353 2.73817 142.285 2.73817 142.219 2.74545C142.17 2.74374 142.148 2.74773 142.148 2.75143Z" fill="#455A64"/>
<path d="M138.825 4.05374C138.798 4.10496 138.78 4.16028 138.772 4.21736C138.733 4.36494 138.706 4.51533 138.69 4.66716C138.577 5.67912 138.802 6.70009 139.332 7.57094C139.41 7.70148 139.498 7.82542 139.597 7.9415C139.664 8.02701 139.705 8.07177 139.711 8.06778C139.717 8.06379 139.58 7.86824 139.394 7.52875C138.908 6.65051 138.689 5.65 138.765 4.64978C138.791 4.27323 138.843 4.05374 138.825 4.05374Z" fill="#455A64"/>
<path d="M137.839 5.22836C137.805 5.27043 137.78 5.31889 137.765 5.37089C137.716 5.50631 137.684 5.64755 137.672 5.79105C137.639 6.26979 137.747 6.74759 137.981 7.16668C138.215 7.57682 138.505 7.95228 138.843 8.28208C138.971 8.42856 139.115 8.56074 139.272 8.67629C139.16 8.51945 139.035 8.37155 138.9 8.2339C138.584 7.89399 138.308 7.51986 138.076 7.11851C137.852 6.71501 137.739 6.25978 137.747 5.79874C137.765 5.60673 137.796 5.4162 137.841 5.22865L137.839 5.22836Z" fill="#455A64"/>
<path d="M146.896 4.64838C146.913 4.80792 146.943 4.96585 146.985 5.1207C147.068 5.49403 147.099 5.87667 147.079 6.25832C147.052 6.63686 146.924 7.00127 146.707 7.313C146.605 7.43424 146.497 7.54968 146.382 7.65876C146.424 7.6457 146.462 7.62554 146.497 7.59919C146.596 7.53094 146.685 7.44962 146.762 7.35747C146.999 7.04658 147.139 6.67277 147.164 6.28284C147.19 5.89052 147.147 5.49681 147.038 5.11899C147.015 4.95512 146.967 4.79578 146.895 4.64667L146.896 4.64838Z" fill="#455A64"/>
<path d="M147.694 6.28382C147.592 6.60585 147.429 6.9051 147.213 7.16491C146.973 7.40451 146.689 7.59634 146.377 7.73015C146.481 7.73146 146.583 7.70718 146.675 7.65946C146.909 7.56623 147.118 7.42129 147.287 7.2356C147.457 7.04965 147.584 6.82876 147.659 6.58854C147.695 6.49126 147.707 6.38639 147.692 6.28354L147.694 6.28382Z" fill="#455A64"/>
<path d="M134.282 10.9724C134.261 11.0906 134.232 11.2073 134.196 11.3219C134.17 11.4381 134.183 11.5597 134.234 11.6676C134.269 11.7264 134.319 11.7757 134.378 11.8113C134.437 11.8469 134.504 11.8677 134.573 11.872C134.643 11.8744 134.712 11.8616 134.776 11.8346C134.84 11.8077 134.898 11.7671 134.945 11.7158C135.031 11.6313 135.089 11.5215 135.109 11.4023C135.123 11.2792 135.129 11.1555 135.128 11.0317C135.146 11.0095 135.232 11.1543 135.217 11.4023C135.208 11.5496 135.15 11.6899 135.053 11.8013C134.991 11.8715 134.915 11.9269 134.829 11.9636C134.743 12.0002 134.65 12.0172 134.557 12.0131C134.461 12.0078 134.369 11.9775 134.289 11.9253C134.209 11.8731 134.145 11.8009 134.102 11.7158C134.042 11.5793 134.036 11.4257 134.083 11.2845C134.114 11.1621 134.184 11.0527 134.282 10.9724Z" fill="#263238"/>
<path d="M133.948 10.1057C133.948 10.1279 133.862 10.1578 133.817 10.2804C133.791 10.3461 133.791 10.4191 133.817 10.4848C133.836 10.5218 133.864 10.5539 133.897 10.5786C133.931 10.6033 133.97 10.62 134.011 10.6273C134.091 10.6398 134.173 10.6259 134.244 10.5876C134.316 10.5494 134.373 10.4889 134.406 10.4155C134.466 10.2929 134.466 10.1997 134.489 10.196C134.511 10.1923 134.556 10.2926 134.511 10.4563C134.481 10.5533 134.423 10.639 134.343 10.7017C134.291 10.7418 134.23 10.7697 134.166 10.7832C134.102 10.7967 134.035 10.7955 133.971 10.7798C133.912 10.7699 133.856 10.746 133.808 10.7099C133.76 10.6739 133.722 10.6268 133.696 10.5727C133.671 10.5187 133.659 10.4593 133.661 10.3995C133.663 10.3398 133.68 10.2815 133.71 10.2296C133.818 10.072 133.957 10.0831 133.948 10.1057Z" fill="#263238"/>
<path d="M134.55 8.7972C134.55 8.81944 134.457 8.7972 134.334 8.83426C134.259 8.85613 134.194 8.90257 134.15 8.96597C134.105 9.02938 134.083 9.10599 134.088 9.18329C134.093 9.26059 134.124 9.33399 134.176 9.39149C134.228 9.44899 134.298 9.48719 134.375 9.49984C134.446 9.5153 134.52 9.5153 134.591 9.49984C134.564 9.53418 134.529 9.56111 134.489 9.57803C134.449 9.59496 134.405 9.60131 134.362 9.59647C134.264 9.59607 134.169 9.56194 134.093 9.49984C134.046 9.46045 134.007 9.41169 133.98 9.35665C133.952 9.30161 133.936 9.24148 133.933 9.18002C133.924 9.07002 133.958 8.96082 134.027 8.87455C134.096 8.78829 134.195 8.73139 134.305 8.71539C134.483 8.70798 134.561 8.78238 134.55 8.7972Z" fill="#263238"/>
<path d="M140.711 14.1103C140.775 14.1474 140.521 14.5564 140.689 15.0658C140.857 15.5752 141.327 15.8095 141.293 15.8614C141.26 15.9133 141.144 15.8614 140.957 15.7722C140.718 15.623 140.539 15.3955 140.45 15.1288C140.363 14.8714 140.379 14.5903 140.495 14.3444C140.577 14.1662 140.685 14.0918 140.711 14.1103Z" fill="#263238"/>
<path d="M118.761 84.3609L116.471 90.5465C116.471 90.5465 123.043 93.8245 122.98 95.0972L109.742 93.6546L112.849 83.408L118.761 84.3609Z" fill="#455A64"/>
<path d="M112.442 89.5333C112.311 89.5591 112.193 89.6319 112.111 89.738C112.029 89.8441 111.989 89.9762 111.998 90.1096C112.019 90.2411 112.089 90.3599 112.194 90.4415C112.3 90.5231 112.433 90.5613 112.565 90.5483C112.705 90.5221 112.83 90.4453 112.916 90.3327C113.002 90.2201 113.043 90.0797 113.032 89.9386C112.996 89.803 112.91 89.6861 112.791 89.6126C112.671 89.5391 112.527 89.5147 112.39 89.5444" fill="white"/>
<path d="M109.742 93.6561L110.059 92.6114L122.547 94.3739C122.547 94.3739 123.106 94.6937 122.994 95.1175L109.742 93.6561Z" fill="white"/>
<path d="M116.482 90.6334C116.482 90.6966 116.146 90.6929 115.803 90.864C115.46 91.035 115.266 91.2878 115.206 91.2582C115.146 91.2285 115.288 90.864 115.706 90.6596C116.124 90.4552 116.501 90.5738 116.482 90.6334Z" fill="#263238"/>
<path d="M117.896 91.3923C117.896 91.4593 117.612 91.5374 117.362 91.7865C117.112 92.0356 117.019 92.3144 116.952 92.307C116.885 92.2996 116.888 91.9364 117.205 91.6229C117.523 91.3093 117.899 91.3327 117.896 91.3923Z" fill="#263238"/>
<path d="M118.511 93.1397C118.451 93.1397 118.397 92.8162 118.601 92.4816C118.805 92.1469 119.123 92.0392 119.144 92.111C119.165 92.1828 118.958 92.339 118.793 92.613C118.629 92.8869 118.575 93.1397 118.511 93.1397Z" fill="#263238"/>
<path d="M116.989 89.2503C116.952 89.3073 116.674 89.1574 116.31 89.1078C115.945 89.0582 115.642 89.1078 115.62 89.0508C115.597 88.9937 115.914 88.8202 116.343 88.8834C116.772 88.9467 117.03 89.1947 116.989 89.2503Z" fill="#263238"/>
<path d="M77.1517 71.3746L70.3258 72.6685C70.3258 72.6685 70.5011 79.9942 69.3487 80.5321L64.4214 68.1995L74.9474 66.1187L77.1517 71.3746Z" fill="#455A64"/>
<path d="M69.338 68.6459C69.255 68.5413 69.136 68.4709 69.0041 68.4483C68.8722 68.4256 68.7365 68.4524 68.6231 68.5233C68.5149 68.6024 68.4417 68.7201 68.4188 68.8518C68.3958 68.9835 68.425 69.1189 68.5001 69.2297C68.5882 69.3371 68.7126 69.4088 68.85 69.4314C68.9873 69.4539 69.1282 69.4258 69.2462 69.3522C69.3489 69.2584 69.4112 69.1287 69.4203 68.9901C69.4293 68.8516 69.3844 68.7149 69.2949 68.6086" fill="white"/>
<path d="M64.4219 68.1993L65.4774 68.0024L69.767 79.8107C69.767 79.8107 69.7447 80.4578 69.3343 80.5544L64.4219 68.1993Z" fill="white"/>
<path d="M70.2591 72.717C70.1956 72.7393 70.0504 72.4494 69.7369 72.2299C69.4235 72.0104 69.1078 71.9511 69.1104 71.8878C69.1129 71.8246 69.4821 71.7738 69.8565 72.0441C70.2308 72.3143 70.3263 72.7059 70.2591 72.717Z" fill="#263238"/>
<path d="M70.2479 74.3223C70.1956 74.3593 69.9869 74.1364 69.6511 74.0372C69.3154 73.938 69.022 73.9802 68.9983 73.9232C68.9745 73.8662 69.3043 73.6852 69.7218 73.8229C70.1393 73.9605 70.304 74.2926 70.2479 74.3223Z" fill="#263238"/>
<path d="M68.9902 75.6796C68.9531 75.6275 69.2216 75.4268 69.6168 75.449C70.012 75.4713 70.2508 75.7019 70.2099 75.7463C70.169 75.7908 69.9265 75.6868 69.6019 75.6719C69.2774 75.6571 69.02 75.7355 68.9902 75.6796Z" fill="#263238"/>
<path d="M71.7213 72.5161C71.6541 72.5161 71.6578 72.1963 71.5311 71.8505C71.4044 71.5048 71.2102 71.2668 71.2551 71.2186C71.3 71.1704 71.5983 71.3674 71.7439 71.7764C71.8894 72.1855 71.777 72.5309 71.7213 72.5161Z" fill="#263238"/>
<path d="M106.777 30.5513C106.777 30.5513 102.301 32.7598 100.114 36.1878C97.9266 39.6158 91.7147 56.4398 91.7147 56.4398C91.7147 56.4398 89.1558 58.0461 88.7606 59.2396C88.3654 60.4331 71.2817 65.9878 71.2817 65.9878L72.9564 72.7545C72.9564 72.7545 93.6207 68.293 94.9971 67.0362C96.3735 65.7794 108.683 51.3241 108.683 51.3241L117.776 66.9396C117.776 66.9396 114.617 73.6667 113.852 76.1118C113.088 78.5569 110.257 86.8418 110.257 86.8418L117.698 87.366C117.698 87.366 124.504 72.7172 126.225 69.8926C127.946 67.0681 127.717 65.2464 127.094 63.5905C126.471 61.9347 117.978 41.439 117.978 41.439L121.133 38.5948L110.555 28.2202L106.777 30.5513Z" fill="#263238"/>
<path d="M92.9005 63.5067C92.7801 63.2523 92.6912 62.9843 92.6357 62.7085C92.4726 62.0521 92.3665 61.3829 92.3186 60.7083C92.2434 59.8146 92.2834 58.915 92.4378 58.0315H92.495C92.4664 58.1503 92.4464 58.2062 92.4352 58.2062C92.4241 58.2062 92.4352 58.1429 92.4352 58.0204H92.495C92.4365 58.9055 92.4365 59.7935 92.495 60.6787C92.5435 61.3454 92.6332 62.0084 92.7635 62.6641C92.8312 62.9415 92.8774 63.2236 92.9017 63.5081L92.9005 63.5067Z" fill="#455A64"/>
<path d="M92.621 63.2659C92.1657 62.7374 91.7889 62.1464 91.502 61.5112C91.1575 60.8997 90.9061 60.2406 90.7559 59.5555C90.8045 59.537 91.1276 60.4106 91.6472 61.4331C92.1668 62.4556 92.6656 63.2354 92.621 63.2659Z" fill="#455A64"/>
<path d="M122.629 66.7303C122.02 66.5707 121.393 66.4906 120.763 66.4923C120.144 66.5515 119.534 66.6915 118.951 66.9088C119.089 66.7796 119.253 66.6809 119.432 66.6189C119.853 66.4442 120.301 66.3423 120.756 66.3176C121.212 66.2959 121.668 66.3551 122.103 66.4923C122.293 66.533 122.472 66.6142 122.629 66.7303Z" fill="#455A64"/>
<path d="M121.454 67.3555C121.432 67.404 120.816 67.136 120.01 67.0542C119.205 66.9724 118.545 67.099 118.519 67.0542C118.999 66.8931 119.509 66.8373 120.013 66.8906C120.517 66.9438 121.003 67.105 121.439 67.3629L121.454 67.3555Z" fill="#455A64"/>
<path d="M112.214 46.9581C112.061 47.2419 111.881 47.5108 111.677 47.7611C111.326 48.2408 110.819 48.8765 110.233 49.5854C109.648 50.2943 109.092 50.894 108.682 51.3216C108.47 51.5669 108.235 51.7911 107.98 51.9909C108.161 51.7259 108.365 51.477 108.588 51.2472L110.08 49.4799L111.572 47.6878C111.766 47.4274 111.98 47.1834 112.214 46.9581Z" fill="#455A64"/>
<path d="M92.7329 58.3539C92.7616 58.2709 92.7965 58.1901 92.8373 58.1122C92.9045 57.956 93.0237 57.7416 93.1544 57.4281C93.4304 56.8332 93.8036 55.9632 94.2211 54.8701C94.6386 53.7769 95.0939 52.4608 95.5715 50.9886C96.049 49.5163 96.5561 47.8915 97.1492 46.2035C97.701 44.612 98.3513 43.0562 99.0964 41.545C99.7064 40.3101 100.425 39.1319 101.245 38.0241C101.795 37.2768 102.408 36.5767 103.075 35.931C103.306 35.6967 103.508 35.5404 103.638 35.4253C103.703 35.365 103.771 35.3091 103.843 35.258C103.789 35.328 103.728 35.3927 103.661 35.4512C103.542 35.5738 103.346 35.7411 103.124 35.9791C102.478 36.6406 101.882 37.349 101.341 38.0985C100.543 39.2098 99.8401 40.3864 99.2408 41.6157C98.5066 43.1243 97.8627 44.6749 97.3125 46.2594C96.7194 47.9437 96.1935 49.5685 95.7236 51.037C95.2538 52.5056 94.7725 53.8257 94.3361 54.9137C93.8997 56.0017 93.5116 56.8694 93.2171 57.4569C93.0741 57.7542 92.9485 57.9737 92.8665 58.1262C92.8309 58.2069 92.7861 58.2834 92.7329 58.3539Z" fill="#455A64"/>
<path d="M91.9608 58.8228C91.9608 58.875 91.64 58.9679 91.2931 59.1934C90.9462 59.4188 90.726 59.6879 90.6851 59.658C90.6442 59.6281 90.8158 59.2874 91.1961 59.0483C91.3023 58.962 91.4244 58.8974 91.5557 58.8583C91.6869 58.8191 91.8246 58.8062 91.9608 58.8202V58.8228Z" fill="#455A64"/>
<path d="M90.4237 60.1944C90.3729 60.2358 90.3164 60.2696 90.2558 60.2947L89.7559 60.5438C89.3232 60.7596 88.6855 61.0569 87.8908 61.4101C86.3094 62.1227 84.0974 63.0423 81.6057 63.9308C79.1141 64.8193 76.8126 65.5034 75.1379 65.9546C74.3023 66.1778 73.6223 66.3537 73.1498 66.4603L72.6065 66.5791C72.5429 66.5956 72.478 66.6068 72.4126 66.6125C72.4715 66.582 72.5342 66.5595 72.5991 66.5455L73.1324 66.393L75.1093 65.8352C76.7728 65.3591 79.0594 64.6528 81.5474 63.768C84.0353 62.8832 86.2511 61.9796 87.8388 61.2992L89.7039 60.4811L90.2186 60.2616C90.2842 60.2315 90.353 60.2089 90.4237 60.1944Z" fill="#455A64"/>
<path d="M106.508 38.82C106.366 39.0134 106.186 39.1755 105.978 39.296C105.49 39.6153 104.934 39.8177 104.354 39.8874C103.775 39.9571 103.186 39.8921 102.636 39.6976C102.415 39.6318 102.209 39.5216 102.032 39.3738C102.032 39.3479 102.285 39.4779 102.699 39.597C103.236 39.7567 103.799 39.8062 104.355 39.7425C104.911 39.6788 105.448 39.5032 105.934 39.2265C106.118 39.0813 106.31 38.946 106.508 38.8211L106.508 38.82Z" fill="#455A64"/>
<path d="M112.073 86.9157C112.082 86.844 112.097 86.7731 112.117 86.7037C112.155 86.5475 112.207 86.3505 112.27 86.1051C112.409 85.5883 112.621 84.8409 112.897 83.9228C113.449 82.0862 114.277 79.5689 115.318 76.8362C116.358 74.1034 117.429 71.672 118.242 69.9358C118.649 69.0658 118.988 68.368 119.23 67.8908C119.35 67.6628 119.443 67.4855 119.514 67.3407C119.544 67.2749 119.582 67.2126 119.626 67.1548C119.606 67.2252 119.58 67.2937 119.547 67.3592L119.294 67.9208C119.062 68.4264 118.745 69.1291 118.354 69.9842C117.57 71.7316 116.526 74.167 115.482 76.8961C114.437 79.6251 113.594 82.1346 113.012 83.9601C112.733 84.856 112.501 85.5923 112.337 86.1239C112.259 86.3656 112.199 86.5589 112.151 86.7114C112.132 86.7823 112.106 86.8508 112.072 86.9157H112.073Z" fill="#455A64"/>
<path d="M137.093 19.4789L133.08 15.6123C133.08 15.6123 129.204 15.5527 127.112 16.2146C125.019 16.8764 103.438 32.2017 103.438 32.2017C106.326 33.3504 108.861 35.9196 111.248 39.0762C113.262 41.4595 113.941 44.9989 116.873 46.0772C117.496 46.3053 119.719 45.6497 119.719 45.6497L120.23 43.3445L137.789 26.6433C137.789 26.6433 138.585 21.8437 137.093 19.4789Z" fill="#263F97"/>
<g opacity="0.3">
<path opacity="0.3" d="M130.308 32.0346C130.181 28.9341 130.268 25.8284 130.569 22.7398L130.64 22.4263C129.954 23.17 129.749 24.2035 129.618 25.1961C129.215 28.2199 129.227 31.2846 129.655 34.305L130.402 33.8068C130.409 33.6705 130.323 32.6549 130.308 32.0346Z" fill="black"/>
</g>
<path d="M116.895 22.564C116.758 22.632 116.641 22.7345 116.556 22.8614C116.471 23.0165 116.378 23.1667 116.276 23.3112C116.2 23.4068 116.098 23.4779 115.981 23.5155C115.912 23.5342 115.84 23.5358 115.77 23.5203C115.7 23.5047 115.635 23.4725 115.581 23.4263C115.52 23.3755 115.477 23.3064 115.458 23.2293C115.452 23.1889 115.454 23.1476 115.464 23.108C115.475 23.0684 115.493 23.0312 115.518 22.9987C115.602 22.9083 115.713 22.8471 115.835 22.824L116.342 22.6863C116.633 22.6119 116.816 22.5786 116.823 22.6045C116.831 22.6305 116.663 22.7086 116.383 22.8163L115.887 22.9948C115.693 23.0469 115.566 23.1658 115.704 23.2772C115.735 23.3028 115.771 23.3211 115.81 23.331C115.849 23.3408 115.889 23.342 115.928 23.3342C116.011 23.3096 116.084 23.2598 116.137 23.1917C116.26 23.0615 116.342 22.8981 116.447 22.779C116.524 22.6766 116.631 22.6 116.753 22.5595C116.843 22.5355 116.895 22.5541 116.895 22.564Z" fill="#263238"/>
<path d="M124.755 97.9873C124.755 98.4989 124.603 98.9989 124.317 99.424C124.032 99.8492 123.626 100.18 123.152 100.376C122.678 100.571 122.156 100.621 121.653 100.521C121.15 100.42 120.688 100.173 120.326 99.8105C119.964 99.448 119.718 98.9865 119.619 98.4846C119.52 97.9826 119.573 97.4627 119.771 96.9908C119.969 96.5188 120.303 96.116 120.731 95.8334C121.158 95.5508 121.661 95.4012 122.174 95.4034C122.859 95.4063 123.516 95.6798 124 96.1641C124.483 96.6484 124.755 97.3039 124.755 97.9873Z" fill="#263238"/>
<path d="M124.497 97.988C124.475 97.7997 124.438 97.6132 124.389 97.4301C124.252 96.9335 123.953 96.4966 123.538 96.1885C123.297 96.0101 123.023 95.8809 122.732 95.8083C122.441 95.7357 122.138 95.7211 121.841 95.7653C121.544 95.8096 121.259 95.9117 121.002 96.066C120.744 96.2203 120.52 96.4237 120.342 96.6645C120.058 97.0479 119.905 97.5118 119.905 97.9881C119.905 98.4645 120.058 98.9283 120.342 99.3117C120.603 99.672 120.967 99.9454 121.386 100.096C121.764 100.236 122.172 100.272 122.569 100.2C122.916 100.138 123.244 99.9969 123.527 99.7875C123.941 99.4794 124.241 99.0425 124.378 98.5458C124.475 98.1963 124.467 97.988 124.486 97.988C124.491 98.0374 124.491 98.0873 124.486 98.1368C124.487 98.2808 124.471 98.4244 124.437 98.5643C124.32 99.0889 124.021 99.5558 123.594 99.8841C123.3 100.114 122.954 100.27 122.587 100.34C122.239 100.408 121.879 100.398 121.535 100.312C121.191 100.225 120.87 100.063 120.596 99.838C120.322 99.6131 120.101 99.3304 119.949 99.0103C119.798 98.6902 119.719 98.3406 119.719 97.9867C119.719 97.6327 119.798 97.2832 119.949 96.9631C120.101 96.643 120.322 96.3603 120.596 96.1353C120.87 95.9104 121.191 95.7487 121.535 95.6619C121.879 95.575 122.239 95.5652 122.587 95.6332C122.954 95.703 123.3 95.8594 123.594 96.0893C124.021 96.4176 124.319 96.8845 124.437 97.409C124.471 97.549 124.488 97.6926 124.486 97.8366C124.495 97.8856 124.499 97.9356 124.497 97.9854V97.988Z" fill="#455A64"/>
<path d="M89.4352 98.8834C89.4352 99.3946 89.283 99.8943 88.998 100.319C88.713 100.744 88.3079 101.076 87.834 101.271C87.3601 101.466 86.8387 101.517 86.3357 101.417C85.8328 101.317 85.3709 101.071 85.0085 100.709C84.6461 100.347 84.3995 99.8867 84.2998 99.3852C84.2002 98.8837 84.2521 98.3641 84.4489 97.892C84.6457 97.4199 84.9785 97.0166 85.4053 96.7331C85.8321 96.4496 86.3337 96.2987 86.8465 96.2994C87.5334 96.3004 88.1918 96.5731 88.6772 97.0576C89.1626 97.542 89.4352 98.1987 89.4352 98.8834Z" fill="#263238"/>
<path d="M89.1774 98.8839C89.1671 98.693 89.132 98.5042 89.073 98.3223C88.9324 97.8274 88.6322 97.3923 88.2188 97.0844C87.916 96.8592 87.5615 96.713 87.1876 96.6591C86.8137 96.6052 86.4322 96.6453 86.0777 96.7757C85.6594 96.9265 85.2966 97.2 85.0371 97.5601C84.7535 97.9436 84.6006 98.4074 84.6006 98.8837C84.6006 99.3601 84.7535 99.8239 85.0371 100.207C85.2141 100.449 85.4376 100.654 85.6945 100.809C85.9514 100.964 86.2367 101.066 86.5338 101.111C86.8308 101.155 87.1337 101.14 87.4249 101.066C87.7161 100.993 87.9897 100.863 88.23 100.683C88.6436 100.374 88.9438 99.9375 89.0842 99.4414C89.1774 99.092 89.17 98.8839 89.1885 98.8839C89.2071 98.8839 89.1885 98.9361 89.1885 99.0327C89.1866 99.1767 89.1691 99.32 89.1362 99.4603C89.0185 99.9848 88.7202 100.452 88.2932 100.78C87.9997 101.009 87.6557 101.166 87.2897 101.236C86.814 101.329 86.3211 101.277 85.8759 101.085C85.4307 100.894 85.0541 100.573 84.7954 100.164C84.5367 99.7555 84.4081 99.2784 84.4265 98.7955C84.445 98.3126 84.6096 97.8466 84.8987 97.4587C85.1784 97.0735 85.5685 96.7819 86.0177 96.622C86.4244 96.4781 86.8625 96.4459 87.286 96.5291C87.7365 96.613 88.1528 96.8259 88.484 97.1416C88.8153 97.4573 89.0471 97.8624 89.1514 98.3072C89.1844 98.4474 89.202 98.5908 89.2037 98.7348C89.201 98.7854 89.1922 98.8354 89.1774 98.8839Z" fill="#455A64"/>
<path d="M130.332 97.4113C130.314 97.4746 129.609 97.3221 128.359 97.0023L127.322 96.7272L126.077 96.4421C125.185 96.2426 124.178 95.9738 123.04 95.7728L121.267 95.4271C120.652 95.3045 120.003 95.2227 119.335 95.111C118.004 94.8767 116.564 94.7404 115.057 94.5494C111.776 94.2286 108.48 94.0921 105.184 94.1404C101.882 94.2229 98.588 94.4935 95.3175 94.9508C93.8256 95.1925 92.3857 95.3969 91.0617 95.6945C90.4014 95.8321 89.7562 95.9399 89.1457 96.085L87.3889 96.5051C86.2699 96.7506 85.2665 97.059 84.3825 97.2933L83.1528 97.6316L82.1271 97.9478C80.8925 98.3183 80.195 98.4979 80.1724 98.4349C80.1499 98.3719 80.799 98.0643 82.0027 97.5909L83.0061 97.1918C83.3779 97.0541 83.7857 96.9242 84.2221 96.7754C85.0986 96.4903 86.0872 96.132 87.2062 95.8421L88.9629 95.355C89.5746 95.1914 90.2238 95.0614 90.8912 94.9052C92.219 94.5816 93.6626 94.3436 95.1771 94.076C101.777 93.012 108.495 92.8755 115.133 93.6706C116.658 93.875 118.117 94.0412 119.448 94.3288C120.12 94.4551 120.772 94.5594 121.393 94.6994L123.169 95.1121C124.288 95.3575 125.31 95.6774 126.197 95.9265C126.637 96.0568 127.051 96.1719 127.427 96.2971L128.445 96.6676C129.69 97.0755 130.354 97.3483 130.332 97.4113Z" fill="#263F97"/>
<path d="M139.495 47.9628V62.5002L153.565 54.3764V39.7221L139.495 47.9628Z" fill="url(#paint0_linear)"/>
<path d="M139.511 47.9622V62.4996L126.157 54.8113V40.157L139.511 47.9622Z" fill="url(#paint1_linear)"/>
<path d="M126.157 40.1558L139.512 47.9624L153.563 39.7222L140.18 31.9567L126.157 40.1558Z" fill="url(#paint2_linear)"/>
<path d="M145.463 44.5283V48.428L148.641 46.6174V42.6016L145.463 44.5283Z" fill="url(#paint3_linear)"/>
<path d="M132.125 36.7211L145.48 44.5277L148.641 42.6011L135.258 34.8355L132.125 36.7211Z" fill="url(#paint4_linear)"/>
<path d="M142.168 53.2382L141.053 56.6787L141.776 56.2626V60.3647L142.559 59.9137V55.8119L143.283 55.3957L142.168 53.2382Z" fill="url(#paint5_linear)"/>
<path d="M145.992 53.8369L144.877 51.6794L143.761 55.1199L144.484 54.7037V58.8058L145.268 58.3549V54.253L145.992 53.8369Z" fill="url(#paint6_linear)"/>
<path d="M142.652 51.9886C142.719 52.1782 143.125 53.0185 143.125 53.0185L144.641 56.465L144.79 61.276C144.697 61.32 144.594 61.3417 144.491 61.3394C144.388 61.3372 144.286 61.3111 144.195 61.2631C144.103 61.2152 144.024 61.1467 143.964 61.0631C143.903 60.9796 143.863 60.8831 143.847 60.7815C143.715 60.0278 143.639 59.2657 143.618 58.5011L141.327 61.4271C141.327 61.4271 140.581 60.8807 141.048 60.1854L140.097 60.6948C139.855 60.3611 139.755 59.9453 139.821 59.5387C139.964 58.9327 141.604 57.1964 141.604 57.1964L138.739 57.0824C138.739 57.0824 138.247 56.7119 138.721 56.402C139.428 56.0936 140.161 55.8448 140.91 55.6583C140.613 55.5862 140.335 55.4525 140.093 55.2658C139.852 55.0792 139.653 54.8438 139.509 54.5751C139.223 53.9651 139.105 53.2898 139.169 52.6194L142.652 51.9886Z" fill="#FFBE9D"/>
<path d="M131.708 27.6624C131.708 27.6624 133.591 40.4932 133.61 41.3332C133.684 42.2563 133.808 43.1747 133.982 44.0845C133.982 44.0845 133.924 43.9953 134.627 45.1999C135.33 46.4045 139.779 54.2467 139.779 54.2467L143.136 53.0125C143.136 53.0125 139.668 42.7918 139.362 41.234C139.056 39.6763 139.597 31.8871 138.776 28.635C137.955 25.3828 131.708 27.6624 131.708 27.6624Z" fill="#FFBE9D"/>
<path d="M133.338 19.2629C133.19 19.3011 133.047 19.3586 132.913 19.4339C132.26 19.8045 130.421 21.1257 130.302 25.1223C130.138 30.1454 130.403 33.7963 130.403 33.7963L139.728 33.0526C139.683 32.9933 139.154 17.8502 133.338 19.2629Z" fill="#263F97"/>
<path d="M139.724 33.053C139.666 33.0704 139.606 33.08 139.545 33.0815L139.026 33.1411L137.087 33.3233L130.402 33.8934H130.309V33.7967C130.246 32.7594 130.197 31.6403 130.175 30.4839C130.134 28.7366 130.149 27.0708 130.22 25.5577C130.291 24.0447 130.459 22.6614 130.966 21.6018C131.325 20.7539 131.937 20.0362 132.719 19.5458C132.933 19.4182 133.161 19.3147 133.398 19.2371C133.479 19.2107 133.563 19.1916 133.648 19.1801C133.339 19.293 133.042 19.4362 132.761 19.6077C132.013 20.1108 131.432 20.8237 131.09 21.6563C130.628 22.6973 130.467 24.0581 130.415 25.564C130.363 27.0699 130.344 28.7354 130.386 30.4791C130.409 31.6315 130.454 32.7469 130.517 33.7856L130.413 33.7001L137.097 33.2018L139.044 33.0756L139.566 33.0496C139.62 33.0449 139.674 33.0461 139.727 33.0533L139.724 33.053Z" fill="#263238"/>
<path d="M193 161.903C193 161.955 154.275 162 106.512 162C58.7487 162 20.0161 161.955 20.0161 161.903C20.0161 161.851 58.7338 161.807 106.512 161.807C154.29 161.807 193 161.847 193 161.903Z" fill="#263238"/>
<path d="M41.4518 72.9529C41.4691 72.9493 41.487 72.9492 41.5044 72.9525C41.5218 72.9557 41.5384 72.9624 41.5533 72.9721C41.5681 72.9819 41.5808 72.9944 41.5908 73.009C41.6007 73.0236 41.6077 73.0401 41.6113 73.0574C41.6187 73.0924 41.612 73.1289 41.5927 73.1591C41.5735 73.1892 41.5431 73.2107 41.5082 73.2187L41.2659 73.271L41.6612 73.7053C43.5196 73.3088 44.8624 73.2427 44.966 73.7108C45.0695 74.179 43.817 74.6716 41.9602 75.077L41.7831 75.6283L42.0254 75.5761C42.0428 75.5718 42.061 75.571 42.0787 75.5738C42.0965 75.5766 42.1135 75.583 42.1287 75.5925C42.144 75.6019 42.1572 75.6144 42.1676 75.629C42.178 75.6437 42.1853 75.6603 42.1891 75.6778C42.193 75.6953 42.1933 75.7134 42.19 75.731C42.1867 75.7486 42.1799 75.7654 42.17 75.7803C42.1601 75.7953 42.1472 75.8081 42.1323 75.818C42.1173 75.8279 42.1005 75.8347 42.0828 75.838L41.6803 75.9135L40.7671 78.767L40.5832 78.8066L40.3559 75.3429C38.7953 75.5521 37.2822 75.6469 37.2822 75.6469L36.5708 76.8946L36.4071 76.9295L36.4768 75.7915C36.4768 75.7915 36.0789 75.8578 36.0264 75.6225C35.974 75.3872 36.3677 75.284 36.3677 75.284L35.8272 74.2773L35.9908 74.2424L37.1592 75.0851C37.1592 75.0851 38.5774 74.5434 40.0855 74.0989L38.8541 70.8634L39.0356 70.8253L41.055 73.0448L41.4518 72.9529Z" fill="#455A64"/>
<path d="M34.8924 75.8499L34.7128 75.9033C34.5991 75.94 34.4293 75.9816 34.2097 76.0572C33.99 76.1328 33.7337 76.2188 33.4363 76.3309C33.1389 76.4429 32.8047 76.5654 32.4506 76.7284C32.0964 76.8914 31.7078 77.0571 31.3063 77.2527C30.9049 77.4483 30.4838 77.6613 30.0559 77.8977C29.6281 78.134 29.1878 78.3772 28.7538 78.6496C28.3199 78.9219 27.8837 79.202 27.445 79.4835C27.0063 79.765 26.5893 80.0738 26.1815 80.3872C25.7736 80.7006 25.3769 81.0047 24.9997 81.3143C24.6224 81.6239 24.2749 81.94 23.9352 82.2288C23.5955 82.5177 23.3027 82.8264 23.0236 83.0949C22.7445 83.3633 22.5065 83.6352 22.291 83.8653C22.101 84.0631 21.9219 84.2711 21.7544 84.4882C21.4581 84.8315 21.2951 85.0325 21.2951 85.0325C21.2951 85.0325 21.49 84.8596 21.8172 84.5482C21.9835 84.3943 22.1762 84.1997 22.4158 83.9955L23.2092 83.2993C23.5073 83.053 23.822 82.778 24.1647 82.5004C24.5075 82.2229 24.8687 81.9255 25.2584 81.6384L25.8411 81.1924L26.4497 80.7518C26.8553 80.4461 27.2851 80.1662 27.7079 79.8739C28.1307 79.5815 28.5602 79.2953 28.9934 79.0332L29.6319 78.6348L30.2624 78.2571C30.6827 78.0249 31.0819 77.7783 31.4697 77.5641C31.8575 77.3499 32.2203 77.1495 32.5675 76.974C32.9148 76.7986 33.2281 76.6386 33.5074 76.494C33.7868 76.3495 34.0423 76.2443 34.2469 76.1476L34.8924 75.8499Z" fill="#EBEBEB"/>
<path d="M13.0239 91.9113C13.0457 91.8827 13.0779 91.8638 13.1137 91.8587C13.1494 91.8537 13.1857 91.8628 13.2147 91.8843C13.2291 91.8947 13.2413 91.9079 13.2504 91.9231C13.2596 91.9383 13.2656 91.9551 13.268 91.9727C13.2705 91.9903 13.2693 92.0081 13.2646 92.0252C13.26 92.0423 13.2519 92.0583 13.2408 92.0721L13.0933 92.2711L13.6711 92.3403C14.8113 90.8232 15.781 89.8929 16.1661 90.1795C16.5511 90.4661 15.9294 91.6578 14.7985 93.1796L15.0237 93.7078L15.1727 93.5114C15.1945 93.4828 15.2267 93.4639 15.2625 93.4588C15.2982 93.4537 15.3345 93.4629 15.3635 93.4843C15.3776 93.495 15.3895 93.5083 15.3984 93.5235C15.4073 93.5387 15.4132 93.5555 15.4156 93.5729C15.418 93.5904 15.417 93.6081 15.4125 93.6252C15.4081 93.6422 15.4003 93.6582 15.3896 93.6722L15.1476 93.9951L16.3488 96.7416L16.2363 96.8919L13.7873 94.4232C12.758 95.605 11.6724 96.6678 11.6724 96.6678L11.955 98.0747L11.8558 98.2078L11.1553 97.2894C11.1553 97.2894 10.8974 97.6015 10.7054 97.4562C10.5135 97.311 10.7358 96.9761 10.7358 96.9761L9.67536 96.5861L9.77707 96.4516L11.2051 96.3156C11.2051 96.3156 11.9191 94.9784 12.7616 93.655L9.69431 92.0139L9.80685 91.8637L12.7902 92.2198L13.0239 91.9113Z" fill="#263F97"/>
<path d="M9.97923 98.3885L9.87975 98.5445C9.8139 98.6494 9.71526 98.7952 9.59828 98.9903C9.48129 99.1854 9.34708 99.426 9.19786 99.7041C9.04864 99.9823 8.87414 100.297 8.71657 100.649C8.55901 101 8.37338 101.383 8.19914 101.792C8.0249 102.202 7.84677 102.639 7.68364 103.098C7.5205 103.557 7.34515 104.029 7.19729 104.515C7.04943 105.001 6.9049 105.505 6.7601 106.003C6.6153 106.501 6.50299 107.01 6.40042 107.507C6.29784 108.004 6.20165 108.501 6.11325 108.97C6.02484 109.44 5.98533 109.915 5.90887 110.365C5.83242 110.815 5.82597 111.227 5.79286 111.614C5.75975 112.001 5.75748 112.361 5.73299 112.681C5.7085 113.001 5.73291 113.268 5.72761 113.5C5.7331 113.95 5.74057 114.21 5.74057 114.21C5.74057 114.21 5.77422 113.954 5.82289 113.512C5.84515 113.288 5.87019 113.01 5.9094 112.704C5.94861 112.399 5.99838 112.042 6.04288 111.652C6.08739 111.262 6.16328 110.858 6.23779 110.422C6.3123 109.986 6.39348 109.527 6.49467 109.057L6.64144 108.339L6.80378 107.597C6.90914 107.105 7.04894 106.61 7.17318 106.111C7.29743 105.612 7.43612 105.121 7.58926 104.638L7.80771 103.92L8.03338 103.222C8.18901 102.767 8.33631 102.327 8.48722 101.911C8.63812 101.494 8.77958 101.097 8.92686 100.744C9.07414 100.392 9.20059 100.061 9.32092 99.7667C9.44125 99.4718 9.55629 99.2321 9.64717 99.0253L9.97923 98.3885Z" fill="#EBEBEB"/>
</g>
<defs>
<linearGradient id="paint0_linear" x1="143.73" y1="51.954" x2="181.33" y2="47.6691" gradientUnits="userSpaceOnUse">
<stop offset="0.035" stop-color="#FFA98C"/>
<stop offset="0.317" stop-color="#FEB892"/>
<stop offset="0.86" stop-color="#FEE0A3"/>
<stop offset="1" stop-color="#FEECA8"/>
</linearGradient>
<linearGradient id="paint1_linear" x1="110.105" y1="56.4001" x2="157.08" y2="52.6542" gradientUnits="userSpaceOnUse">
<stop offset="0.035" stop-color="#FFA98C"/>
<stop offset="0.317" stop-color="#FEB892"/>
<stop offset="0.86" stop-color="#FEE0A3"/>
<stop offset="1" stop-color="#FEECA8"/>
</linearGradient>
<linearGradient id="paint2_linear" x1="154.523" y1="12.0776" x2="148.814" y2="43.8812" gradientUnits="userSpaceOnUse">
<stop offset="0.035" stop-color="#FFA98C"/>
<stop offset="0.317" stop-color="#FEB892"/>
<stop offset="0.86" stop-color="#FEE0A3"/>
<stop offset="1" stop-color="#FEECA8"/>
</linearGradient>
<linearGradient id="paint3_linear" x1="146.391" y1="45.7129" x2="155.234" y2="44.9272" gradientUnits="userSpaceOnUse">
<stop offset="0.035" stop-color="#C97052"/>
<stop offset="0.336" stop-color="#D47E61"/>
<stop offset="0.916" stop-color="#F2A389"/>
<stop offset="1" stop-color="#F7AA90"/>
</linearGradient>
<linearGradient id="paint4_linear" x1="144.265" y1="32.2768" x2="142.733" y2="40.7266" gradientUnits="userSpaceOnUse">
<stop offset="0.035" stop-color="#C97052"/>
<stop offset="0.336" stop-color="#D47E61"/>
<stop offset="0.916" stop-color="#F2A389"/>
<stop offset="1" stop-color="#F7AA90"/>
</linearGradient>
<linearGradient id="paint5_linear" x1="-537.396" y1="-1745.43" x2="-531.776" y2="-1745.13" gradientUnits="userSpaceOnUse">
<stop offset="0.035" stop-color="#C97052"/>
<stop offset="0.336" stop-color="#D47E61"/>
<stop offset="0.916" stop-color="#F2A389"/>
<stop offset="1" stop-color="#F7AA90"/>
</linearGradient>
<linearGradient id="paint6_linear" x1="-534.519" y1="-1745.43" x2="-528.897" y2="-1745.13" gradientUnits="userSpaceOnUse">
<stop offset="0.035" stop-color="#C97052"/>
<stop offset="0.336" stop-color="#D47E61"/>
<stop offset="0.916" stop-color="#F2A389"/>
<stop offset="1" stop-color="#F7AA90"/>
</linearGradient>
<clipPath id="clip0">
<rect width="193" height="162" fill="white"/>
</clipPath>
</defs>
</svg>
