<svg width="244" height="244" viewBox="0 0 244 244" fill="none" xmlns="http://www.w3.org/2000/svg">
<g opacity="0.6">
<path d="M244 186.611H0V186.733H244V186.611Z" fill="#EBEBEB"/>
<path d="M115.656 164.846H21.433C20.6939 164.846 19.9852 164.553 19.4626 164.03C18.9401 163.508 18.6465 162.799 18.6465 162.06V29.6021C18.6529 28.8673 18.9493 28.1648 19.4712 27.6475C19.9931 27.1302 20.6982 26.84 21.433 26.84H115.656C116.395 26.84 117.104 27.1336 117.626 27.6562C118.149 28.1787 118.442 28.8875 118.442 29.6265V162.06C118.442 162.799 118.149 163.508 117.626 164.03C117.104 164.553 116.395 164.846 115.656 164.846ZM21.433 26.9376C20.7267 26.9389 20.0497 27.2201 19.5503 27.7195C19.0509 28.2189 18.7698 28.8958 18.7685 29.6021V162.06C18.7698 162.766 19.0509 163.443 19.5503 163.943C20.0497 164.442 20.7267 164.723 21.433 164.724H115.656C116.362 164.723 117.039 164.442 117.539 163.943C118.038 163.443 118.319 162.766 118.32 162.06V29.6021C118.319 28.8958 118.038 28.2189 117.539 27.7195C117.039 27.2201 116.362 26.9389 115.656 26.9376H21.433Z" fill="#EBEBEB"/>
<path d="M221.215 164.846H126.983C126.244 164.845 125.536 164.551 125.014 164.029C124.491 163.507 124.197 162.799 124.196 162.06V29.6021C124.204 28.8677 124.501 28.166 125.022 27.6489C125.544 27.1319 126.248 26.8413 126.983 26.84H221.215C221.948 26.8426 222.651 27.1339 223.171 27.651C223.691 28.168 223.986 28.869 223.992 29.6021V162.06C223.992 162.797 223.7 163.505 223.179 164.027C222.659 164.549 221.953 164.844 221.215 164.846ZM126.983 26.9376C126.276 26.9389 125.599 27.2201 125.1 27.7195C124.6 28.2189 124.319 28.8958 124.318 29.6021V162.06C124.319 162.766 124.6 163.443 125.1 163.943C125.599 164.442 126.276 164.723 126.983 164.724H221.215C221.922 164.723 222.599 164.442 223.098 163.943C223.597 163.443 223.879 162.766 223.88 162.06V29.6021C223.879 28.8958 223.597 28.2189 223.098 27.7195C222.599 27.2201 221.922 26.9389 221.215 26.9376H126.983Z" fill="#EBEBEB"/>
<path d="M37.7127 191.257H25.0247V191.379H37.7127V191.257Z" fill="#EBEBEB"/>
<path d="M92.8079 189.935H70.8333V190.057H92.8079V189.935Z" fill="#EBEBEB"/>
<path d="M67.8662 195.791H38.2007V195.913H67.8662V195.791Z" fill="#EBEBEB"/>
<path d="M218.975 194.971H209.591V195.093H218.975V194.971Z" fill="#EBEBEB"/>
<path d="M205.243 194.971H178.261V195.093H205.243V194.971Z" fill="#EBEBEB"/>
<path d="M161.782 192.911H125.44V193.033H161.782V192.911Z" fill="#EBEBEB"/>
<path d="M82.7843 144.287H56.1492L54.5339 125.631H81.169L82.7843 144.287Z" fill="#E6E6E6"/>
<path d="M84.1654 144.287H57.5303L55.9102 125.631H82.5452L84.1654 144.287Z" fill="#F0F0F0"/>
<path d="M61.1709 140.281L60.2827 129.637H78.9048L79.7929 140.281H61.1709Z" fill="white"/>
<path d="M99.8496 144.287H96.0481V186.611H99.8496V144.287Z" fill="#E6E6E6"/>
<path d="M101.045 144.287H98.4053V186.611H101.045V144.287Z" fill="#F0F0F0"/>
<path d="M64.2451 148.957H101.045V144.287H64.2451V148.957Z" fill="#F0F0F0"/>
<path d="M65.5481 148.957H61.7466V186.611H65.5481V148.957Z" fill="#E6E6E6"/>
<path d="M66.7485 148.957H64.1084V186.611H66.7485V148.957Z" fill="#F0F0F0"/>
<path d="M38.4836 148.957H34.6821V186.611H38.4836V148.957Z" fill="#E6E6E6"/>
<path d="M39.6843 148.957H37.0442V186.611H39.6843V148.957Z" fill="#F0F0F0"/>
<path d="M75.7864 148.957H71.9849V186.611H75.7864V148.957Z" fill="#E6E6E6"/>
<path d="M76.9868 148.957H74.3467V186.611H76.9868V148.957Z" fill="#F0F0F0"/>
<path d="M64.2452 144.287H34.6821V148.957H64.2452V144.287Z" fill="#E6E6E6"/>
<path d="M144.077 40.221H33.6768V103.554H144.077V40.221Z" fill="#E6E6E6"/>
<path d="M147.025 40.221H35.053V103.554H147.025V40.221Z" fill="#F0F0F0"/>
<path d="M144.077 103.554H33.6768V109.039H144.077V103.554Z" fill="#E6E6E6"/>
<path d="M151.939 103.554H39.9673V109.039H151.939V103.554Z" fill="#F0F0F0"/>
<path d="M142.891 99.4203V44.3495L39.1816 44.3495V99.4203H142.891Z" fill="#FAFAFA"/>
<path d="M46.8042 99.4203L71.048 44.3495H82.4965L58.2478 99.4203H46.8042Z" fill="white"/>
<path d="M41.0992 95.3114C41.0601 95.3114 41.0214 95.3037 40.9853 95.2887C40.9492 95.2737 40.9163 95.2518 40.8887 95.2242C40.8611 95.1965 40.8391 95.1637 40.8242 95.1276C40.8092 95.0915 40.8015 95.0528 40.8015 95.0137V47.0384C40.8108 46.9666 40.8458 46.9007 40.9002 46.8529C40.9545 46.8051 41.0244 46.7787 41.0968 46.7787C41.1691 46.7787 41.239 46.8051 41.2933 46.8529C41.3477 46.9007 41.3827 46.9666 41.392 47.0384V95.0137C41.392 95.0918 41.3613 95.1668 41.3065 95.2225C41.2518 95.2782 41.1773 95.3101 41.0992 95.3114Z" fill="#F0F0F0"/>
<path d="M60.7073 99.4203L84.956 44.3495H89.4163L65.1725 99.4203H60.7073Z" fill="white"/>
<path d="M142.891 99.4204V44.3495H142.364V99.4204H142.891Z" fill="#E6E6E6"/>
<path opacity="0.6" d="M148.001 50.5813H37.6004L37.2246 45.955H147.62L148.001 50.5813Z" fill="#EBEBEB"/>
<path opacity="0.6" d="M148.001 58.1599H37.6004L37.2246 53.5385H147.62L148.001 58.1599Z" fill="#EBEBEB"/>
<path opacity="0.6" d="M148.001 65.7434H37.6004L37.2246 61.122H147.62L148.001 65.7434Z" fill="#EBEBEB"/>
<path opacity="0.6" d="M148.001 73.3269H37.6004L37.2246 68.7007H147.62L148.001 73.3269Z" fill="#EBEBEB"/>
<path opacity="0.6" d="M148.001 80.9104H37.6004L37.2246 76.2841H147.62L148.001 80.9104Z" fill="#EBEBEB"/>
<path opacity="0.6" d="M148.001 88.489H37.6004L37.2246 83.8676H147.62L148.001 88.489Z" fill="#EBEBEB"/>
<path d="M178.325 69.945H208.054V40.2161H178.325V69.945Z" fill="#EBEBEB"/>
<path d="M178.325 40.221H177.007V69.95H178.325V40.221Z" fill="#E0E0E0"/>
<path d="M182.356 65.919H204.028V44.2469H182.356V65.919Z" fill="white"/>
<path d="M193.191 62.3346L200.444 55.0812L193.191 47.8279L185.937 55.0812L193.191 62.3346Z" fill="#F5F5F5"/>
<path d="M168.082 109.034H197.811V79.305H168.082V109.034Z" fill="#EBEBEB"/>
<path d="M168.082 79.3098H166.764V109.039H168.082V79.3098Z" fill="#E0E0E0"/>
<path d="M172.113 105.008H193.785V83.3358H172.113V105.008Z" fill="white"/>
<path d="M181.404 98.7908H184.488C186.189 98.7908 187.568 97.4121 187.568 95.7115V92.6273C187.568 90.9267 186.189 89.548 184.488 89.548H181.404C179.704 89.548 178.325 90.9267 178.325 92.6273V95.7115C178.325 97.4121 179.704 98.7908 181.404 98.7908Z" fill="#F5F5F5"/>
<path d="M150.167 123.479H142.755V184.615H150.167V123.479Z" fill="#F0F0F0"/>
<path d="M214.964 184.615H143.784V186.611H214.964V184.615Z" fill="#F0F0F0"/>
<path d="M150.167 184.615H215.989V123.479H150.167V184.615Z" fill="#FAFAFA"/>
<path d="M203.106 159.205H163.055C161.165 159.205 159.351 158.454 158.014 157.117C156.677 155.78 155.926 153.966 155.926 152.075C155.926 150.185 156.677 148.371 158.014 147.034C159.351 145.697 161.165 144.946 163.055 144.946H203.106C204.997 144.946 206.81 145.697 208.147 147.034C209.484 148.371 210.235 150.185 210.235 152.075C210.235 153.966 209.484 155.78 208.147 157.117C206.81 158.454 204.997 159.205 203.106 159.205ZM163.055 145.424C161.291 145.424 159.6 146.125 158.352 147.372C157.105 148.62 156.404 150.311 156.404 152.075C156.404 153.84 157.105 155.531 158.352 156.779C159.6 158.026 161.291 158.727 163.055 158.727H203.106C204.87 158.727 206.562 158.026 207.809 156.779C209.056 155.531 209.757 153.84 209.757 152.075C209.757 150.311 209.056 148.62 207.809 147.372C206.562 146.125 204.87 145.424 203.106 145.424H163.055Z" fill="#F0F0F0"/>
<path d="M203.106 176.944H163.055C161.165 176.944 159.351 176.193 158.014 174.856C156.677 173.519 155.926 171.705 155.926 169.814C155.926 167.923 156.677 166.11 158.014 164.773C159.351 163.436 161.165 162.685 163.055 162.685H203.106C204.997 162.685 206.81 163.436 208.147 164.773C209.484 166.11 210.235 167.923 210.235 169.814C210.235 171.705 209.484 173.519 208.147 174.856C206.81 176.193 204.997 176.944 203.106 176.944ZM163.055 163.163C162.167 163.139 161.283 163.293 160.455 163.616C159.628 163.94 158.873 164.425 158.236 165.045C157.599 165.665 157.093 166.406 156.748 167.225C156.402 168.043 156.224 168.923 156.224 169.812C156.224 170.7 156.402 171.58 156.748 172.399C157.093 173.217 157.599 173.959 158.236 174.578C158.873 175.198 159.628 175.684 160.455 176.007C161.283 176.331 162.167 176.485 163.055 176.461H203.106C203.994 176.485 204.878 176.331 205.706 176.007C206.534 175.684 207.288 175.198 207.925 174.578C208.562 173.959 209.068 173.217 209.414 172.399C209.759 171.58 209.937 170.7 209.937 169.812C209.937 168.923 209.759 168.043 209.414 167.225C209.068 166.406 208.562 165.665 207.925 165.045C207.288 164.425 206.534 163.94 205.706 163.616C204.878 163.293 203.994 163.139 203.106 163.163H163.055Z" fill="#F0F0F0"/>
<path d="M189.124 150.538H177.037C176.647 150.531 176.275 150.371 176.001 150.092C175.728 149.814 175.574 149.44 175.573 149.05C175.574 148.66 175.728 148.286 176.001 148.007C176.275 147.729 176.647 147.569 177.037 147.562H189.124C189.519 147.563 189.897 147.72 190.176 147.999C190.454 148.278 190.612 148.656 190.613 149.05C190.612 149.444 190.454 149.822 190.176 150.101C189.897 150.38 189.519 150.537 189.124 150.538Z" fill="#EBEBEB"/>
<path d="M203.106 141.466H163.055C161.165 141.466 159.351 140.715 158.014 139.378C156.677 138.041 155.926 136.228 155.926 134.337C155.926 132.446 156.677 130.632 158.014 129.295C159.351 127.958 161.165 127.207 163.055 127.207H203.106C204.997 127.207 206.81 127.958 208.147 129.295C209.484 130.632 210.235 132.446 210.235 134.337C210.235 136.228 209.484 138.041 208.147 139.378C206.81 140.715 204.997 141.466 203.106 141.466ZM163.055 127.685C161.291 127.685 159.6 128.386 158.352 129.633C157.105 130.881 156.404 132.573 156.404 134.337C156.404 136.101 157.105 137.793 158.352 139.04C159.6 140.287 161.291 140.988 163.055 140.988H203.106C204.87 140.988 206.562 140.287 207.809 139.04C209.056 137.793 209.757 136.101 209.757 134.337C209.757 132.573 209.056 130.881 207.809 129.633C206.562 128.386 204.87 127.685 203.106 127.685H163.055Z" fill="#F0F0F0"/>
<path d="M189.124 132.799H177.037C176.647 132.792 176.275 132.632 176.001 132.354C175.728 132.075 175.574 131.701 175.573 131.311C175.579 130.925 175.735 130.556 176.008 130.283C176.282 130.01 176.65 129.853 177.037 129.847H189.124C189.515 129.848 189.889 130.002 190.167 130.276C190.445 130.549 190.605 130.921 190.613 131.311C190.612 131.705 190.454 132.083 190.176 132.362C189.897 132.641 189.519 132.798 189.124 132.799Z" fill="#EBEBEB"/>
<path d="M189.124 168.272H177.037C176.65 168.266 176.282 168.11 176.008 167.836C175.735 167.563 175.579 167.194 175.573 166.808C175.58 166.422 175.737 166.054 176.01 165.781C176.283 165.508 176.651 165.352 177.037 165.344H189.124C189.515 165.345 189.889 165.499 190.167 165.773C190.445 166.046 190.605 166.418 190.613 166.808C190.605 167.198 190.445 167.57 190.167 167.843C189.889 168.117 189.515 168.271 189.124 168.272Z" fill="#EBEBEB"/>
<path d="M217.346 120.375H150.172V123.484H217.346V120.375Z" fill="#F0F0F0"/>
<path d="M141.301 123.479H150.167V120.37H141.301V123.479Z" fill="#E6E6E6"/>
<path d="M122 208.649C174.256 208.649 216.618 206.176 216.618 203.125C216.618 200.074 174.256 197.601 122 197.601C69.7437 197.601 27.3816 200.074 27.3816 203.125C27.3816 206.176 69.7437 208.649 122 208.649Z" fill="#F5F5F5"/>
<path d="M201.856 72.3362H128.305C128.305 72.3362 115.056 84.5362 115.056 114.197C115.056 139.705 125.104 174.289 121.331 188.446C118.486 199.128 104.691 200.963 98.0781 201.217H168.087C168.087 201.217 191.11 202.608 194.883 188.446C198.655 174.284 188.607 139.705 188.607 114.192C188.607 84.5167 201.856 72.3362 201.856 72.3362Z" fill="#263F97"/>
<path opacity="0.7" d="M201.856 72.3362H128.305C128.305 72.3362 115.056 84.5362 115.056 114.197C115.056 139.705 125.104 174.289 121.331 188.446C118.486 199.128 104.691 200.963 98.0781 201.217H168.087C168.087 201.217 191.11 202.608 194.883 188.446C198.655 174.284 188.607 139.705 188.607 114.192C188.607 84.5167 201.856 72.3362 201.856 72.3362Z" fill="white"/>
<g opacity="0.8">
<path opacity="0.8" d="M181.848 103.617H123.025C124.689 90.5679 129.173 82.9746 131.648 79.6562H188.368C185.586 85.4634 182.961 93.3739 181.848 103.617Z" fill="#263F97"/>
<path opacity="0.3" d="M181.355 110.537H122.449C122.498 109.351 122.566 108.199 122.664 107.087H181.536C181.455 108.209 181.394 109.359 181.355 110.537Z" fill="#263F97"/>
<path opacity="0.3" d="M140.92 117.452H122.429C122.397 116.349 122.379 115.264 122.376 114.197V114.007H140.871V114.192C140.871 115.271 140.886 116.359 140.92 117.452Z" fill="#263F97"/>
<path opacity="0.3" d="M181.707 124.367H122.844C122.742 123.205 122.659 122.054 122.595 120.921H181.482C181.541 122.063 181.616 123.212 181.707 124.367Z" fill="#263F97"/>
<path opacity="0.3" d="M182.356 131.272H123.542C123.405 130.117 123.278 128.967 123.161 127.822H182.024C182.107 128.983 182.229 130.135 182.356 131.272Z" fill="#263F97"/>
<path opacity="0.3" d="M183.205 138.202H124.44C124.279 137.05 124.128 135.898 123.981 134.756H182.766C182.902 135.905 183.049 137.053 183.205 138.202Z" fill="#263F97"/>
<path opacity="0.3" d="M184.176 145.117H125.416C125.247 143.965 125.084 142.816 124.928 141.671H183.683C183.844 142.818 184.01 143.96 184.176 145.117Z" fill="#263F97"/>
<path opacity="0.3" d="M185.215 152.036H126.475C126.382 151.407 126.284 150.768 126.187 150.128L125.953 148.586H184.693C184.869 149.738 185.04 150.89 185.215 152.036Z" fill="#263F97"/>
<path opacity="0.3" d="M127.5 158.951C127.337 157.813 127.174 156.664 127.012 155.506H185.743C185.913 156.658 186.089 157.805 186.255 158.951H127.5Z" fill="#263F97"/>
<path opacity="0.3" d="M128.432 165.866C128.295 164.739 128.144 163.587 127.988 162.421H176.983C177.149 163.582 177.305 164.734 177.471 165.866H128.432Z" fill="#263F97"/>
<path opacity="0.3" d="M129.154 172.786C129.06 171.66 128.952 170.51 128.832 169.336H187.646C187.778 170.517 187.9 171.669 188.002 172.786H129.154Z" fill="#263F97"/>
<path opacity="0.3" d="M129.491 179.701C129.491 178.589 129.447 177.437 129.383 176.256H160.415C160.493 177.461 160.537 178.613 160.552 179.701H129.491Z" fill="#263F97"/>
</g>
<path d="M173.728 197.484C169.995 198.162 166.213 197.645 162.46 197.484C160.66 197.367 158.854 197.415 157.063 197.625C155.306 197.86 153.559 198.318 151.787 198.162C152.373 197.848 152.924 197.473 153.432 197.045C153.454 197.022 153.471 196.995 153.479 196.964C153.488 196.934 153.488 196.902 153.48 196.871C153.472 196.84 153.456 196.812 153.434 196.79C153.412 196.767 153.384 196.751 153.354 196.742C147.844 194.79 142.828 200.07 137.338 198.841C138.894 197.689 141.086 197.664 142.413 196.152C142.437 196.125 142.454 196.093 142.46 196.057C142.467 196.022 142.462 195.986 142.449 195.953C142.435 195.92 142.411 195.891 142.382 195.871C142.352 195.851 142.317 195.84 142.281 195.839C137.372 195.742 132.736 197.64 127.856 198.074C127.622 198.074 127.622 198.46 127.856 198.44C132.565 198.03 137.079 196.23 141.827 196.191C140.407 197.459 138.24 197.503 136.796 198.782C136.774 198.805 136.758 198.833 136.749 198.864C136.741 198.894 136.741 198.927 136.748 198.958C136.756 198.989 136.772 199.017 136.794 199.04C136.816 199.063 136.844 199.08 136.874 199.089C142.408 200.617 147.444 195.337 152.91 196.967C152.34 197.414 151.719 197.792 151.06 198.094C151.029 198.112 151.005 198.14 150.989 198.172C150.973 198.205 150.968 198.241 150.972 198.277C150.977 198.312 150.992 198.346 151.015 198.373C151.039 198.401 151.07 198.42 151.104 198.431C152.905 198.733 154.667 198.348 156.443 198.065C158.432 197.779 160.445 197.701 162.45 197.83C166.242 198.011 170.048 198.523 173.816 197.83C174.065 197.796 173.967 197.44 173.728 197.484Z" fill="#263F97"/>
<path d="M74.1174 90.3435C74.4248 90.7388 74.8201 91.2024 75.1812 91.6319C75.5423 92.0613 75.9376 92.4956 76.328 92.9153C77.1137 93.7547 77.9091 94.5794 78.768 95.3553C80.3607 96.8675 82.1699 98.134 84.136 99.1129C84.3751 99.2203 84.624 99.3179 84.8436 99.4057C84.9522 99.4489 85.0629 99.4864 85.1754 99.5179C85.2796 99.5591 85.3874 99.5901 85.4975 99.6107C85.9658 99.7311 86.4447 99.8062 86.9274 99.8351C88.0077 99.8877 89.0906 99.8255 90.1579 99.6497C91.2914 99.4768 92.414 99.2389 93.5202 98.9372C94.6426 98.6444 95.7894 98.2833 96.8582 97.9075L97.8342 99.8595C95.6648 101.216 93.3157 102.26 90.8558 102.963C89.5587 103.335 88.2218 103.549 86.8737 103.602C86.1436 103.632 85.4125 103.584 84.6923 103.461C84.5069 103.432 84.3166 103.388 84.1311 103.344C83.9457 103.3 83.7505 103.251 83.5894 103.197C83.2478 103.095 82.916 102.983 82.6134 102.856C80.1296 101.834 77.8437 100.386 75.8595 98.5761C74.8912 97.7369 73.9676 96.8475 73.0926 95.9116C72.6582 95.4236 72.2337 94.9698 71.8238 94.4818C71.4138 93.9938 71.0234 93.5058 70.5989 92.9446L74.1174 90.3435Z" fill="#FFB573"/>
<path d="M69.1545 88.9625C69.0471 91.6953 70.1305 96.6242 70.1305 96.6242L76.8941 95.8043C76.8941 95.8043 77.143 88.5917 75.8303 86.8495C73.6099 83.9361 69.2569 86.3761 69.1545 88.9625Z" fill="#263F97"/>
<path d="M95.9504 98.6005L99.1176 95.7018L99.5226 98.825C99.5226 98.825 98.2099 100.587 96.7215 99.8449L95.9504 98.6005Z" fill="#FFB573"/>
<path d="M100.708 95.8726L102.05 97.6294L99.5225 98.825L99.1174 95.7018L100.708 95.8726Z" fill="#FFB573"/>
<path d="M99.9082 87.9718C100.245 87.9718 100.43 87.9718 100.67 87.9718C100.772 87.9648 100.875 87.9648 100.977 87.9718L101.231 88.006C101.45 88.0318 101.658 88.1142 101.836 88.2451C101.922 88.3468 101.979 88.4699 102.002 88.6014L102.114 88.9722L102.568 90.4362L103.476 93.3984L105.286 99.3276C106.482 103.28 107.726 107.223 108.878 111.186C111.244 119.101 113.484 127.046 115.685 135.005C117.886 142.965 119.955 150.958 122.083 158.917C124.211 166.877 126.114 174.929 126.792 183.283C126.817 183.842 126.649 184.392 126.316 184.841C125.984 185.291 125.507 185.612 124.966 185.752C124.424 185.892 123.851 185.842 123.343 185.61C122.834 185.379 122.42 184.979 122.171 184.479C118.706 176.846 116.442 168.907 114.46 160.894C112.479 152.881 110.376 144.936 108.434 136.928C106.491 128.92 104.593 120.868 102.817 112.801C101.904 108.775 101.075 104.725 100.201 100.689L98.9078 94.6282L98.2588 91.5977L97.9367 90.08L97.8538 89.7042C97.8095 89.5773 97.7994 89.441 97.8245 89.309C97.9195 89.1154 98.0602 88.9479 98.2344 88.821L98.4442 88.6648C98.5247 88.6034 98.6095 88.548 98.698 88.4989C98.9078 88.3769 99.0591 88.2744 99.3617 88.128C99.5319 88.0407 99.7176 87.9877 99.9082 87.9718Z" fill="#263238"/>
<path d="M126.323 184.542C126.287 184.41 126.2 184.298 126.081 184.229C125.963 184.161 125.822 184.142 125.689 184.176L124.615 184.454L123.542 184.733C123.409 184.767 123.295 184.852 123.225 184.97C123.155 185.088 123.133 185.229 123.166 185.362C123.835 188.436 123.166 190.637 123.879 193.341C124.615 196.186 127.822 197.645 127.822 197.645L127.719 196.43L128.207 197.543C128.207 197.543 130.301 194.712 129.564 191.867C128.871 189.164 127.231 187.553 126.323 184.542Z" fill="#263F97"/>
<path opacity="0.3" d="M126.323 184.542C126.287 184.41 126.2 184.298 126.081 184.229C125.963 184.161 125.822 184.142 125.689 184.176L124.615 184.454L123.542 184.733C123.409 184.767 123.295 184.852 123.225 184.97C123.155 185.088 123.133 185.229 123.166 185.362C123.835 188.436 123.166 190.637 123.879 193.341C124.615 196.186 127.822 197.645 127.822 197.645L127.719 196.43L128.207 197.543C128.207 197.543 130.301 194.712 129.564 191.867C128.871 189.164 127.231 187.553 126.323 184.542Z" fill="white"/>
<path d="M127.158 191.599C127.19 191.727 127.183 191.861 127.138 191.985C127.093 192.11 127.012 192.218 126.906 192.296C126.8 192.374 126.673 192.42 126.541 192.426C126.409 192.432 126.279 192.4 126.165 192.332C126.052 192.264 125.962 192.164 125.905 192.045C125.848 191.926 125.828 191.793 125.847 191.662C125.866 191.531 125.924 191.409 126.012 191.311C126.1 191.213 126.215 191.143 126.343 191.111C126.516 191.068 126.699 191.095 126.851 191.186C127.004 191.278 127.114 191.426 127.158 191.599Z" fill="#263238"/>
<path d="M127.758 196.576C127.739 196.582 127.719 196.584 127.699 196.582C127.679 196.579 127.66 196.573 127.642 196.563C127.625 196.553 127.61 196.539 127.598 196.523C127.586 196.507 127.577 196.488 127.573 196.469L126.363 191.808C126.357 191.789 126.356 191.769 126.359 191.749C126.361 191.73 126.368 191.711 126.378 191.693C126.388 191.676 126.401 191.661 126.417 191.649C126.433 191.637 126.451 191.628 126.47 191.623C126.489 191.617 126.509 191.615 126.529 191.618C126.549 191.62 126.569 191.626 126.586 191.636C126.603 191.646 126.619 191.66 126.63 191.676C126.642 191.692 126.651 191.711 126.655 191.73L127.866 196.391C127.871 196.41 127.872 196.43 127.87 196.45C127.867 196.469 127.86 196.488 127.85 196.506C127.84 196.523 127.827 196.538 127.811 196.55C127.796 196.562 127.778 196.571 127.758 196.576Z" fill="#263238"/>
<path d="M123.806 167.784L117.227 169.487C117.045 169.533 116.852 169.505 116.69 169.409C116.528 169.313 116.411 169.157 116.364 168.975C116.317 168.796 116.341 168.605 116.432 168.444C116.524 168.283 116.674 168.164 116.852 168.111L123.464 166.408C123.643 166.361 123.833 166.386 123.995 166.477C124.156 166.568 124.275 166.718 124.328 166.896C124.353 166.989 124.36 167.086 124.347 167.181C124.335 167.276 124.303 167.368 124.255 167.451C124.206 167.534 124.141 167.606 124.064 167.663C123.987 167.72 123.899 167.762 123.806 167.784Z" fill="#263F97"/>
<path d="M90.4117 78.4704C90.2946 78.7632 90.3581 79.0706 90.5484 79.1536C90.7387 79.2365 90.9925 79.0657 91.1096 78.7729C91.2267 78.4801 91.1681 78.1727 90.9729 78.0897C90.7777 78.0068 90.5337 78.1776 90.4117 78.4704Z" fill="#263238"/>
<path d="M90.885 78.08L91.6707 78.1825C91.6707 78.1825 91.0851 78.568 90.885 78.08Z" fill="#263238"/>
<path d="M90.5484 78.8609C90.5407 79.6465 90.6391 80.4295 90.8411 81.1887C90.6465 81.2302 90.4452 81.2286 90.2513 81.1839C90.0573 81.1392 89.8756 81.0526 89.7188 80.93L90.5484 78.8609Z" fill="#ED893E"/>
<path d="M91.5927 76.6844C91.5622 76.6785 91.5337 76.6651 91.5098 76.6454C91.3342 76.4849 91.124 76.3671 90.8955 76.3011C90.6669 76.235 90.4263 76.2226 90.1922 76.2647C90.1443 76.2768 90.0936 76.2698 90.0508 76.2452C90.0081 76.2206 89.9765 76.1804 89.9628 76.133C89.9507 76.0851 89.9577 76.0344 89.9823 75.9917C90.0069 75.9489 90.0471 75.9173 90.0946 75.9036C90.3877 75.8455 90.6904 75.8567 90.9785 75.9364C91.2666 76.016 91.5321 76.1619 91.7538 76.3623C91.7712 76.3796 91.785 76.4001 91.7944 76.4227C91.8039 76.4453 91.8087 76.4696 91.8087 76.4941C91.8087 76.5186 91.8039 76.5429 91.7944 76.5655C91.785 76.5881 91.7712 76.6086 91.7538 76.6259C91.7339 76.6482 91.7087 76.6652 91.6806 76.6755C91.6525 76.6857 91.6223 76.6888 91.5927 76.6844Z" fill="#263238"/>
<path d="M80.066 78.3192C80.2759 80.6957 79.4853 84.5851 77.6895 85.9075C77.6895 85.9075 79.0412 88.4061 83.3698 88.9868C88.1278 89.6261 85.8927 86.947 85.8927 86.947C83.36 85.971 83.6333 84.0824 84.2726 82.3452L80.066 78.3192Z" fill="#FFB573"/>
<path d="M93.0324 91.0023C93.4082 93.2178 93.8718 95.5163 94.3549 97.7562C94.6135 98.8737 94.8722 99.9961 95.1747 101.094C95.4773 102.192 95.7798 103.29 96.1166 104.369C96.302 104.901 96.4679 105.442 96.6631 105.959L96.9559 106.74L97.0242 106.931V106.989C97.034 107.019 97.0454 107.048 97.0584 107.077C97.159 107.251 97.3236 107.379 97.5171 107.433C97.9032 107.571 98.308 107.648 98.7176 107.663C99.7648 107.691 100.812 107.606 101.841 107.409C102.919 107.214 104.056 106.95 105.115 106.657L106.008 108.634C105.47 108.954 104.916 109.247 104.349 109.512C103.788 109.787 103.213 110.031 102.626 110.244C101.398 110.724 100.109 111.033 98.7957 111.162C98.0245 111.232 97.247 111.179 96.4923 111.005C95.5253 110.785 94.6546 110.26 94.0084 109.507C93.8413 109.305 93.6911 109.09 93.5594 108.863C93.4911 108.751 93.4374 108.634 93.3789 108.521L93.2862 108.302L92.9055 107.448C92.6566 106.877 92.4175 106.306 92.2077 105.73C91.788 104.578 91.3878 103.422 91.0414 102.26C90.6949 101.099 90.3826 99.9278 90.0654 98.7566C89.4846 96.4044 89.0113 94.0767 88.6599 91.6415L93.0324 91.0023Z" fill="#FFB573"/>
<path d="M104.647 106.794L106.53 105.301L107.379 108.199C107.379 108.199 104.803 110.063 104.115 107.872L104.647 106.794Z" fill="#FFB573"/>
<path d="M108.233 105.813L108.907 107.931L107.379 108.199L106.535 105.301L108.233 105.813Z" fill="#FFB573"/>
<path d="M73.0388 198.816L76.977 199.109L78.1433 190.066L74.2051 189.774L73.0388 198.816Z" fill="#FFB573"/>
<path d="M47.8191 187.329L51.2302 189.403L56.9057 182.317L53.4945 180.243L47.8191 187.329Z" fill="#FFB573"/>
<path d="M53.6116 190.447C53.5631 190.454 53.5137 190.454 53.4652 190.447C52.9772 190.447 52.3965 189.686 52.1037 189.237C52.0929 189.222 52.0872 189.204 52.0872 189.185C52.0872 189.167 52.0929 189.149 52.1037 189.134C52.1131 189.119 52.1269 189.106 52.1434 189.098C52.1599 189.09 52.1783 189.088 52.1964 189.09C52.3574 189.124 53.7677 189.422 53.9532 189.891C53.9731 189.942 53.979 189.998 53.9705 190.053C53.9619 190.108 53.9391 190.16 53.9044 190.203C53.8389 190.316 53.7351 190.403 53.6116 190.447ZM52.3916 189.339C52.8064 189.925 53.2017 190.271 53.4701 190.276C53.5285 190.277 53.586 190.262 53.6367 190.232C53.6873 190.203 53.7292 190.161 53.758 190.11C53.771 190.09 53.7779 190.066 53.7779 190.042C53.7779 190.018 53.771 189.994 53.758 189.974C53.6799 189.725 52.9528 189.476 52.3916 189.344V189.339Z" fill="#263F97"/>
<path d="M53.4016 189.227C52.9962 189.337 52.5718 189.359 52.1572 189.29C52.1418 189.285 52.1279 189.276 52.1168 189.264C52.1058 189.252 52.0978 189.238 52.0938 189.222C52.0861 189.209 52.082 189.193 52.082 189.178C52.082 189.163 52.0861 189.147 52.0938 189.134C52.1231 189.1 52.899 188.305 53.47 188.329C53.5437 188.33 53.6162 188.347 53.6821 188.38C53.748 188.413 53.8056 188.461 53.8506 188.519C53.9034 188.571 53.9371 188.64 53.9459 188.713C53.9548 188.787 53.9384 188.861 53.8994 188.924C53.7703 189.076 53.5958 189.182 53.4016 189.227ZM52.3768 189.139C52.8648 189.193 53.6164 189.051 53.7676 188.827C53.7676 188.788 53.8067 188.734 53.7286 188.636C53.6998 188.599 53.6629 188.568 53.6206 188.547C53.5784 188.526 53.5319 188.515 53.4846 188.514C53.0595 188.603 52.6724 188.821 52.3768 189.139Z" fill="#263F97"/>
<path d="M52.2549 188.641L49.0195 185.528C48.966 185.473 48.8942 185.44 48.8177 185.434C48.7412 185.429 48.6654 185.452 48.6047 185.499L45.8426 187.626C45.776 187.685 45.7227 187.758 45.6862 187.839C45.6497 187.92 45.6309 188.008 45.6309 188.097C45.6309 188.186 45.6497 188.274 45.6862 188.355C45.7227 188.437 45.776 188.509 45.8426 188.568C46.9894 189.637 47.5945 190.096 49.0146 191.467C49.893 192.311 51.0837 193.629 52.294 194.795C53.5042 195.961 54.6852 194.858 54.285 194.268C52.4794 191.623 52.7478 190.632 52.5868 189.281C52.5523 189.036 52.4352 188.81 52.2549 188.641Z" fill="#263238"/>
<path d="M78.6851 199.236C78.2684 199.228 77.8533 199.181 77.4456 199.094C77.4268 199.09 77.4097 199.081 77.3966 199.067C77.3835 199.053 77.375 199.035 77.3724 199.016C77.3699 198.997 77.3732 198.977 77.3819 198.96C77.3906 198.943 77.4043 198.928 77.4212 198.919C77.6018 198.826 79.2024 198.021 79.6709 198.294C79.7159 198.317 79.7538 198.352 79.7804 198.395C79.8071 198.438 79.8215 198.487 79.8222 198.538C79.8322 198.623 79.821 198.709 79.7894 198.788C79.7579 198.867 79.7071 198.937 79.6416 198.992C79.3595 199.179 79.0224 199.265 78.6851 199.236ZM77.7579 198.963C78.6266 199.104 79.2756 199.07 79.5196 198.855C79.5627 198.818 79.5959 198.771 79.6164 198.719C79.6368 198.666 79.6438 198.609 79.6367 198.553C79.6381 198.533 79.6338 198.513 79.6243 198.496C79.6148 198.479 79.6004 198.464 79.583 198.455C79.3195 198.309 78.4167 198.65 77.7579 198.963Z" fill="#263F97"/>
<path d="M77.4652 199.104C77.4477 199.109 77.4291 199.109 77.4115 199.104C77.3972 199.095 77.3858 199.082 77.3789 199.066C77.372 199.05 77.3697 199.033 77.3725 199.016C77.3725 198.948 77.5628 197.338 78.4461 197.338H78.5193C78.7779 197.362 78.8511 197.489 78.8657 197.596C78.9389 198.04 77.9825 198.894 77.5042 199.109L77.4652 199.104ZM78.4412 197.508C77.8751 197.508 77.6506 198.445 77.5823 198.845C78.0703 198.553 78.7193 197.869 78.6754 197.616C78.6754 197.591 78.6754 197.528 78.4949 197.513L78.4412 197.508Z" fill="#263F97"/>
<path d="M77.221 198.548H72.7948C72.7182 198.548 72.644 198.574 72.5851 198.624C72.5263 198.673 72.4865 198.741 72.4728 198.816L71.8774 202.315C71.8656 202.403 71.8726 202.492 71.8981 202.577C71.9236 202.661 71.9669 202.74 72.0252 202.806C72.0834 202.873 72.1552 202.926 72.2358 202.963C72.3164 202.999 72.4038 203.018 72.4923 203.018C74.0344 203.018 74.781 202.901 76.7281 202.901C77.9237 202.901 80.3979 203.023 82.0522 203.023C83.7065 203.023 83.8383 201.388 83.1502 201.242C80.0807 200.578 78.89 199.66 77.8749 198.802C77.6938 198.642 77.4621 198.552 77.221 198.548Z" fill="#263238"/>
<path opacity="0.2" d="M78.1434 190.066L77.4943 195.093L73.6001 194.439L74.2052 189.778L78.1434 190.066Z" fill="black"/>
<path opacity="0.2" d="M53.4896 180.243L56.9056 182.322L54.5534 185.25L51.0691 183.264L53.4896 180.243Z" fill="black"/>
<path d="M71.0525 109.634L86.9955 111.776C93.1736 89.4162 91.3533 88.816 91.3533 88.816C90.6508 88.4811 89.9251 88.1973 89.1817 87.9668C88.4302 87.6936 87.6706 87.4447 86.9028 87.2202C85.3691 86.765 83.8096 86.4016 82.2326 86.132C79.1719 85.6057 76.0611 85.4305 72.9606 85.6098C72.6499 85.6315 72.3481 85.7231 72.0777 85.8777C71.8073 86.0324 71.5753 86.246 71.399 86.5028C71.3327 86.5981 71.2755 86.6994 71.2282 86.8054C71.0547 87.1768 70.9872 87.5888 71.033 87.9961C72.3799 99.7472 71.9456 103.612 71.0525 109.634Z" fill="#263F97"/>
<path opacity="0.2" d="M88.5474 95.648C88.2334 97.9617 88.5312 100.317 89.4111 102.48C90.4701 98.1173 91.0459 95.16 91.329 93.1104C90.1139 93.0568 88.8499 93.5252 88.5474 95.648Z" fill="black"/>
<path d="M91.212 88.738C93.9448 90.2996 95.8432 94.0231 96.4141 96.1849L90.5972 101.504C90.5972 101.504 87.5813 94.4915 87.8253 92.3151C88.0693 90.1386 90.1824 88.1475 91.212 88.738Z" fill="#263F97"/>
<path d="M80.9298 73.4147C79.7049 77.1138 79.1095 78.651 80.1831 81.2862C81.8033 85.2536 86.6003 86.093 88.9037 82.8673C90.9777 79.9637 92.632 74.4005 89.6796 71.4432C89.0592 70.7834 88.2774 70.2968 87.4114 70.0316C86.5455 69.7663 85.6253 69.7315 84.7418 69.9305C83.8582 70.1296 83.0419 70.5557 82.3734 71.1667C81.7049 71.7778 81.2073 72.5526 80.9298 73.4147Z" fill="#FFB573"/>
<path d="M86.9956 76.6941C86.7383 77.3727 86.6974 78.1142 86.8785 78.8169C87.1225 79.7929 87.8545 79.8759 88.3084 79.2464C88.7622 78.6169 89.0696 77.4798 88.5816 76.66C88.0936 75.8401 87.3128 75.9475 86.9956 76.6941Z" fill="#FFB573"/>
<path d="M82.2571 68.808C79.6219 67.344 74.8786 71.6287 73.6878 78.6217C72.8338 83.6286 83.5259 86.0491 90.2798 85.971C89.8309 84.79 87.0249 81.2374 88.8158 77.8165C90.1188 75.3326 91.6023 75.9084 91.6999 73.0195C91.8219 69.379 87.0005 66.939 82.2571 68.808Z" fill="#263238"/>
<path d="M88.2548 70.3793C91.3195 70.0817 94.3988 73.0926 92.1149 76.0938C91.5571 75.6465 90.9078 75.3272 90.2129 75.1585C89.5181 74.9899 88.7946 74.976 88.0938 75.1178C86.6932 75.4302 88.2548 70.3793 88.2548 70.3793Z" fill="#263238"/>
<path d="M82.7891 111.21C82.7891 111.21 76.6159 137.377 73.6879 152.412C70.633 168.272 55.9881 184.796 55.9881 184.796L51.03 182.024C51.03 182.024 60.2435 166.945 63.23 152.134C69.3007 122.073 65.182 116.022 71.038 109.639L82.7891 111.21Z" fill="#263238"/>
<path d="M56.4957 185.259L50.2834 181.799L51.1911 179.965L58.1598 183.171L56.4957 185.259Z" fill="#263F97"/>
<path opacity="0.2" d="M79.4952 116.896C74.6836 121.078 75.2057 135.928 75.7084 142.594C77.7287 133.087 80.1541 122.508 81.5644 116.383C81.0715 116.003 80.3834 116.144 79.4952 116.896Z" fill="black"/>
<path d="M86.7614 111.786C86.7614 111.786 89.5479 142.857 88.0254 154.706C86.4442 167.033 78.402 193.848 78.402 193.848L72.7119 193.116C72.7119 193.116 77.3284 166.54 78.1482 154.34C79.0413 141.032 75.0738 110.22 75.0738 110.22L86.7614 111.786Z" fill="#263238"/>
<path d="M79.6074 194.175L71.5164 193.131L71.6384 190.74L80.4224 191.589L79.6074 194.175Z" fill="#263F97"/>
<path d="M70.9111 108.673L70.0424 109.995C69.9741 110.098 70.0961 110.225 70.2767 110.249L87.0004 112.494C87.1468 112.494 87.2737 112.46 87.2884 112.372L87.586 110.976C87.586 110.879 87.4884 110.776 87.3323 110.757L71.1843 108.59C71.1355 108.58 71.0849 108.582 71.0371 108.596C70.9894 108.611 70.946 108.637 70.9111 108.673Z" fill="#263F97"/>
<path opacity="0.5" d="M70.9111 108.673L70.0424 109.995C69.9741 110.098 70.0961 110.225 70.2767 110.249L87.0004 112.494C87.1468 112.494 87.2737 112.46 87.2884 112.372L87.586 110.976C87.586 110.879 87.4884 110.776 87.3323 110.757L71.1843 108.59C71.1355 108.58 71.0849 108.582 71.0371 108.596C70.9894 108.611 70.946 108.637 70.9111 108.673Z" fill="black"/>
<path d="M72.8926 110.776L72.4583 110.717C72.3704 110.717 72.3119 110.654 72.3216 110.6L72.7218 108.785C72.7218 108.736 72.8145 108.702 72.8975 108.712L73.3318 108.77C73.4196 108.77 73.4782 108.834 73.4684 108.887L73.0683 110.703C73.0585 110.732 72.9755 110.776 72.8926 110.776Z" fill="#263238"/>
<path d="M83.8139 112.24L83.3796 112.181C83.2966 112.181 83.2332 112.118 83.2429 112.064L83.6431 110.249C83.6431 110.195 83.7358 110.161 83.8237 110.176L84.2531 110.229C84.3409 110.229 84.3995 110.298 84.3897 110.351L83.9896 112.162C83.9798 112.24 83.8969 112.24 83.8139 112.24Z" fill="#263238"/>
</g>
</svg>
